{"glyphs":{"0":{"ha":707,"x_min":58,"x_max":650,"o":"m 650 457 q 614 201 650 308 q 513 39 579 95 q 353 -17 446 -17 q 194 39 260 -17 q 93 201 127 94 q 58 457 58 307 q 93 712 58 607 q 194 871 127 817 q 353 926 260 926 q 513 871 446 926 q 614 712 579 817 q 650 457 650 607 m 199 457 q 240 186 199 273 q 353 100 280 100 q 467 186 427 100 q 507 457 507 273 q 353 809 507 809 q 199 457 199 809 z "},"1":{"ha":707,"x_min":105,"x_max":628,"o":"m 140 742 l 140 840 q 251 868 203 851 q 340 911 298 886 l 453 911 l 453 119 l 628 119 l 628 0 l 105 0 l 105 119 l 304 119 l 304 751 l 140 742 z "},"2":{"ha":707,"x_min":45,"x_max":645,"o":"m 305 808 q 128 711 214 808 l 45 793 q 173 893 107 860 q 324 926 238 926 q 471 893 408 926 q 567 799 533 860 q 601 654 601 737 q 558 491 601 577 q 445 316 516 405 q 270 117 374 227 q 418 127 363 127 l 645 127 l 645 0 l 54 0 l 54 86 q 277 318 191 220 q 411 497 363 416 q 458 645 458 579 q 418 765 458 722 q 305 808 379 808 z "},"3":{"ha":707,"x_min":34,"x_max":637,"o":"m 488 248 q 428 366 488 325 q 222 407 368 407 l 222 516 q 402 560 347 516 q 456 675 456 604 q 420 772 456 736 q 321 808 385 808 q 226 788 270 808 q 141 728 182 768 l 64 820 q 330 926 180 926 q 477 897 414 926 q 573 813 539 867 q 607 686 607 759 q 565 554 607 611 q 452 469 524 498 l 452 464 q 586 386 534 443 q 637 243 637 328 q 597 106 637 165 q 489 15 558 47 q 334 -17 420 -17 q 159 17 234 -17 q 34 109 84 52 l 106 204 q 322 105 202 105 q 443 143 397 105 q 488 248 488 180 z "},"4":{"ha":707,"x_min":25,"x_max":670,"o":"m 417 0 l 417 231 l 25 231 l 25 332 l 382 911 l 557 911 l 557 348 l 670 348 l 670 231 l 557 231 l 557 0 l 417 0 m 419 768 l 402 734 q 347 625 366 661 l 174 348 l 417 348 l 417 578 q 425 768 417 631 l 419 768 z "},"5":{"ha":707,"x_min":41,"x_max":640,"o":"m 491 291 q 447 427 491 376 q 321 478 402 478 q 250 467 280 478 q 178 428 220 456 l 105 474 l 132 911 l 597 911 l 597 784 l 261 784 l 241 556 q 300 579 271 572 q 363 587 329 587 q 506 554 444 587 q 604 456 568 522 q 640 295 640 391 q 597 129 640 199 q 484 20 555 58 q 332 -17 414 -17 q 165 15 233 -17 q 41 103 96 47 l 110 198 q 203 129 157 153 q 314 105 250 105 q 405 128 365 105 q 468 193 446 151 q 491 291 491 235 z "},"6":{"ha":707,"x_min":63,"x_max":653,"o":"m 201 472 q 293 545 239 519 q 397 571 346 571 q 532 538 474 571 q 621 439 589 505 q 653 276 653 373 q 616 123 653 190 q 516 20 579 56 q 379 -17 454 -17 q 219 35 291 -17 q 105 188 147 86 q 63 435 63 290 q 110 712 63 602 q 235 874 157 823 q 408 926 313 926 q 635 836 551 926 l 557 743 q 494 788 532 772 q 415 804 456 804 q 201 472 210 804 m 205 362 q 232 217 209 276 q 293 127 256 157 q 378 98 330 98 q 448 119 416 98 q 497 181 479 140 q 515 276 515 221 q 478 415 515 367 q 370 463 440 463 q 284 439 328 463 q 205 362 241 415 z "},"7":{"ha":707,"x_min":61,"x_max":648,"o":"m 648 911 l 648 819 q 493 572 547 692 q 417 319 439 451 q 388 0 395 188 l 236 0 q 269 295 243 163 q 347 547 295 427 q 485 784 399 666 l 61 784 l 61 911 l 648 911 z "},"8":{"ha":707,"x_min":58,"x_max":650,"o":"m 362 926 q 496 896 439 926 q 585 812 554 866 q 616 688 616 758 q 599 604 616 646 q 554 527 582 562 q 497 471 527 492 l 497 465 q 608 368 566 426 q 650 227 650 309 q 615 104 650 159 q 512 16 579 48 q 354 -17 445 -17 q 203 16 271 -17 q 96 106 135 49 q 58 233 58 163 q 102 373 58 312 q 218 470 146 435 l 218 475 q 130 570 163 515 q 96 690 96 625 q 129 814 96 760 q 222 897 162 867 q 362 926 283 926 m 230 690 q 278 584 230 626 q 414 509 327 542 q 471 590 451 544 q 492 680 492 635 q 456 781 492 742 q 359 819 421 819 q 264 785 299 819 q 230 690 230 750 m 290 428 q 216 346 245 395 q 188 246 188 297 q 210 166 188 201 q 272 110 233 130 q 357 90 311 90 q 470 129 430 90 q 510 232 510 168 q 482 314 510 279 q 409 373 454 349 q 290 428 364 398 z "},"9":{"ha":707,"x_min":52,"x_max":642,"o":"m 505 439 q 415 366 470 392 q 309 340 361 340 q 174 374 232 340 q 84 473 116 408 q 52 628 52 538 q 90 782 52 713 q 191 888 127 850 q 329 927 255 927 q 492 881 422 927 q 602 733 562 834 q 642 473 642 632 q 603 199 642 309 q 492 36 563 90 q 328 -17 421 -17 q 200 7 254 -17 q 97 78 146 31 l 172 169 q 236 124 193 142 q 319 105 279 105 q 456 183 410 105 q 505 439 503 260 m 190 628 q 228 497 190 547 q 335 448 267 448 q 422 471 379 448 q 501 547 465 494 q 479 695 501 635 q 420 784 458 755 q 332 813 382 813 q 260 790 293 813 q 209 724 228 766 q 190 628 190 682 z "}," ":{"ha":284,"x_min":0,"x_max":0,"o":""},"A":{"ha":765,"x_min":-3,"x_max":769,"o":"m -3 0 l 296 909 l 469 909 l 769 0 l 611 0 l 536 254 l 224 254 l 149 0 l -3 0 m 377 791 q 294 490 335 627 l 258 372 l 502 372 l 467 490 q 391 758 441 572 l 382 791 l 377 791 z "},"Á":{"ha":765,"x_min":-3,"x_max":769,"o":"m -3 0 l 296 909 l 469 909 l 769 0 l 611 0 l 536 254 l 224 254 l 149 0 l -3 0 m 377 791 q 294 490 335 627 l 258 372 l 502 372 l 467 490 q 391 758 441 572 l 382 791 l 377 791 m 583 1139 l 422 978 l 297 978 l 415 1139 l 583 1139 z "},"Ă":{"ha":765,"x_min":-3,"x_max":769,"o":"m -3 0 l 296 909 l 469 909 l 769 0 l 611 0 l 536 254 l 224 254 l 149 0 l -3 0 m 377 791 q 294 490 335 627 l 258 372 l 502 372 l 467 490 q 391 758 441 572 l 382 791 l 377 791 m 291 1139 q 321 1083 298 1105 q 382 1061 344 1061 q 444 1083 421 1061 q 474 1139 467 1105 l 562 1139 q 509 1024 554 1068 q 382 980 465 980 q 256 1024 300 980 q 203 1139 211 1068 l 291 1139 z "},"Â":{"ha":765,"x_min":-3,"x_max":769,"o":"m -3 0 l 296 909 l 469 909 l 769 0 l 611 0 l 536 254 l 224 254 l 149 0 l -3 0 m 377 791 q 294 490 335 627 l 258 372 l 502 372 l 467 490 q 391 758 441 572 l 382 791 l 377 791 m 591 978 l 470 978 l 385 1068 l 380 1068 l 295 978 l 174 978 l 307 1139 l 458 1139 l 591 978 z "},"Ä":{"ha":765,"x_min":-3,"x_max":769,"o":"m -3 0 l 296 909 l 469 909 l 769 0 l 611 0 l 536 254 l 224 254 l 149 0 l -3 0 m 377 791 q 294 490 335 627 l 258 372 l 502 372 l 467 490 q 391 758 441 572 l 382 791 l 377 791 m 255 1145 q 313 1123 290 1145 q 336 1065 336 1100 q 313 1007 336 1030 q 255 984 290 984 q 197 1007 219 984 q 174 1065 174 1029 q 197 1123 174 1100 q 255 1145 219 1145 m 510 1145 q 568 1123 546 1145 q 591 1065 591 1100 q 568 1007 591 1029 q 510 984 546 984 q 452 1007 475 984 q 429 1065 429 1030 q 452 1123 429 1100 q 510 1145 475 1145 z "},"À":{"ha":765,"x_min":-3,"x_max":769,"o":"m -3 0 l 296 909 l 469 909 l 769 0 l 611 0 l 536 254 l 224 254 l 149 0 l -3 0 m 377 791 q 294 490 335 627 l 258 372 l 502 372 l 467 490 q 391 758 441 572 l 382 791 l 377 791 m 342 978 l 181 1139 l 349 1139 l 467 978 l 342 978 z "},"Ā":{"ha":765,"x_min":-3,"x_max":769,"o":"m -3 0 l 296 909 l 469 909 l 769 0 l 611 0 l 536 254 l 224 254 l 149 0 l -3 0 m 377 791 q 294 490 335 627 l 258 372 l 502 372 l 467 490 q 391 758 441 572 l 382 791 l 377 791 m 200 1007 l 200 1108 l 565 1108 l 565 1007 l 200 1007 z "},"Ą":{"ha":765,"x_min":-3,"x_max":806,"o":"m 541 -176 q 573 -74 541 -121 q 648 0 606 -26 l 611 0 l 536 254 l 224 254 l 149 0 l -3 0 l 296 909 l 469 909 l 769 0 q 709 -32 736 -9 q 667 -82 682 -54 q 652 -140 652 -111 q 669 -184 652 -168 q 712 -199 687 -199 q 769 -180 743 -199 l 806 -258 q 748 -288 783 -276 q 683 -300 713 -300 q 610 -286 643 -300 q 559 -243 578 -271 q 541 -176 541 -215 m 377 791 q 294 490 335 627 l 258 372 l 502 372 l 467 490 q 391 758 441 572 l 382 791 l 377 791 z "},"Å":{"ha":765,"x_min":-3,"x_max":769,"o":"m -3 0 l 296 909 l 469 909 l 769 0 l 611 0 l 536 254 l 224 254 l 149 0 l -3 0 m 377 791 q 294 490 335 627 l 258 372 l 502 372 l 467 490 q 391 758 441 572 l 382 791 l 377 791 m 382 1226 q 455 1210 423 1226 q 506 1165 488 1194 q 524 1098 524 1136 q 506 1030 524 1059 q 455 985 488 1001 q 382 970 423 970 q 280 1005 319 970 q 241 1098 241 1040 q 259 1165 241 1136 q 309 1210 277 1194 q 382 1226 341 1226 m 382 1164 q 338 1145 356 1164 q 320 1098 320 1127 q 338 1049 320 1067 q 382 1031 356 1031 q 426 1049 408 1031 q 444 1098 444 1067 q 426 1145 444 1127 q 382 1164 408 1164 z "},"Ã":{"ha":765,"x_min":-3,"x_max":769,"o":"m -3 0 l 296 909 l 469 909 l 769 0 l 611 0 l 536 254 l 224 254 l 149 0 l -3 0 m 377 791 q 294 490 335 627 l 258 372 l 502 372 l 467 490 q 391 758 441 572 l 382 791 l 377 791 m 248 983 l 165 983 q 209 1105 174 1060 q 297 1149 245 1149 q 347 1139 324 1149 q 399 1110 369 1129 q 435 1088 422 1095 q 463 1082 449 1082 q 497 1099 483 1082 q 517 1149 511 1116 l 600 1149 q 556 1027 591 1072 q 468 983 520 983 q 418 993 441 983 q 366 1022 396 1003 q 330 1044 343 1037 q 302 1050 316 1050 q 268 1034 282 1050 q 248 983 254 1017 z "},"Æ":{"ha":1149,"x_min":-3,"x_max":1082,"o":"m 547 243 l 274 243 l 153 0 l -3 0 l 457 909 l 1068 909 l 1068 783 l 696 783 l 696 536 l 1008 536 l 1008 411 l 696 411 l 696 127 l 1082 127 l 1082 0 l 547 0 l 547 243 m 415 530 q 410 519 412 524 q 406 511 408 515 l 332 361 l 547 361 l 547 793 l 541 793 q 415 530 458 620 z "},"Ǽ":{"ha":1149,"x_min":-3,"x_max":1082,"o":"m 547 243 l 274 243 l 153 0 l -3 0 l 457 909 l 1068 909 l 1068 783 l 696 783 l 696 536 l 1008 536 l 1008 411 l 696 411 l 696 127 l 1082 127 l 1082 0 l 547 0 l 547 243 m 415 530 q 410 519 412 524 q 406 511 408 515 l 332 361 l 547 361 l 547 793 l 541 793 q 415 530 458 620 m 965 1139 l 804 978 l 679 978 l 797 1139 l 965 1139 z "},"B":{"ha":821,"x_min":115,"x_max":771,"o":"m 566 488 l 566 483 q 718 418 665 473 q 771 269 771 363 q 728 119 771 179 q 608 29 685 58 q 429 0 531 0 l 115 0 l 115 909 l 407 909 q 641 859 559 909 q 722 689 722 808 q 684 561 722 616 q 566 488 646 506 m 398 792 l 266 792 l 266 529 l 390 529 q 532 565 488 529 q 576 671 576 601 q 534 764 576 736 q 398 792 492 792 m 415 420 l 266 420 l 266 117 l 412 117 q 571 156 517 117 q 625 279 625 196 q 574 387 625 353 q 415 420 523 420 z "},"C":{"ha":793,"x_min":66,"x_max":753,"o":"m 655 720 q 479 796 578 796 q 343 756 401 796 q 252 640 284 716 q 220 458 220 564 q 250 272 220 349 q 338 154 281 195 q 474 113 395 113 q 581 136 534 113 q 670 205 629 159 l 753 115 q 627 17 699 50 q 471 -17 556 -17 q 262 37 354 -17 q 118 197 170 91 q 66 452 66 302 q 119 708 66 601 q 266 870 173 814 q 477 926 359 926 q 624 894 555 926 q 739 813 692 863 l 655 720 z "},"Ć":{"ha":793,"x_min":66,"x_max":753,"o":"m 655 720 q 479 796 578 796 q 343 756 401 796 q 252 640 284 716 q 220 458 220 564 q 250 272 220 349 q 338 154 281 195 q 474 113 395 113 q 581 136 534 113 q 670 205 629 159 l 753 115 q 627 17 699 50 q 471 -17 556 -17 q 262 37 354 -17 q 118 197 170 91 q 66 452 66 302 q 119 708 66 601 q 266 870 173 814 q 477 926 359 926 q 624 894 555 926 q 739 813 692 863 l 655 720 m 679 1139 l 518 978 l 393 978 l 511 1139 l 679 1139 z "},"Č":{"ha":793,"x_min":66,"x_max":753,"o":"m 655 720 q 479 796 578 796 q 343 756 401 796 q 252 640 284 716 q 220 458 220 564 q 250 272 220 349 q 338 154 281 195 q 474 113 395 113 q 581 136 534 113 q 670 205 629 159 l 753 115 q 627 17 699 50 q 471 -17 556 -17 q 262 37 354 -17 q 118 197 170 91 q 66 452 66 302 q 119 708 66 601 q 266 870 173 814 q 477 926 359 926 q 624 894 555 926 q 739 813 692 863 l 655 720 m 269 1139 l 391 1139 l 475 1048 l 481 1048 l 566 1139 l 687 1139 l 553 978 l 403 978 l 269 1139 z "},"Ç":{"ha":793,"x_min":66,"x_max":757,"o":"m 499 -66 q 559 -102 537 -79 q 581 -166 581 -126 q 519 -260 581 -227 q 363 -300 458 -293 l 350 -233 q 471 -169 471 -219 q 450 -131 471 -146 q 385 -105 429 -116 l 431 -14 q 242 54 325 -4 q 113 214 160 112 q 66 452 66 316 q 120 704 66 597 q 270 868 175 811 q 482 926 365 926 q 625 893 559 926 q 739 811 691 861 l 655 718 q 576 776 617 755 q 484 796 534 796 q 347 755 407 796 q 253 637 287 713 q 220 457 220 560 q 252 274 220 352 q 342 155 283 197 q 479 113 400 113 q 585 137 538 113 q 673 207 631 160 l 757 116 q 524 -13 662 3 l 499 -66 z "},"Ĉ":{"ha":793,"x_min":66,"x_max":753,"o":"m 655 720 q 479 796 578 796 q 343 756 401 796 q 252 640 284 716 q 220 458 220 564 q 250 272 220 349 q 338 154 281 195 q 474 113 395 113 q 581 136 534 113 q 670 205 629 159 l 753 115 q 627 17 699 50 q 471 -17 556 -17 q 262 37 354 -17 q 118 197 170 91 q 66 452 66 302 q 119 708 66 601 q 266 870 173 814 q 477 926 359 926 q 624 894 555 926 q 739 813 692 863 l 655 720 m 687 978 l 566 978 l 481 1068 l 475 1068 l 391 978 l 269 978 l 403 1139 l 553 1139 l 687 978 z "},"Ċ":{"ha":793,"x_min":66,"x_max":753,"o":"m 655 720 q 479 796 578 796 q 343 756 401 796 q 252 640 284 716 q 220 458 220 564 q 250 272 220 349 q 338 154 281 195 q 474 113 395 113 q 581 136 534 113 q 670 205 629 159 l 753 115 q 627 17 699 50 q 471 -17 556 -17 q 262 37 354 -17 q 118 197 170 91 q 66 452 66 302 q 119 708 66 601 q 266 870 173 814 q 477 926 359 926 q 624 894 555 926 q 739 813 692 863 l 655 720 m 478 1161 q 547 1136 519 1161 q 574 1073 574 1112 q 547 1008 574 1034 q 478 983 519 983 q 409 1008 437 983 q 382 1073 382 1034 q 409 1136 382 1112 q 478 1161 437 1161 z "},"D":{"ha":861,"x_min":115,"x_max":793,"o":"m 366 0 l 115 0 l 115 909 l 362 909 q 793 460 793 909 q 743 208 793 311 q 597 53 693 105 q 366 0 502 0 m 353 787 l 266 787 l 266 121 l 349 121 q 640 460 640 121 q 569 709 640 631 q 353 787 499 787 z "},"Ð":{"ha":890,"x_min":39,"x_max":823,"o":"m 391 0 l 145 0 l 145 435 l 39 435 l 39 507 l 145 513 l 145 909 l 384 909 q 622 858 524 909 q 772 706 720 807 q 823 458 823 606 q 772 209 823 311 q 624 53 721 106 q 391 0 527 0 m 374 787 l 294 787 l 294 513 l 492 513 l 492 435 l 294 435 l 294 121 l 374 121 q 593 206 517 121 q 669 458 669 291 q 594 706 669 625 q 374 787 518 787 z "},"Ď":{"ha":861,"x_min":115,"x_max":793,"o":"m 366 0 l 115 0 l 115 909 l 362 909 q 793 460 793 909 q 743 208 793 311 q 597 53 693 105 q 366 0 502 0 m 353 787 l 266 787 l 266 121 l 349 121 q 640 460 640 121 q 569 709 640 631 q 353 787 499 787 m 189 1139 l 311 1139 l 395 1048 l 401 1048 l 486 1139 l 607 1139 l 473 978 l 323 978 l 189 1139 z "},"Đ":{"ha":890,"x_min":39,"x_max":823,"o":"m 391 0 l 145 0 l 145 435 l 39 435 l 39 507 l 145 513 l 145 909 l 384 909 q 622 858 524 909 q 772 706 720 807 q 823 458 823 606 q 772 209 823 311 q 624 53 721 106 q 391 0 527 0 m 374 787 l 294 787 l 294 513 l 492 513 l 492 435 l 294 435 l 294 121 l 374 121 q 593 206 517 121 q 669 458 669 291 q 594 706 669 625 q 374 787 518 787 z "},"E":{"ha":738,"x_min":115,"x_max":671,"o":"m 266 783 l 266 536 l 596 536 l 596 411 l 266 411 l 266 127 l 671 127 l 671 0 l 115 0 l 115 909 l 656 909 l 656 783 l 266 783 z "},"É":{"ha":738,"x_min":115,"x_max":671,"o":"m 266 783 l 266 536 l 596 536 l 596 411 l 266 411 l 266 127 l 671 127 l 671 0 l 115 0 l 115 909 l 656 909 l 656 783 l 266 783 m 582 1139 l 421 978 l 296 978 l 414 1139 l 582 1139 z "},"Ĕ":{"ha":738,"x_min":115,"x_max":671,"o":"m 266 783 l 266 536 l 596 536 l 596 411 l 266 411 l 266 127 l 671 127 l 671 0 l 115 0 l 115 909 l 656 909 l 656 783 l 266 783 m 290 1139 q 320 1083 297 1105 q 381 1061 342 1061 q 443 1083 420 1061 q 473 1139 465 1105 l 561 1139 q 508 1024 553 1068 q 381 980 463 980 q 254 1024 299 980 q 201 1139 210 1068 l 290 1139 z "},"Ě":{"ha":738,"x_min":115,"x_max":671,"o":"m 266 783 l 266 536 l 596 536 l 596 411 l 266 411 l 266 127 l 671 127 l 671 0 l 115 0 l 115 909 l 656 909 l 656 783 l 266 783 m 172 1139 l 294 1139 l 378 1048 l 384 1048 l 469 1139 l 590 1139 l 456 978 l 306 978 l 172 1139 z "},"Ê":{"ha":738,"x_min":115,"x_max":671,"o":"m 266 783 l 266 536 l 596 536 l 596 411 l 266 411 l 266 127 l 671 127 l 671 0 l 115 0 l 115 909 l 656 909 l 656 783 l 266 783 m 590 978 l 469 978 l 384 1068 l 378 1068 l 294 978 l 172 978 l 306 1139 l 456 1139 l 590 978 z "},"Ë":{"ha":738,"x_min":115,"x_max":671,"o":"m 266 783 l 266 536 l 596 536 l 596 411 l 266 411 l 266 127 l 671 127 l 671 0 l 115 0 l 115 909 l 656 909 l 656 783 l 266 783 m 254 1145 q 312 1123 289 1145 q 335 1065 335 1100 q 312 1007 335 1030 q 254 984 289 984 q 195 1007 218 984 q 173 1065 173 1029 q 195 1123 173 1100 q 254 1145 218 1145 m 509 1145 q 567 1123 545 1145 q 589 1065 589 1100 q 567 1007 589 1029 q 509 984 545 984 q 450 1007 473 984 q 427 1065 427 1030 q 450 1123 427 1100 q 509 1145 473 1145 z "},"Ė":{"ha":738,"x_min":115,"x_max":671,"o":"m 266 783 l 266 536 l 596 536 l 596 411 l 266 411 l 266 127 l 671 127 l 671 0 l 115 0 l 115 909 l 656 909 l 656 783 l 266 783 m 381 1161 q 450 1136 422 1161 q 477 1073 477 1112 q 450 1008 477 1034 q 381 983 422 983 q 312 1008 340 983 q 285 1073 285 1034 q 312 1136 285 1112 q 381 1161 340 1161 z "},"È":{"ha":738,"x_min":115,"x_max":671,"o":"m 266 783 l 266 536 l 596 536 l 596 411 l 266 411 l 266 127 l 671 127 l 671 0 l 115 0 l 115 909 l 656 909 l 656 783 l 266 783 m 340 978 l 180 1139 l 348 1139 l 466 978 l 340 978 z "},"Ē":{"ha":738,"x_min":115,"x_max":671,"o":"m 266 783 l 266 536 l 596 536 l 596 411 l 266 411 l 266 127 l 671 127 l 671 0 l 115 0 l 115 909 l 656 909 l 656 783 l 266 783 m 199 1007 l 199 1108 l 564 1108 l 564 1007 l 199 1007 z "},"Ę":{"ha":738,"x_min":115,"x_max":695,"o":"m 266 783 l 266 536 l 596 536 l 596 411 l 266 411 l 266 127 l 671 127 l 671 0 l 665 0 q 605 -23 633 -3 q 558 -75 576 -44 q 540 -140 540 -106 q 559 -184 540 -168 q 604 -199 578 -199 q 656 -180 631 -199 l 695 -258 q 636 -288 672 -276 q 570 -300 601 -300 q 498 -286 530 -300 q 447 -243 466 -271 q 428 -176 428 -215 q 459 -74 428 -120 q 534 0 491 -27 l 115 0 l 115 909 l 656 909 l 656 783 l 266 783 z "},"F":{"ha":697,"x_min":115,"x_max":659,"o":"m 266 783 l 266 512 l 600 512 l 600 387 l 266 387 l 266 0 l 115 0 l 115 909 l 659 909 l 659 783 l 266 783 z "},"G":{"ha":863,"x_min":66,"x_max":778,"o":"m 682 722 q 601 777 644 758 q 498 796 558 796 q 351 757 413 796 q 254 641 288 718 q 220 455 220 564 q 292 201 220 290 q 504 113 365 113 q 583 125 545 113 q 644 157 621 137 l 644 363 l 471 363 l 471 486 l 778 486 l 778 90 q 651 13 728 43 q 486 -17 574 -17 q 269 36 363 -17 q 120 195 174 90 q 66 451 66 300 q 121 711 66 604 q 274 872 176 818 q 496 926 371 926 q 650 895 583 926 q 766 815 718 864 l 682 722 z "},"Ğ":{"ha":863,"x_min":66,"x_max":778,"o":"m 682 722 q 601 777 644 758 q 498 796 558 796 q 351 757 413 796 q 254 641 288 718 q 220 455 220 564 q 292 201 220 290 q 504 113 365 113 q 583 125 545 113 q 644 157 621 137 l 644 363 l 471 363 l 471 486 l 778 486 l 778 90 q 651 13 728 43 q 486 -17 574 -17 q 269 36 363 -17 q 120 195 174 90 q 66 451 66 300 q 121 711 66 604 q 274 872 176 818 q 496 926 371 926 q 650 895 583 926 q 766 815 718 864 l 682 722 m 395 1139 q 425 1083 402 1105 q 486 1061 448 1061 q 548 1083 525 1061 q 578 1139 570 1105 l 666 1139 q 613 1024 658 1068 q 486 980 568 980 q 359 1024 404 980 q 307 1139 315 1068 l 395 1139 z "},"Ǧ":{"ha":863,"x_min":66,"x_max":778,"o":"m 682 722 q 601 777 644 758 q 498 796 558 796 q 351 757 413 796 q 254 641 288 718 q 220 455 220 564 q 292 201 220 290 q 504 113 365 113 q 583 125 545 113 q 644 157 621 137 l 644 363 l 471 363 l 471 486 l 778 486 l 778 90 q 651 13 728 43 q 486 -17 574 -17 q 269 36 363 -17 q 120 195 174 90 q 66 451 66 300 q 121 711 66 604 q 274 872 176 818 q 496 926 371 926 q 650 895 583 926 q 766 815 718 864 l 682 722 m 277 1139 l 399 1139 l 484 1048 l 489 1048 l 574 1139 l 695 1139 l 562 978 l 411 978 l 277 1139 z "},"Ĝ":{"ha":863,"x_min":66,"x_max":778,"o":"m 682 722 q 601 777 644 758 q 498 796 558 796 q 351 757 413 796 q 254 641 288 718 q 220 455 220 564 q 292 201 220 290 q 504 113 365 113 q 583 125 545 113 q 644 157 621 137 l 644 363 l 471 363 l 471 486 l 778 486 l 778 90 q 651 13 728 43 q 486 -17 574 -17 q 269 36 363 -17 q 120 195 174 90 q 66 451 66 300 q 121 711 66 604 q 274 872 176 818 q 496 926 371 926 q 650 895 583 926 q 766 815 718 864 l 682 722 m 695 978 l 574 978 l 489 1068 l 484 1068 l 399 978 l 277 978 l 411 1139 l 562 1139 l 695 978 z "},"Ġ":{"ha":863,"x_min":66,"x_max":778,"o":"m 682 722 q 601 777 644 758 q 498 796 558 796 q 351 757 413 796 q 254 641 288 718 q 220 455 220 564 q 292 201 220 290 q 504 113 365 113 q 583 125 545 113 q 644 157 621 137 l 644 363 l 471 363 l 471 486 l 778 486 l 778 90 q 651 13 728 43 q 486 -17 574 -17 q 269 36 363 -17 q 120 195 174 90 q 66 451 66 300 q 121 711 66 604 q 274 872 176 818 q 496 926 371 926 q 650 895 583 926 q 766 815 718 864 l 682 722 m 486 1161 q 555 1136 528 1161 q 583 1073 583 1112 q 555 1008 583 1034 q 486 983 528 983 q 417 1008 445 983 q 390 1073 390 1034 q 417 1136 390 1112 q 486 1161 445 1161 z "},"H":{"ha":911,"x_min":115,"x_max":796,"o":"m 647 540 l 647 909 l 796 909 l 796 0 l 647 0 l 647 410 l 266 410 l 266 0 l 115 0 l 115 909 l 266 909 l 266 540 l 647 540 z "},"Ħ":{"ha":963,"x_min":38,"x_max":924,"o":"m 671 0 l 671 410 l 290 410 l 290 0 l 141 0 l 141 680 l 38 680 l 38 751 l 141 758 l 141 909 l 290 909 l 290 758 l 671 758 l 671 909 l 822 909 l 822 758 l 924 758 l 924 680 l 822 680 l 822 0 l 671 0 m 671 540 l 671 680 l 290 680 l 290 540 l 671 540 z "},"Ĥ":{"ha":911,"x_min":115,"x_max":796,"o":"m 647 540 l 647 909 l 796 909 l 796 0 l 647 0 l 647 410 l 266 410 l 266 0 l 115 0 l 115 909 l 266 909 l 266 540 l 647 540 m 665 978 l 543 978 l 458 1068 l 453 1068 l 368 978 l 247 978 l 380 1139 l 531 1139 l 665 978 z "},"I":{"ha":380,"x_min":115,"x_max":266,"o":"m 115 0 l 115 909 l 266 909 l 266 0 l 115 0 z "},"Ĳ":{"ha":1057,"x_min":115,"x_max":946,"o":"m 115 0 l 115 909 l 266 909 l 266 0 l 115 0 m 796 289 l 796 909 l 946 909 l 946 275 q 918 125 946 191 q 830 21 890 59 q 681 -17 771 -17 q 522 21 589 -17 q 413 136 456 59 l 517 211 q 665 113 574 113 q 739 130 710 113 q 782 185 768 146 q 796 289 796 224 z "},"Í":{"ha":380,"x_min":105,"x_max":391,"o":"m 115 0 l 115 909 l 266 909 l 266 0 l 115 0 m 391 1139 l 231 978 l 105 978 l 223 1139 l 391 1139 z "},"Î":{"ha":380,"x_min":-18,"x_max":399,"o":"m 115 0 l 115 909 l 266 909 l 266 0 l 115 0 m 399 978 l 278 978 l 193 1068 l 188 1068 l 103 978 l -18 978 l 115 1139 l 266 1139 l 399 978 z "},"Ï":{"ha":380,"x_min":-18,"x_max":399,"o":"m 115 0 l 115 909 l 266 909 l 266 0 l 115 0 m 63 1145 q 121 1123 98 1145 q 144 1065 144 1100 q 121 1007 144 1030 q 63 984 98 984 q 5 1007 27 984 q -18 1065 -18 1029 q 5 1123 -18 1100 q 63 1145 27 1145 m 318 1145 q 376 1123 354 1145 q 399 1065 399 1100 q 376 1007 399 1029 q 318 984 354 984 q 260 1007 283 984 q 237 1065 237 1030 q 260 1123 237 1100 q 318 1145 283 1145 z "},"İ":{"ha":380,"x_min":94,"x_max":287,"o":"m 115 0 l 115 909 l 266 909 l 266 0 l 115 0 m 191 1161 q 259 1136 232 1161 q 287 1073 287 1112 q 259 1008 287 1034 q 191 983 232 983 q 122 1008 149 983 q 94 1073 94 1034 q 122 1136 94 1112 q 191 1161 149 1161 z "},"Ì":{"ha":380,"x_min":-11,"x_max":275,"o":"m 115 0 l 115 909 l 266 909 l 266 0 l 115 0 m 150 978 l -11 1139 l 157 1139 l 275 978 l 150 978 z "},"Ī":{"ha":380,"x_min":8,"x_max":373,"o":"m 115 0 l 115 909 l 266 909 l 266 0 l 115 0 m 8 1007 l 8 1108 l 373 1108 l 373 1007 l 8 1007 z "},"Į":{"ha":380,"x_min":58,"x_max":323,"o":"m 169 -140 q 188 -184 169 -168 q 232 -199 206 -199 q 286 -180 260 -199 l 323 -258 q 266 -288 300 -276 q 199 -300 231 -300 q 98 -267 138 -300 q 58 -176 58 -234 q 85 -77 58 -120 q 153 0 113 -35 l 115 0 l 115 909 l 266 909 l 266 0 q 169 -140 169 -58 z "},"Ĩ":{"ha":380,"x_min":-26,"x_max":408,"o":"m 115 0 l 115 909 l 266 909 l 266 0 l 115 0 m 56 983 l -26 983 q 17 1105 -18 1060 q 105 1149 53 1149 q 155 1139 132 1149 q 207 1110 177 1129 q 243 1088 230 1095 q 271 1082 257 1082 q 305 1099 291 1082 q 326 1149 319 1116 l 408 1149 q 364 1027 399 1072 q 276 983 328 983 q 227 993 249 983 q 174 1022 204 1003 q 138 1044 151 1037 q 110 1050 124 1050 q 76 1034 90 1050 q 56 983 62 1017 z "},"J":{"ha":676,"x_min":33,"x_max":566,"o":"m 416 289 l 416 909 l 566 909 l 566 275 q 537 125 566 191 q 450 21 509 59 q 300 -17 391 -17 q 142 21 208 -17 q 33 136 75 59 l 136 211 q 284 113 193 113 q 358 130 330 113 q 401 185 387 146 q 416 289 416 224 z "},"Ĵ":{"ha":676,"x_min":33,"x_max":674,"o":"m 416 289 l 416 909 l 566 909 l 566 275 q 537 125 566 191 q 450 21 509 59 q 300 -17 391 -17 q 142 21 208 -17 q 33 136 75 59 l 136 211 q 284 113 193 113 q 358 130 330 113 q 401 185 387 146 q 416 289 416 224 m 674 978 l 553 978 l 468 1068 l 463 1068 l 378 978 l 256 978 l 390 1139 l 541 1139 l 674 978 z "},"K":{"ha":818,"x_min":115,"x_max":820,"o":"m 269 482 l 606 909 l 774 909 l 492 556 l 820 0 l 654 0 l 402 438 l 266 271 l 266 0 l 115 0 l 115 909 l 266 909 l 266 482 l 269 482 z "},"L":{"ha":686,"x_min":115,"x_max":648,"o":"m 648 127 l 648 0 l 115 0 l 115 909 l 266 909 l 266 127 l 648 127 z "},"Ĺ":{"ha":686,"x_min":115,"x_max":648,"o":"m 648 127 l 648 0 l 115 0 l 115 909 l 266 909 l 266 127 l 648 127 m 582 1139 l 421 978 l 296 978 l 414 1139 l 582 1139 z "},"Ľ":{"ha":686,"x_min":115,"x_max":648,"o":"m 648 127 l 648 0 l 115 0 l 115 909 l 266 909 l 266 127 l 648 127 m 563 926 l 538 712 l 471 712 l 465 1012 l 566 1012 l 563 926 z "},"Ŀ":{"ha":686,"x_min":115,"x_max":648,"o":"m 648 127 l 648 0 l 115 0 l 115 909 l 266 909 l 266 127 l 648 127 m 538 343 q 488 357 511 343 q 453 394 466 370 q 439 446 439 417 q 452 499 439 475 q 488 536 465 523 q 538 549 511 549 q 588 536 565 549 q 623 499 610 523 q 636 446 636 475 q 623 394 636 417 q 587 357 610 370 q 538 343 565 343 z "},"Ł":{"ha":693,"x_min":14,"x_max":653,"o":"m 121 312 l 14 255 l 14 373 l 121 430 l 121 909 l 271 909 l 271 503 l 525 640 l 525 522 l 271 385 l 271 127 l 653 127 l 653 0 l 121 0 l 121 312 z "},"M":{"ha":1024,"x_min":109,"x_max":915,"o":"m 511 276 l 516 276 l 576 452 l 740 909 l 900 909 l 915 0 l 774 0 l 772 437 q 776 579 772 499 q 785 721 780 659 l 780 721 l 707 516 l 546 87 l 473 87 l 313 516 l 240 721 l 235 721 q 243 582 240 661 q 246 437 246 503 l 246 0 l 109 0 l 122 909 l 283 909 l 450 452 l 511 276 z "},"N":{"ha":903,"x_min":115,"x_max":787,"o":"m 659 191 l 664 191 l 658 264 q 648 395 652 344 q 645 496 645 446 l 645 909 l 787 909 l 787 0 l 633 0 l 339 527 l 245 718 l 239 718 q 244 654 240 697 q 254 524 251 579 q 258 417 258 469 l 258 0 l 115 0 l 115 909 l 269 909 l 564 384 l 659 191 z "},"Ń":{"ha":903,"x_min":115,"x_max":787,"o":"m 659 191 l 664 191 l 658 264 q 648 395 652 344 q 645 496 645 446 l 645 909 l 787 909 l 787 0 l 633 0 l 339 527 l 245 718 l 239 718 q 244 654 240 697 q 254 524 251 579 q 258 417 258 469 l 258 0 l 115 0 l 115 909 l 269 909 l 564 384 l 659 191 m 652 1139 l 491 978 l 366 978 l 484 1139 l 652 1139 z "},"Ň":{"ha":903,"x_min":115,"x_max":787,"o":"m 659 191 l 664 191 l 658 264 q 648 395 652 344 q 645 496 645 446 l 645 909 l 787 909 l 787 0 l 633 0 l 339 527 l 245 718 l 239 718 q 244 654 240 697 q 254 524 251 579 q 258 417 258 469 l 258 0 l 115 0 l 115 909 l 269 909 l 564 384 l 659 191 m 242 1139 l 363 1139 l 448 1048 l 454 1048 l 538 1139 l 660 1139 l 526 978 l 376 978 l 242 1139 z "},"Ñ":{"ha":903,"x_min":115,"x_max":787,"o":"m 659 191 l 664 191 l 658 264 q 648 395 652 344 q 645 496 645 446 l 645 909 l 787 909 l 787 0 l 633 0 l 339 527 l 245 718 l 239 718 q 244 654 240 697 q 254 524 251 579 q 258 417 258 469 l 258 0 l 115 0 l 115 909 l 269 909 l 564 384 l 659 191 m 316 983 l 234 983 q 278 1105 242 1060 q 366 1149 313 1149 q 415 1139 393 1149 q 467 1110 437 1129 q 504 1088 490 1095 q 532 1082 517 1082 q 566 1099 551 1082 q 586 1149 580 1116 l 668 1149 q 624 1027 660 1072 q 536 983 589 983 q 487 993 509 983 q 435 1022 465 1003 q 398 1044 412 1037 q 370 1050 385 1050 q 336 1034 351 1050 q 316 983 322 1017 z "},"O":{"ha":928,"x_min":66,"x_max":861,"o":"m 861 458 q 812 201 861 309 q 674 39 764 94 q 463 -17 585 -17 q 252 39 342 -17 q 114 201 163 94 q 66 458 66 309 q 114 712 66 606 q 252 871 163 817 q 463 926 342 926 q 674 871 585 926 q 812 711 764 817 q 861 458 861 606 m 220 458 q 249 272 220 350 q 332 154 277 195 q 463 113 387 113 q 594 154 539 113 q 678 273 649 195 q 707 458 707 350 q 678 641 707 564 q 594 756 649 717 q 463 796 539 796 q 332 756 387 796 q 249 641 277 717 q 220 458 220 565 z "},"Ó":{"ha":928,"x_min":66,"x_max":861,"o":"m 861 458 q 812 201 861 309 q 674 39 764 94 q 463 -17 585 -17 q 252 39 342 -17 q 114 201 163 94 q 66 458 66 309 q 114 712 66 606 q 252 871 163 817 q 463 926 342 926 q 674 871 585 926 q 812 711 764 817 q 861 458 861 606 m 220 458 q 249 272 220 350 q 332 154 277 195 q 463 113 387 113 q 594 154 539 113 q 678 273 649 195 q 707 458 707 350 q 678 641 707 564 q 594 756 649 717 q 463 796 539 796 q 332 756 387 796 q 249 641 277 717 q 220 458 220 565 m 664 1139 l 503 978 l 378 978 l 496 1139 l 664 1139 z "},"Ô":{"ha":928,"x_min":66,"x_max":861,"o":"m 861 458 q 812 201 861 309 q 674 39 764 94 q 463 -17 585 -17 q 252 39 342 -17 q 114 201 163 94 q 66 458 66 309 q 114 712 66 606 q 252 871 163 817 q 463 926 342 926 q 674 871 585 926 q 812 711 764 817 q 861 458 861 606 m 220 458 q 249 272 220 350 q 332 154 277 195 q 463 113 387 113 q 594 154 539 113 q 678 273 649 195 q 707 458 707 350 q 678 641 707 564 q 594 756 649 717 q 463 796 539 796 q 332 756 387 796 q 249 641 277 717 q 220 458 220 565 m 672 978 l 551 978 l 466 1068 l 460 1068 l 376 978 l 254 978 l 388 1139 l 538 1139 l 672 978 z "},"Ö":{"ha":928,"x_min":66,"x_max":861,"o":"m 861 458 q 812 201 861 309 q 674 39 764 94 q 463 -17 585 -17 q 252 39 342 -17 q 114 201 163 94 q 66 458 66 309 q 114 712 66 606 q 252 871 163 817 q 463 926 342 926 q 674 871 585 926 q 812 711 764 817 q 861 458 861 606 m 220 458 q 249 272 220 350 q 332 154 277 195 q 463 113 387 113 q 594 154 539 113 q 678 273 649 195 q 707 458 707 350 q 678 641 707 564 q 594 756 649 717 q 463 796 539 796 q 332 756 387 796 q 249 641 277 717 q 220 458 220 565 m 336 1145 q 394 1123 371 1145 q 417 1065 417 1100 q 394 1007 417 1030 q 336 984 371 984 q 277 1007 300 984 q 255 1065 255 1029 q 277 1123 255 1100 q 336 1145 300 1145 m 591 1145 q 649 1123 627 1145 q 671 1065 671 1100 q 649 1007 671 1029 q 591 984 627 984 q 532 1007 555 984 q 509 1065 509 1030 q 532 1123 509 1100 q 591 1145 555 1145 z "},"Ò":{"ha":928,"x_min":66,"x_max":861,"o":"m 861 458 q 812 201 861 309 q 674 39 764 94 q 463 -17 585 -17 q 252 39 342 -17 q 114 201 163 94 q 66 458 66 309 q 114 712 66 606 q 252 871 163 817 q 463 926 342 926 q 674 871 585 926 q 812 711 764 817 q 861 458 861 606 m 220 458 q 249 272 220 350 q 332 154 277 195 q 463 113 387 113 q 594 154 539 113 q 678 273 649 195 q 707 458 707 350 q 678 641 707 564 q 594 756 649 717 q 463 796 539 796 q 332 756 387 796 q 249 641 277 717 q 220 458 220 565 m 422 978 l 262 1139 l 430 1139 l 548 978 l 422 978 z "},"Ơ":{"ha":928,"x_min":66,"x_max":869,"o":"m 726 827 q 826 672 791 766 q 861 458 861 578 q 811 207 861 314 q 671 41 761 99 q 464 -17 581 -17 q 257 41 347 -17 q 116 207 167 99 q 66 458 66 314 q 116 708 66 603 q 256 870 166 814 q 464 926 347 926 q 650 882 568 926 q 726 913 702 892 q 751 972 751 934 q 730 1031 751 1000 l 835 1080 q 860 1034 850 1059 q 869 981 869 1008 q 832 883 869 921 q 726 827 794 845 m 220 458 q 250 276 220 355 q 335 156 280 198 q 464 113 391 113 q 592 156 537 113 q 677 276 648 198 q 707 458 707 354 q 677 638 707 562 q 592 755 648 715 q 464 796 537 796 q 335 755 391 796 q 250 638 280 715 q 220 458 220 562 z "},"Ő":{"ha":928,"x_min":66,"x_max":861,"o":"m 861 458 q 812 201 861 309 q 674 39 764 94 q 463 -17 585 -17 q 252 39 342 -17 q 114 201 163 94 q 66 458 66 309 q 114 712 66 606 q 252 871 163 817 q 463 926 342 926 q 674 871 585 926 q 812 711 764 817 q 861 458 861 606 m 220 458 q 249 272 220 350 q 332 154 277 195 q 463 113 387 113 q 594 154 539 113 q 678 273 649 195 q 707 458 707 350 q 678 641 707 564 q 594 756 649 717 q 463 796 539 796 q 332 756 387 796 q 249 641 277 717 q 220 458 220 565 m 342 978 l 234 978 l 324 1139 l 460 1139 l 342 978 m 467 978 l 557 1139 l 693 1139 l 573 978 l 467 978 z "},"Ō":{"ha":928,"x_min":66,"x_max":861,"o":"m 861 458 q 812 201 861 309 q 674 39 764 94 q 463 -17 585 -17 q 252 39 342 -17 q 114 201 163 94 q 66 458 66 309 q 114 712 66 606 q 252 871 163 817 q 463 926 342 926 q 674 871 585 926 q 812 711 764 817 q 861 458 861 606 m 220 458 q 249 272 220 350 q 332 154 277 195 q 463 113 387 113 q 594 154 539 113 q 678 273 649 195 q 707 458 707 350 q 678 641 707 564 q 594 756 649 717 q 463 796 539 796 q 332 756 387 796 q 249 641 277 717 q 220 458 220 565 m 281 1007 l 281 1108 l 646 1108 l 646 1007 l 281 1007 z "},"Ø":{"ha":928,"x_min":61,"x_max":880,"o":"m 464 -17 q 227 62 327 -17 l 142 -47 l 61 14 l 157 137 q 90 279 113 198 q 66 458 66 361 q 116 708 66 603 q 256 870 166 814 q 464 926 347 926 q 597 904 535 926 q 709 842 660 883 l 798 956 l 880 895 l 778 766 q 840 629 819 707 q 861 458 861 552 q 811 207 861 314 q 671 41 761 99 q 464 -17 581 -17 m 220 458 q 257 263 220 344 l 621 730 q 550 779 590 762 q 464 796 511 796 q 335 755 391 796 q 250 638 280 715 q 220 458 220 562 m 707 458 q 676 637 707 562 l 315 173 q 464 113 377 113 q 592 156 537 113 q 677 276 648 198 q 707 458 707 354 z "},"Õ":{"ha":928,"x_min":66,"x_max":861,"o":"m 861 458 q 812 201 861 309 q 674 39 764 94 q 463 -17 585 -17 q 252 39 342 -17 q 114 201 163 94 q 66 458 66 309 q 114 712 66 606 q 252 871 163 817 q 463 926 342 926 q 674 871 585 926 q 812 711 764 817 q 861 458 861 606 m 220 458 q 249 272 220 350 q 332 154 277 195 q 463 113 387 113 q 594 154 539 113 q 678 273 649 195 q 707 458 707 350 q 678 641 707 564 q 594 756 649 717 q 463 796 539 796 q 332 756 387 796 q 249 641 277 717 q 220 458 220 565 m 328 983 l 246 983 q 290 1105 254 1060 q 378 1149 326 1149 q 427 1139 405 1149 q 479 1110 450 1129 q 516 1088 503 1095 q 544 1082 530 1082 q 578 1099 564 1082 q 598 1149 592 1116 l 680 1149 q 636 1027 672 1072 q 549 983 601 983 q 499 993 522 983 q 447 1022 477 1003 q 410 1044 424 1037 q 382 1050 397 1050 q 349 1034 363 1050 q 328 983 334 1017 z "},"Œ":{"ha":1183,"x_min":66,"x_max":1117,"o":"m 733 783 l 733 536 l 1044 536 l 1044 411 l 733 411 l 733 127 l 1117 127 l 1117 0 l 512 0 q 276 53 376 0 q 121 209 176 106 q 66 458 66 312 q 121 706 66 605 q 278 858 176 807 q 519 909 380 909 l 1103 909 l 1103 783 l 733 783 m 529 787 q 299 706 379 787 q 220 458 220 625 q 300 206 220 290 q 529 121 380 121 l 583 121 l 583 787 l 529 787 z "},"P":{"ha":811,"x_min":115,"x_max":758,"o":"m 422 329 l 266 329 l 266 0 l 115 0 l 115 909 l 421 909 q 671 843 585 909 q 758 627 758 777 q 716 463 758 530 q 600 362 675 396 q 422 329 524 329 m 410 789 l 266 789 l 266 450 l 408 450 q 563 494 515 450 q 610 627 610 538 q 590 722 610 687 q 526 773 570 758 q 410 789 482 789 z "},"Þ":{"ha":829,"x_min":119,"x_max":761,"o":"m 417 762 q 761 486 761 762 q 717 322 761 388 q 596 225 673 257 q 417 194 519 194 l 268 194 l 268 0 l 119 0 l 119 909 l 268 909 l 268 762 l 417 762 m 404 642 l 268 642 l 268 315 l 404 315 q 562 356 511 315 q 613 486 613 398 q 562 606 613 570 q 404 642 511 642 z "},"Q":{"ha":928,"x_min":63,"x_max":889,"o":"m 390 -10 q 217 66 291 6 q 103 226 144 126 q 63 458 63 326 q 112 711 63 606 q 250 871 161 817 q 460 926 340 926 q 671 871 582 926 q 810 711 761 817 q 859 458 859 606 q 821 232 859 330 q 713 74 783 134 q 550 -7 644 14 q 627 -86 569 -59 q 758 -113 686 -113 q 861 -98 811 -113 l 889 -211 q 824 -228 865 -221 q 741 -235 784 -235 q 583 -208 654 -235 q 463 -129 512 -180 q 390 -10 414 -78 m 460 796 q 330 756 385 796 q 246 641 275 717 q 217 458 217 565 q 246 274 217 351 q 330 155 275 196 q 460 113 385 113 q 591 155 536 113 q 675 274 646 196 q 704 458 704 351 q 675 641 704 565 q 591 756 646 717 q 460 796 536 796 z "},"R":{"ha":821,"x_min":115,"x_max":781,"o":"m 266 0 l 115 0 l 115 909 l 427 909 q 663 849 580 909 q 747 646 747 789 q 700 476 747 539 q 566 385 654 412 l 781 0 l 611 0 l 416 362 l 266 362 l 266 0 m 410 789 l 266 789 l 266 483 l 408 483 q 552 522 505 483 q 599 646 599 560 q 579 732 599 701 q 518 777 559 764 q 410 789 477 789 z "},"Ŕ":{"ha":821,"x_min":115,"x_max":781,"o":"m 266 0 l 115 0 l 115 909 l 427 909 q 663 849 580 909 q 747 646 747 789 q 700 476 747 539 q 566 385 654 412 l 781 0 l 611 0 l 416 362 l 266 362 l 266 0 m 410 789 l 266 789 l 266 483 l 408 483 q 552 522 505 483 q 599 646 599 560 q 579 732 599 701 q 518 777 559 764 q 410 789 477 789 m 623 1139 l 462 978 l 336 978 l 454 1139 l 623 1139 z "},"Ř":{"ha":821,"x_min":115,"x_max":781,"o":"m 266 0 l 115 0 l 115 909 l 427 909 q 663 849 580 909 q 747 646 747 789 q 700 476 747 539 q 566 385 654 412 l 781 0 l 611 0 l 416 362 l 266 362 l 266 0 m 410 789 l 266 789 l 266 483 l 408 483 q 552 522 505 483 q 599 646 599 560 q 579 732 599 701 q 518 777 559 764 q 410 789 477 789 m 213 1139 l 334 1139 l 419 1048 l 425 1048 l 509 1139 l 631 1139 l 497 978 l 347 978 l 213 1139 z "},"S":{"ha":748,"x_min":54,"x_max":700,"o":"m 547 237 q 528 299 547 275 q 483 339 510 323 q 399 380 455 355 l 274 434 q 143 527 196 466 q 91 679 91 587 q 130 806 91 749 q 238 894 169 862 q 393 926 307 926 q 546 897 474 926 q 669 815 617 869 l 592 720 q 499 777 548 758 q 392 796 451 796 q 282 768 323 796 q 242 688 242 741 q 262 627 242 653 q 311 584 281 602 q 387 547 341 567 l 512 495 q 651 400 602 457 q 700 250 700 342 q 661 115 700 176 q 549 19 622 54 q 377 -17 475 -17 q 200 16 283 -17 q 54 111 118 48 l 142 214 q 253 140 191 166 q 380 113 314 113 q 504 146 460 113 q 547 237 547 180 z "},"Ś":{"ha":748,"x_min":54,"x_max":700,"o":"m 547 237 q 528 299 547 275 q 483 339 510 323 q 399 380 455 355 l 274 434 q 143 527 196 466 q 91 679 91 587 q 130 806 91 749 q 238 894 169 862 q 393 926 307 926 q 546 897 474 926 q 669 815 617 869 l 592 720 q 499 777 548 758 q 392 796 451 796 q 282 768 323 796 q 242 688 242 741 q 262 627 242 653 q 311 584 281 602 q 387 547 341 567 l 512 495 q 651 400 602 457 q 700 250 700 342 q 661 115 700 176 q 549 19 622 54 q 377 -17 475 -17 q 200 16 283 -17 q 54 111 118 48 l 142 214 q 253 140 191 166 q 380 113 314 113 q 504 146 460 113 q 547 237 547 180 m 583 1139 l 422 978 l 296 978 l 414 1139 l 583 1139 z "},"Š":{"ha":748,"x_min":54,"x_max":700,"o":"m 547 237 q 528 299 547 275 q 483 339 510 323 q 399 380 455 355 l 274 434 q 143 527 196 466 q 91 679 91 587 q 130 806 91 749 q 238 894 169 862 q 393 926 307 926 q 546 897 474 926 q 669 815 617 869 l 592 720 q 499 777 548 758 q 392 796 451 796 q 282 768 323 796 q 242 688 242 741 q 262 627 242 653 q 311 584 281 602 q 387 547 341 567 l 512 495 q 651 400 602 457 q 700 250 700 342 q 661 115 700 176 q 549 19 622 54 q 377 -17 475 -17 q 200 16 283 -17 q 54 111 118 48 l 142 214 q 253 140 191 166 q 380 113 314 113 q 504 146 460 113 q 547 237 547 180 m 173 1139 l 294 1139 l 379 1048 l 385 1048 l 469 1139 l 591 1139 l 457 978 l 307 978 l 173 1139 z "},"Ŝ":{"ha":748,"x_min":54,"x_max":700,"o":"m 547 237 q 528 299 547 275 q 483 339 510 323 q 399 380 455 355 l 274 434 q 143 527 196 466 q 91 679 91 587 q 130 806 91 749 q 238 894 169 862 q 393 926 307 926 q 546 897 474 926 q 669 815 617 869 l 592 720 q 499 777 548 758 q 392 796 451 796 q 282 768 323 796 q 242 688 242 741 q 262 627 242 653 q 311 584 281 602 q 387 547 341 567 l 512 495 q 651 400 602 457 q 700 250 700 342 q 661 115 700 176 q 549 19 622 54 q 377 -17 475 -17 q 200 16 283 -17 q 54 111 118 48 l 142 214 q 253 140 191 166 q 380 113 314 113 q 504 146 460 113 q 547 237 547 180 m 591 978 l 469 978 l 385 1068 l 379 1068 l 294 978 l 173 978 l 307 1139 l 457 1139 l 591 978 z "},"ẞ":{"ha":942,"x_min":119,"x_max":886,"o":"m 805 696 l 629 501 q 822 406 758 471 q 886 241 886 341 q 853 109 886 168 q 759 17 820 50 q 615 -17 698 -17 q 470 12 536 -17 q 361 87 405 40 l 443 181 q 518 124 479 142 q 600 106 556 106 q 696 144 661 106 q 732 241 732 181 q 677 346 732 302 q 487 412 621 389 l 477 504 l 652 702 q 586 775 629 747 q 482 804 543 804 q 323 741 378 804 q 268 551 268 678 l 268 0 l 119 0 l 119 575 q 159 756 119 677 q 281 880 199 835 q 487 926 364 926 q 688 865 607 926 q 805 696 768 804 z "},"Ə":{"ha":941,"x_min":92,"x_max":871,"o":"m 481 926 q 686 869 598 926 q 823 707 774 813 q 871 457 871 602 q 821 205 871 313 q 681 41 770 98 q 476 -17 591 -17 q 275 40 361 -17 q 140 203 188 98 q 92 450 92 309 q 96 498 92 469 l 722 498 q 648 720 714 642 q 467 799 582 799 q 350 776 404 799 q 254 714 296 753 l 186 817 q 314 897 240 867 q 481 926 389 926 m 476 111 q 592 143 541 111 q 676 238 643 176 q 719 386 709 300 l 245 386 q 282 238 251 300 q 363 143 313 176 q 476 111 413 111 z "},"T":{"ha":750,"x_min":34,"x_max":715,"o":"m 715 909 l 715 783 l 450 783 l 450 0 l 300 0 l 300 783 l 34 783 l 34 909 l 715 909 z "},"Ŧ":{"ha":750,"x_min":34,"x_max":715,"o":"m 450 783 l 450 448 l 583 448 l 583 330 l 450 330 l 450 0 l 300 0 l 300 330 l 160 330 l 160 448 l 300 448 l 300 783 l 34 783 l 34 909 l 715 909 l 715 783 l 450 783 z "},"Ť":{"ha":750,"x_min":34,"x_max":715,"o":"m 715 909 l 715 783 l 450 783 l 450 0 l 300 0 l 300 783 l 34 783 l 34 909 l 715 909 m 165 1139 l 287 1139 l 372 1048 l 377 1048 l 462 1139 l 583 1139 l 450 978 l 299 978 l 165 1139 z "},"U":{"ha":901,"x_min":111,"x_max":791,"o":"m 451 113 q 595 174 544 113 q 647 378 647 234 l 647 909 l 791 909 l 791 387 q 702 79 791 174 q 451 -17 613 -17 q 111 387 111 -17 l 111 909 l 261 909 l 261 378 q 311 174 261 235 q 451 113 360 113 z "},"Ú":{"ha":901,"x_min":111,"x_max":791,"o":"m 451 113 q 595 174 544 113 q 647 378 647 234 l 647 909 l 791 909 l 791 387 q 702 79 791 174 q 451 -17 613 -17 q 111 387 111 -17 l 111 909 l 261 909 l 261 378 q 311 174 261 235 q 451 113 360 113 m 652 1139 l 491 978 l 366 978 l 484 1139 l 652 1139 z "},"Ŭ":{"ha":901,"x_min":111,"x_max":791,"o":"m 451 113 q 595 174 544 113 q 647 378 647 234 l 647 909 l 791 909 l 791 387 q 702 79 791 174 q 451 -17 613 -17 q 111 387 111 -17 l 111 909 l 261 909 l 261 378 q 311 174 261 235 q 451 113 360 113 m 359 1139 q 390 1083 367 1105 q 451 1061 412 1061 q 512 1083 490 1061 q 543 1139 535 1105 l 631 1139 q 578 1024 623 1068 q 451 980 533 980 q 324 1024 369 980 q 271 1139 279 1068 l 359 1139 z "},"Û":{"ha":901,"x_min":111,"x_max":791,"o":"m 451 113 q 595 174 544 113 q 647 378 647 234 l 647 909 l 791 909 l 791 387 q 702 79 791 174 q 451 -17 613 -17 q 111 387 111 -17 l 111 909 l 261 909 l 261 378 q 311 174 261 235 q 451 113 360 113 m 660 978 l 538 978 l 454 1068 l 448 1068 l 363 978 l 242 978 l 376 1139 l 526 1139 l 660 978 z "},"Ü":{"ha":901,"x_min":111,"x_max":791,"o":"m 451 113 q 595 174 544 113 q 647 378 647 234 l 647 909 l 791 909 l 791 387 q 702 79 791 174 q 451 -17 613 -17 q 111 387 111 -17 l 111 909 l 261 909 l 261 378 q 311 174 261 235 q 451 113 360 113 m 323 1145 q 382 1123 359 1145 q 405 1065 405 1100 q 382 1007 405 1030 q 323 984 359 984 q 265 1007 288 984 q 243 1065 243 1029 q 265 1123 243 1100 q 323 1145 288 1145 m 578 1145 q 637 1123 614 1145 q 659 1065 659 1100 q 637 1007 659 1029 q 578 984 614 984 q 520 1007 543 984 q 497 1065 497 1030 q 520 1123 497 1100 q 578 1145 543 1145 z "},"Ù":{"ha":901,"x_min":111,"x_max":791,"o":"m 451 113 q 595 174 544 113 q 647 378 647 234 l 647 909 l 791 909 l 791 387 q 702 79 791 174 q 451 -17 613 -17 q 111 387 111 -17 l 111 909 l 261 909 l 261 378 q 311 174 261 235 q 451 113 360 113 m 410 978 l 250 1139 l 418 1139 l 536 978 l 410 978 z "},"Ư":{"ha":922,"x_min":111,"x_max":951,"o":"m 791 850 l 791 393 q 451 -17 791 -17 q 200 81 290 -17 q 111 393 111 179 l 111 909 l 261 909 l 261 383 q 311 176 261 239 q 451 113 361 113 q 595 176 543 113 q 647 383 647 239 l 647 909 l 714 909 q 802 935 772 916 q 832 1000 832 954 q 811 1059 832 1027 l 916 1107 q 941 1061 931 1086 q 951 1009 951 1036 q 907 903 951 941 q 791 850 863 865 z "},"Ű":{"ha":901,"x_min":111,"x_max":791,"o":"m 451 113 q 595 174 544 113 q 647 378 647 234 l 647 909 l 791 909 l 791 387 q 702 79 791 174 q 451 -17 613 -17 q 111 387 111 -17 l 111 909 l 261 909 l 261 378 q 311 174 261 235 q 451 113 360 113 m 330 978 l 222 978 l 312 1139 l 448 1139 l 330 978 m 454 978 l 545 1139 l 681 1139 l 561 978 l 454 978 z "},"Ū":{"ha":901,"x_min":111,"x_max":791,"o":"m 451 113 q 595 174 544 113 q 647 378 647 234 l 647 909 l 791 909 l 791 387 q 702 79 791 174 q 451 -17 613 -17 q 111 387 111 -17 l 111 909 l 261 909 l 261 378 q 311 174 261 235 q 451 113 360 113 m 269 1007 l 269 1108 l 633 1108 l 633 1007 l 269 1007 z "},"Ų":{"ha":901,"x_min":111,"x_max":791,"o":"m 451 113 q 595 176 543 113 q 647 383 647 239 l 647 909 l 791 909 l 791 393 q 765 196 791 272 q 690 74 739 119 q 563 -8 642 28 q 484 -70 512 -33 q 456 -140 456 -106 q 475 -184 456 -168 q 519 -199 494 -199 q 573 -180 547 -199 l 611 -258 q 553 -288 589 -276 q 487 -300 517 -300 q 415 -286 447 -300 q 363 -243 382 -271 q 345 -176 345 -215 q 359 -109 345 -139 q 390 -60 374 -79 q 433 -15 406 -42 q 111 393 111 -3 l 111 909 l 261 909 l 261 383 q 311 176 261 239 q 451 113 361 113 z "},"Ů":{"ha":901,"x_min":111,"x_max":791,"o":"m 451 113 q 595 174 544 113 q 647 378 647 234 l 647 909 l 791 909 l 791 387 q 702 79 791 174 q 451 -17 613 -17 q 111 387 111 -17 l 111 909 l 261 909 l 261 378 q 311 174 261 235 q 451 113 360 113 m 451 1226 q 524 1210 492 1226 q 574 1165 556 1194 q 592 1098 592 1136 q 574 1030 592 1059 q 524 985 556 1001 q 451 970 492 970 q 349 1005 388 970 q 310 1098 310 1040 q 328 1165 310 1136 q 378 1210 346 1194 q 451 1226 410 1226 m 451 1164 q 407 1145 425 1164 q 389 1098 389 1127 q 407 1049 389 1067 q 451 1031 425 1031 q 494 1049 477 1031 q 512 1098 512 1067 q 494 1145 512 1127 q 451 1164 476 1164 z "},"Ũ":{"ha":901,"x_min":111,"x_max":791,"o":"m 451 113 q 595 174 544 113 q 647 378 647 234 l 647 909 l 791 909 l 791 387 q 702 79 791 174 q 451 -17 613 -17 q 111 387 111 -17 l 111 909 l 261 909 l 261 378 q 311 174 261 235 q 451 113 360 113 m 316 983 l 234 983 q 278 1105 242 1060 q 366 1149 313 1149 q 415 1139 393 1149 q 467 1110 437 1129 q 504 1088 490 1095 q 532 1082 517 1082 q 566 1099 551 1082 q 586 1149 580 1116 l 668 1149 q 624 1027 660 1072 q 536 983 589 983 q 487 993 509 983 q 435 1022 465 1003 q 398 1044 412 1037 q 370 1050 385 1050 q 336 1034 351 1050 q 316 983 322 1017 z "},"V":{"ha":732,"x_min":-6,"x_max":739,"o":"m 320 314 q 339 243 326 294 q 367 146 353 191 l 372 146 q 427 345 393 214 q 440 392 433 368 q 454 444 446 416 l 585 909 l 739 909 l 455 0 l 278 0 l -6 909 l 152 909 l 285 444 q 320 314 305 372 z "},"W":{"ha":1101,"x_min":24,"x_max":1076,"o":"m 309 149 l 315 149 q 374 441 339 279 l 490 909 l 621 909 l 736 441 q 790 186 771 277 l 798 149 l 804 149 q 823 275 810 191 l 848 441 l 932 909 l 1076 909 l 898 0 l 713 0 l 594 496 q 554 704 566 628 l 548 704 q 506 496 522 574 l 389 0 l 208 0 l 24 909 l 178 909 l 261 441 l 309 149 z "},"Ẃ":{"ha":1101,"x_min":24,"x_max":1076,"o":"m 309 149 l 315 149 q 374 441 339 279 l 490 909 l 621 909 l 736 441 q 790 186 771 277 l 798 149 l 804 149 q 823 275 810 191 l 848 441 l 932 909 l 1076 909 l 898 0 l 713 0 l 594 496 q 554 704 566 628 l 548 704 q 506 496 522 574 l 389 0 l 208 0 l 24 909 l 178 909 l 261 441 l 309 149 m 751 1139 l 590 978 l 465 978 l 583 1139 l 751 1139 z "},"Ŵ":{"ha":1101,"x_min":24,"x_max":1076,"o":"m 309 149 l 315 149 q 374 441 339 279 l 490 909 l 621 909 l 736 441 q 790 186 771 277 l 798 149 l 804 149 q 823 275 810 191 l 848 441 l 932 909 l 1076 909 l 898 0 l 713 0 l 594 496 q 554 704 566 628 l 548 704 q 506 496 522 574 l 389 0 l 208 0 l 24 909 l 178 909 l 261 441 l 309 149 m 759 978 l 637 978 l 553 1068 l 547 1068 l 463 978 l 341 978 l 475 1139 l 625 1139 l 759 978 z "},"Ẅ":{"ha":1101,"x_min":24,"x_max":1076,"o":"m 309 149 l 315 149 q 374 441 339 279 l 490 909 l 621 909 l 736 441 q 790 186 771 277 l 798 149 l 804 149 q 823 275 810 191 l 848 441 l 932 909 l 1076 909 l 898 0 l 713 0 l 594 496 q 554 704 566 628 l 548 704 q 506 496 522 574 l 389 0 l 208 0 l 24 909 l 178 909 l 261 441 l 309 149 m 422 1145 q 481 1123 458 1145 q 504 1065 504 1100 q 481 1007 504 1030 q 422 984 458 984 q 364 1007 387 984 q 342 1065 342 1029 q 364 1123 342 1100 q 422 1145 387 1145 m 677 1145 q 736 1123 713 1145 q 758 1065 758 1100 q 736 1007 758 1029 q 677 984 713 984 q 619 1007 642 984 q 596 1065 596 1030 q 619 1123 596 1100 q 677 1145 642 1145 z "},"Ẁ":{"ha":1101,"x_min":24,"x_max":1076,"o":"m 309 149 l 315 149 q 374 441 339 279 l 490 909 l 621 909 l 736 441 q 790 186 771 277 l 798 149 l 804 149 q 823 275 810 191 l 848 441 l 932 909 l 1076 909 l 898 0 l 713 0 l 594 496 q 554 704 566 628 l 548 704 q 506 496 522 574 l 389 0 l 208 0 l 24 909 l 178 909 l 261 441 l 309 149 m 509 978 l 349 1139 l 517 1139 l 635 978 l 509 978 z "},"X":{"ha":736,"x_min":17,"x_max":720,"o":"m 306 699 l 341 630 l 375 562 l 381 562 q 386 572 383 567 q 391 584 388 578 q 442 699 422 661 l 545 909 l 703 909 l 461 462 l 720 0 l 554 0 l 437 222 q 363 370 395 304 l 357 370 q 289 222 314 273 l 175 0 l 17 0 l 277 469 l 33 909 l 199 909 l 306 699 z "},"Y":{"ha":682,"x_min":-7,"x_max":689,"o":"m 256 671 q 339 471 309 541 l 345 471 q 382 557 366 523 q 404 607 389 572 q 430 671 419 642 l 534 909 l 689 909 l 415 341 l 415 0 l 266 0 l 266 341 l -7 909 l 153 909 l 256 671 z "},"Ý":{"ha":682,"x_min":-7,"x_max":689,"o":"m 256 671 q 339 471 309 541 l 345 471 q 382 557 366 523 q 404 607 389 572 q 430 671 419 642 l 534 909 l 689 909 l 415 341 l 415 0 l 266 0 l 266 341 l -7 909 l 153 909 l 256 671 m 541 1139 l 380 978 l 255 978 l 373 1139 l 541 1139 z "},"Ŷ":{"ha":682,"x_min":-7,"x_max":689,"o":"m 256 671 q 339 471 309 541 l 345 471 q 382 557 366 523 q 404 607 389 572 q 430 671 419 642 l 534 909 l 689 909 l 415 341 l 415 0 l 266 0 l 266 341 l -7 909 l 153 909 l 256 671 m 549 978 l 428 978 l 343 1068 l 338 1068 l 253 978 l 132 978 l 265 1139 l 416 1139 l 549 978 z "},"Ÿ":{"ha":682,"x_min":-7,"x_max":689,"o":"m 256 671 q 339 471 309 541 l 345 471 q 382 557 366 523 q 404 607 389 572 q 430 671 419 642 l 534 909 l 689 909 l 415 341 l 415 0 l 266 0 l 266 341 l -7 909 l 153 909 l 256 671 m 213 1145 q 271 1123 248 1145 q 294 1065 294 1100 q 271 1007 294 1030 q 213 984 248 984 q 155 1007 177 984 q 132 1065 132 1029 q 155 1123 132 1100 q 213 1145 177 1145 m 468 1145 q 526 1123 504 1145 q 549 1065 549 1100 q 526 1007 549 1029 q 468 984 504 984 q 410 1007 433 984 q 387 1065 387 1030 q 410 1123 387 1100 q 468 1145 433 1145 z "},"Ỳ":{"ha":682,"x_min":-7,"x_max":689,"o":"m 256 671 q 339 471 309 541 l 345 471 q 382 557 366 523 q 404 607 389 572 q 430 671 419 642 l 534 909 l 689 909 l 415 341 l 415 0 l 266 0 l 266 341 l -7 909 l 153 909 l 256 671 m 300 978 l 139 1139 l 307 1139 l 425 978 l 300 978 z "},"Z":{"ha":745,"x_min":55,"x_max":693,"o":"m 96 909 l 690 909 l 690 820 l 239 127 l 693 127 l 693 0 l 55 0 l 55 90 l 505 783 l 96 783 l 96 909 z "},"Ź":{"ha":745,"x_min":55,"x_max":693,"o":"m 96 909 l 690 909 l 690 820 l 239 127 l 693 127 l 693 0 l 55 0 l 55 90 l 505 783 l 96 783 l 96 909 m 574 1139 l 414 978 l 288 978 l 406 1139 l 574 1139 z "},"Ž":{"ha":745,"x_min":55,"x_max":693,"o":"m 96 909 l 690 909 l 690 820 l 239 127 l 693 127 l 693 0 l 55 0 l 55 90 l 505 783 l 96 783 l 96 909 m 165 1139 l 286 1139 l 371 1048 l 376 1048 l 461 1139 l 583 1139 l 449 978 l 298 978 l 165 1139 z "},"Ż":{"ha":745,"x_min":55,"x_max":693,"o":"m 96 909 l 690 909 l 690 820 l 239 127 l 693 127 l 693 0 l 55 0 l 55 90 l 505 783 l 96 783 l 96 909 m 374 1161 q 443 1136 415 1161 q 470 1073 470 1112 q 443 1008 470 1034 q 374 983 415 983 q 305 1008 332 983 q 277 1073 277 1034 q 305 1136 277 1112 q 374 1161 332 1161 z "},"Ģ":{"ha":863,"x_min":66,"x_max":778,"o":"m 682 722 q 601 777 644 758 q 498 796 558 796 q 351 757 413 796 q 254 641 288 718 q 220 455 220 564 q 292 201 220 290 q 504 113 365 113 q 583 125 545 113 q 644 157 621 137 l 644 363 l 471 363 l 471 486 l 778 486 l 778 90 q 651 13 728 43 q 486 -17 574 -17 q 269 36 363 -17 q 120 195 174 90 q 66 451 66 300 q 121 711 66 604 q 274 872 176 818 q 496 926 371 926 q 650 895 583 926 q 766 815 718 864 l 682 722 m 329 -241 q 418 -220 387 -234 q 450 -182 450 -206 q 433 -146 450 -159 q 383 -125 416 -133 l 414 -63 q 526 -99 492 -73 q 561 -174 561 -125 q 499 -268 561 -235 q 342 -307 437 -300 l 329 -241 z "},"Ĭ":{"ha":380,"x_min":11,"x_max":370,"o":"m 115 0 l 115 909 l 266 909 l 266 0 l 115 0 m 99 1139 q 129 1083 106 1105 q 191 1061 152 1061 q 252 1083 229 1061 q 282 1139 275 1105 l 370 1139 q 317 1024 362 1068 q 191 980 273 980 q 64 1024 109 980 q 11 1139 19 1068 l 99 1139 z "},"Ķ":{"ha":818,"x_min":115,"x_max":820,"o":"m 269 482 l 606 909 l 774 909 l 492 556 l 820 0 l 654 0 l 402 438 l 266 271 l 266 0 l 115 0 l 115 909 l 266 909 l 266 482 l 269 482 m 322 -241 q 411 -220 380 -234 q 443 -182 443 -206 q 426 -146 443 -159 q 376 -125 409 -133 l 407 -63 q 519 -99 485 -73 q 554 -174 554 -125 q 492 -268 554 -235 q 336 -307 431 -300 l 322 -241 z "},"Ļ":{"ha":686,"x_min":115,"x_max":648,"o":"m 648 127 l 648 0 l 115 0 l 115 909 l 266 909 l 266 127 l 648 127 m 271 -241 q 360 -220 329 -234 q 392 -182 392 -206 q 375 -146 392 -159 q 326 -125 358 -133 l 356 -63 q 469 -99 434 -73 q 503 -174 503 -125 q 441 -268 503 -235 q 285 -307 380 -300 l 271 -241 z "},"Ņ":{"ha":903,"x_min":115,"x_max":787,"o":"m 659 191 l 664 191 l 658 264 q 648 395 652 344 q 645 496 645 446 l 645 909 l 787 909 l 787 0 l 633 0 l 339 527 l 245 718 l 239 718 q 244 654 240 697 q 254 524 251 579 q 258 417 258 469 l 258 0 l 115 0 l 115 909 l 269 909 l 564 384 l 659 191 m 331 -241 q 420 -220 389 -234 q 452 -182 452 -206 q 435 -146 452 -159 q 385 -125 418 -133 l 416 -63 q 528 -99 494 -73 q 563 -174 563 -125 q 501 -268 563 -235 q 345 -307 439 -300 l 331 -241 z "},"Ŏ":{"ha":928,"x_min":66,"x_max":861,"o":"m 861 458 q 812 201 861 309 q 674 39 764 94 q 463 -17 585 -17 q 252 39 342 -17 q 114 201 163 94 q 66 458 66 309 q 114 712 66 606 q 252 871 163 817 q 463 926 342 926 q 674 871 585 926 q 812 711 764 817 q 861 458 861 606 m 220 458 q 249 272 220 350 q 332 154 277 195 q 463 113 387 113 q 594 154 539 113 q 678 273 649 195 q 707 458 707 350 q 678 641 707 564 q 594 756 649 717 q 463 796 539 796 q 332 756 387 796 q 249 641 277 717 q 220 458 220 565 m 372 1139 q 402 1083 379 1105 q 463 1061 425 1061 q 525 1083 502 1061 q 555 1139 547 1105 l 643 1139 q 590 1024 635 1068 q 463 980 545 980 q 336 1024 381 980 q 283 1139 292 1068 l 372 1139 z "},"Ŗ":{"ha":821,"x_min":115,"x_max":781,"o":"m 266 0 l 115 0 l 115 909 l 427 909 q 663 849 580 909 q 747 646 747 789 q 700 476 747 539 q 566 385 654 412 l 781 0 l 611 0 l 416 362 l 266 362 l 266 0 m 410 789 l 266 789 l 266 483 l 408 483 q 552 522 505 483 q 599 646 599 560 q 579 732 599 701 q 518 777 559 764 q 410 789 477 789 m 315 -241 q 405 -220 373 -234 q 436 -182 436 -206 q 419 -146 436 -159 q 370 -125 402 -133 l 400 -63 q 513 -99 478 -73 q 547 -174 547 -125 q 486 -268 547 -235 q 329 -307 424 -300 l 315 -241 z "},"Ş":{"ha":748,"x_min":52,"x_max":700,"o":"m 425 -14 l 401 -66 q 461 -102 439 -79 q 483 -166 483 -126 q 421 -260 483 -227 q 264 -300 359 -293 l 252 -233 q 372 -169 372 -220 q 352 -131 372 -146 q 288 -105 332 -116 l 333 -14 q 180 26 252 -7 q 52 117 108 60 l 140 220 q 254 142 191 171 q 380 113 317 113 q 503 147 459 113 q 547 239 547 181 q 529 300 547 276 q 485 340 511 325 q 402 380 458 355 l 277 434 q 145 525 197 467 q 93 673 93 583 q 132 802 93 744 q 239 892 171 859 q 393 926 308 926 q 545 895 473 926 q 671 810 617 864 l 593 715 q 499 775 549 754 q 393 796 450 796 q 284 765 326 796 q 243 682 243 734 q 263 623 243 647 q 311 584 283 599 q 391 547 339 569 l 515 495 q 652 401 604 458 q 700 251 700 344 q 667 126 700 183 q 571 32 633 68 q 425 -14 509 -5 z "},"Ţ":{"ha":750,"x_min":34,"x_max":715,"o":"m 258 -300 l 245 -233 q 366 -169 366 -220 q 345 -131 366 -146 q 281 -105 325 -116 l 334 0 l 300 0 l 300 783 l 34 783 l 34 909 l 715 909 l 715 783 l 450 783 l 450 0 l 425 0 l 395 -66 q 455 -102 433 -79 q 477 -166 477 -126 q 415 -260 477 -227 q 258 -300 353 -293 z "},"Ǆ":{"ha":1607,"x_min":115,"x_max":1554,"o":"m 366 0 l 115 0 l 115 909 l 362 909 q 793 460 793 909 q 743 208 793 311 q 597 53 693 105 q 366 0 502 0 m 353 787 l 266 787 l 266 121 l 349 121 q 640 460 640 121 q 569 709 640 631 q 353 787 499 787 m 957 909 l 1551 909 l 1551 820 l 1101 127 l 1554 127 l 1554 0 l 916 0 l 916 90 l 1366 783 l 957 783 l 957 909 m 1026 1139 l 1147 1139 l 1232 1048 l 1238 1048 l 1322 1139 l 1444 1139 l 1310 978 l 1160 978 l 1026 1139 z "},"ǅ":{"ha":1470,"x_min":115,"x_max":1435,"o":"m 366 0 l 115 0 l 115 909 l 362 909 q 793 460 793 909 q 743 208 793 311 q 597 53 693 105 q 366 0 502 0 m 353 787 l 266 787 l 266 121 l 349 121 q 640 460 640 121 q 569 709 640 631 q 353 787 499 787 m 945 680 l 1425 680 l 1425 601 l 1095 119 l 1435 119 l 1435 0 l 908 0 l 908 79 l 1238 562 l 945 562 l 945 680 m 1174 876 l 1260 997 l 1364 997 l 1232 797 l 1111 797 l 979 997 l 1083 997 l 1168 876 l 1174 876 z "},"Ǉ":{"ha":1362,"x_min":115,"x_max":1252,"o":"m 648 127 l 648 0 l 115 0 l 115 909 l 266 909 l 266 127 l 648 127 m 1102 289 l 1102 909 l 1252 909 l 1252 275 q 1224 125 1252 191 q 1136 21 1196 59 q 987 -17 1077 -17 q 828 21 895 -17 q 719 136 762 59 l 823 211 q 970 113 880 113 q 1045 130 1016 113 q 1088 185 1074 146 q 1102 289 1102 224 z "},"ǈ":{"ha":1046,"x_min":115,"x_max":961,"o":"m 648 127 l 648 0 l 115 0 l 115 909 l 266 909 l 266 127 l 648 127 m 961 891 q 934 829 961 854 q 868 805 907 805 q 801 829 827 805 q 774 891 774 854 q 800 953 774 929 q 868 977 827 977 q 935 953 908 977 q 961 891 961 929 m 733 -290 q 625 -272 671 -290 l 653 -161 q 713 -172 685 -172 q 775 -142 758 -172 q 793 -50 793 -113 l 793 680 l 941 680 l 941 -48 q 892 -227 941 -163 q 733 -290 844 -290 z "},"Ǌ":{"ha":1579,"x_min":115,"x_max":1469,"o":"m 659 191 l 664 191 l 658 264 q 648 395 652 344 q 645 496 645 446 l 645 909 l 787 909 l 787 0 l 633 0 l 339 527 l 245 718 l 239 718 q 244 654 240 697 q 254 524 251 579 q 258 417 258 469 l 258 0 l 115 0 l 115 909 l 269 909 l 564 384 l 659 191 m 1319 289 l 1319 909 l 1469 909 l 1469 275 q 1441 125 1469 191 q 1353 21 1413 59 q 1204 -17 1294 -17 q 1045 21 1112 -17 q 936 136 979 59 l 1040 211 q 1187 113 1097 113 q 1262 130 1233 113 q 1305 185 1291 146 q 1319 289 1319 224 z "},"ǋ":{"ha":1263,"x_min":115,"x_max":1178,"o":"m 659 191 l 664 191 l 658 264 q 648 395 652 344 q 645 496 645 446 l 645 909 l 787 909 l 787 0 l 633 0 l 339 527 l 245 718 l 239 718 q 244 654 240 697 q 254 524 251 579 q 258 417 258 469 l 258 0 l 115 0 l 115 909 l 269 909 l 564 384 l 659 191 m 1178 891 q 1151 829 1178 854 q 1085 805 1124 805 q 1018 829 1044 805 q 991 891 991 854 q 1017 953 991 929 q 1085 977 1044 977 q 1152 953 1125 977 q 1178 891 1178 929 m 950 -290 q 842 -272 888 -290 l 870 -161 q 930 -172 902 -172 q 992 -142 975 -172 q 1010 -50 1010 -113 l 1010 680 l 1158 680 l 1158 -48 q 1109 -227 1158 -163 q 950 -290 1061 -290 z "},"Ǎ":{"ha":765,"x_min":-3,"x_max":769,"o":"m -3 0 l 296 909 l 469 909 l 769 0 l 611 0 l 536 254 l 224 254 l 149 0 l -3 0 m 377 791 q 294 490 335 627 l 258 372 l 502 372 l 467 490 q 391 758 441 572 l 382 791 l 377 791 m 174 1139 l 295 1139 l 380 1048 l 385 1048 l 470 1139 l 591 1139 l 458 978 l 307 978 l 174 1139 z "},"Ǐ":{"ha":380,"x_min":-18,"x_max":399,"o":"m 115 0 l 115 909 l 266 909 l 266 0 l 115 0 m -18 1139 l 103 1139 l 188 1048 l 193 1048 l 278 1139 l 399 1139 l 266 978 l 115 978 l -18 1139 z "},"Ǒ":{"ha":928,"x_min":66,"x_max":861,"o":"m 861 458 q 812 201 861 309 q 674 39 764 94 q 463 -17 585 -17 q 252 39 342 -17 q 114 201 163 94 q 66 458 66 309 q 114 712 66 606 q 252 871 163 817 q 463 926 342 926 q 674 871 585 926 q 812 711 764 817 q 861 458 861 606 m 220 458 q 249 272 220 350 q 332 154 277 195 q 463 113 387 113 q 594 154 539 113 q 678 273 649 195 q 707 458 707 350 q 678 641 707 564 q 594 756 649 717 q 463 796 539 796 q 332 756 387 796 q 249 641 277 717 q 220 458 220 565 m 254 1139 l 376 1139 l 460 1048 l 466 1048 l 551 1139 l 672 1139 l 538 978 l 388 978 l 254 1139 z "},"Ǔ":{"ha":901,"x_min":111,"x_max":791,"o":"m 451 113 q 595 174 544 113 q 647 378 647 234 l 647 909 l 791 909 l 791 387 q 702 79 791 174 q 451 -17 613 -17 q 111 387 111 -17 l 111 909 l 261 909 l 261 378 q 311 174 261 235 q 451 113 360 113 m 242 1139 l 363 1139 l 448 1048 l 454 1048 l 538 1139 l 660 1139 l 526 978 l 376 978 l 242 1139 z "},"Ǖ":{"ha":901,"x_min":111,"x_max":791,"o":"m 451 113 q 595 174 544 113 q 647 378 647 234 l 647 909 l 791 909 l 791 387 q 702 79 791 174 q 451 -17 613 -17 q 111 387 111 -17 l 111 909 l 261 909 l 261 378 q 311 174 261 235 q 451 113 360 113 m 270 1202 l 270 1278 l 632 1278 l 632 1202 l 270 1202 m 396 1058 q 376 1006 396 1026 q 325 985 356 985 q 273 1006 294 985 q 252 1058 252 1027 q 273 1108 252 1088 q 325 1128 294 1128 q 376 1108 355 1128 q 396 1058 396 1088 m 650 1058 q 629 1006 650 1027 q 577 985 608 985 q 526 1006 546 985 q 506 1058 506 1026 q 526 1108 506 1088 q 577 1128 546 1128 q 629 1108 608 1128 q 650 1058 650 1088 z "},"Ǘ":{"ha":901,"x_min":111,"x_max":791,"o":"m 451 113 q 595 174 544 113 q 647 378 647 234 l 647 909 l 791 909 l 791 387 q 702 79 791 174 q 451 -17 613 -17 q 111 387 111 -17 l 111 909 l 261 909 l 261 378 q 311 174 261 235 q 451 113 360 113 m 365 1173 l 484 1333 l 644 1333 l 485 1173 l 365 1173 m 393 1058 q 373 1006 393 1026 q 322 985 353 985 q 270 1006 291 985 q 250 1058 250 1027 q 270 1108 250 1088 q 322 1128 291 1128 q 373 1108 353 1128 q 393 1058 393 1088 m 647 1058 q 626 1006 647 1027 q 574 985 606 985 q 523 1006 543 985 q 503 1058 503 1026 q 523 1108 503 1088 q 574 1128 543 1128 q 626 1108 606 1128 q 647 1058 647 1088 z "},"Ǚ":{"ha":901,"x_min":111,"x_max":791,"o":"m 451 113 q 595 174 544 113 q 647 378 647 234 l 647 909 l 791 909 l 791 387 q 702 79 791 174 q 451 -17 613 -17 q 111 387 111 -17 l 111 909 l 261 909 l 261 378 q 311 174 261 235 q 451 113 360 113 m 245 1333 l 363 1333 l 449 1242 l 454 1242 l 540 1333 l 658 1333 l 524 1173 l 379 1173 l 245 1333 m 397 1058 q 377 1006 397 1026 q 326 985 357 985 q 274 1006 294 985 q 253 1058 253 1027 q 274 1108 253 1088 q 326 1128 294 1128 q 376 1108 356 1128 q 397 1058 397 1088 m 650 1058 q 630 1006 650 1027 q 578 985 609 985 q 527 1006 547 985 q 507 1058 507 1026 q 527 1108 507 1088 q 578 1128 547 1128 q 630 1108 609 1128 q 650 1058 650 1088 z "},"Ǜ":{"ha":901,"x_min":111,"x_max":791,"o":"m 451 113 q 595 174 544 113 q 647 378 647 234 l 647 909 l 791 909 l 791 387 q 702 79 791 174 q 451 -17 613 -17 q 111 387 111 -17 l 111 909 l 261 909 l 261 378 q 311 174 261 235 q 451 113 360 113 m 413 1333 l 532 1173 l 412 1173 l 254 1333 l 413 1333 m 394 1058 q 374 1006 394 1026 q 323 985 354 985 q 271 1006 292 985 q 250 1058 250 1027 q 271 1108 250 1088 q 323 1128 292 1128 q 374 1108 353 1128 q 394 1058 394 1088 m 648 1058 q 627 1006 648 1027 q 575 985 606 985 q 524 1006 544 985 q 504 1058 504 1026 q 524 1108 504 1088 q 575 1128 544 1128 q 627 1108 606 1128 q 648 1058 648 1088 z "},"Ǫ":{"ha":928,"x_min":66,"x_max":861,"o":"m 464 926 q 671 869 581 926 q 811 708 761 813 q 861 458 861 602 q 790 167 861 277 q 576 -8 718 57 q 499 -67 526 -31 q 473 -140 473 -104 q 491 -184 473 -168 q 535 -199 510 -199 q 589 -180 563 -199 l 626 -258 q 568 -288 604 -276 q 503 -300 532 -300 q 430 -286 463 -300 q 378 -243 397 -271 q 359 -176 359 -215 q 384 -88 359 -130 q 447 -15 408 -47 q 245 49 331 -10 q 112 214 159 109 q 66 458 66 319 q 116 708 66 603 q 256 870 166 814 q 464 926 347 926 m 220 458 q 250 276 220 355 q 335 156 280 198 q 464 113 391 113 q 592 156 537 113 q 677 276 648 198 q 707 458 707 354 q 677 638 707 562 q 592 755 648 715 q 464 796 537 796 q 335 755 391 796 q 250 638 280 715 q 220 458 220 562 z "},"Ǳ":{"ha":1607,"x_min":115,"x_max":1554,"o":"m 366 0 l 115 0 l 115 909 l 362 909 q 793 460 793 909 q 743 208 793 311 q 597 53 693 105 q 366 0 502 0 m 353 787 l 266 787 l 266 121 l 349 121 q 640 460 640 121 q 569 709 640 631 q 353 787 499 787 m 957 909 l 1551 909 l 1551 820 l 1101 127 l 1554 127 l 1554 0 l 916 0 l 916 90 l 1366 783 l 957 783 l 957 909 z "},"ǲ":{"ha":1470,"x_min":115,"x_max":1435,"o":"m 366 0 l 115 0 l 115 909 l 362 909 q 793 460 793 909 q 743 208 793 311 q 597 53 693 105 q 366 0 502 0 m 353 787 l 266 787 l 266 121 l 349 121 q 640 460 640 121 q 569 709 640 631 q 353 787 499 787 m 945 680 l 1425 680 l 1425 601 l 1095 119 l 1435 119 l 1435 0 l 908 0 l 908 79 l 1238 562 l 945 562 l 945 680 z "},"Ș":{"ha":748,"x_min":54,"x_max":700,"o":"m 547 237 q 528 299 547 275 q 483 339 510 323 q 399 380 455 355 l 274 434 q 143 527 196 466 q 91 679 91 587 q 130 806 91 749 q 238 894 169 862 q 393 926 307 926 q 546 897 474 926 q 669 815 617 869 l 592 720 q 499 777 548 758 q 392 796 451 796 q 282 768 323 796 q 242 688 242 741 q 262 627 242 653 q 311 584 281 602 q 387 547 341 567 l 512 495 q 651 400 602 457 q 700 250 700 342 q 661 115 700 176 q 549 19 622 54 q 377 -17 475 -17 q 200 16 283 -17 q 54 111 118 48 l 142 214 q 253 140 191 166 q 380 113 314 113 q 504 146 460 113 q 547 237 547 180 z "},"Ț":{"ha":750,"x_min":34,"x_max":715,"o":"m 715 909 l 715 783 l 450 783 l 450 0 l 300 0 l 300 783 l 34 783 l 34 909 l 715 909 m 235 -241 q 325 -220 293 -234 q 356 -182 356 -206 q 339 -146 356 -159 q 290 -125 322 -133 l 320 -63 q 433 -99 398 -73 q 467 -174 467 -125 q 406 -268 467 -235 q 249 -307 344 -300 l 235 -241 z "},"Ƀ":{"ha":850,"x_min":39,"x_max":801,"o":"m 453 0 l 145 0 l 145 244 l 39 244 l 39 317 l 145 323 l 145 909 l 431 909 q 666 856 580 909 q 751 690 751 804 q 712 573 751 624 q 595 503 673 523 l 595 498 q 748 425 696 481 q 801 274 801 369 q 756 122 801 183 q 634 30 712 60 q 453 0 555 0 m 418 800 l 294 800 l 294 536 l 416 536 q 608 676 608 536 q 561 770 608 740 q 418 800 513 800 m 437 444 l 294 444 l 294 323 l 492 323 l 492 244 l 294 244 l 294 110 l 437 110 q 600 154 543 110 q 656 283 656 197 q 437 444 656 444 z "},"Ḃ":{"ha":821,"x_min":115,"x_max":771,"o":"m 566 488 l 566 483 q 718 418 665 473 q 771 269 771 363 q 728 119 771 179 q 608 29 685 58 q 429 0 531 0 l 115 0 l 115 909 l 407 909 q 641 859 559 909 q 722 689 722 808 q 684 561 722 616 q 566 488 646 506 m 398 792 l 266 792 l 266 529 l 390 529 q 532 565 488 529 q 576 671 576 601 q 534 764 576 736 q 398 792 492 792 m 415 420 l 266 420 l 266 117 l 412 117 q 571 156 517 117 q 625 279 625 196 q 574 387 625 353 q 415 420 523 420 m 389 1161 q 457 1136 430 1161 q 485 1073 485 1112 q 457 1008 485 1034 q 389 983 430 983 q 320 1008 347 983 q 292 1073 292 1034 q 320 1136 292 1112 q 389 1161 347 1161 z "},"Ḋ":{"ha":861,"x_min":115,"x_max":793,"o":"m 366 0 l 115 0 l 115 909 l 362 909 q 793 460 793 909 q 743 208 793 311 q 597 53 693 105 q 366 0 502 0 m 353 787 l 266 787 l 266 121 l 349 121 q 640 460 640 121 q 569 709 640 631 q 353 787 499 787 m 398 1161 q 467 1136 439 1161 q 494 1073 494 1112 q 467 1008 494 1034 q 398 983 439 983 q 329 1008 357 983 q 302 1073 302 1034 q 329 1136 302 1112 q 398 1161 357 1161 z "},"Ḍ":{"ha":861,"x_min":115,"x_max":793,"o":"m 366 0 l 115 0 l 115 909 l 362 909 q 793 460 793 909 q 743 208 793 311 q 597 53 693 105 q 366 0 502 0 m 353 787 l 266 787 l 266 121 l 349 121 q 640 460 640 121 q 569 709 640 631 q 353 787 499 787 m 513 -211 q 488 -274 513 -250 q 424 -298 463 -298 q 360 -274 385 -298 q 334 -211 334 -250 q 360 -149 334 -174 q 424 -124 385 -124 q 488 -149 463 -124 q 513 -211 513 -174 z "},"Ḏ":{"ha":861,"x_min":115,"x_max":793,"o":"m 366 0 l 115 0 l 115 909 l 362 909 q 793 460 793 909 q 743 208 793 311 q 597 53 693 105 q 366 0 502 0 m 353 787 l 266 787 l 266 121 l 349 121 q 640 460 640 121 q 569 709 640 631 q 353 787 499 787 m 216 1007 l 216 1108 l 581 1108 l 581 1007 l 216 1007 z "},"Ḟ":{"ha":697,"x_min":115,"x_max":659,"o":"m 266 783 l 266 512 l 600 512 l 600 387 l 266 387 l 266 0 l 115 0 l 115 909 l 659 909 l 659 783 l 266 783 m 387 1161 q 455 1136 428 1161 q 483 1073 483 1112 q 455 1008 483 1034 q 387 983 428 983 q 318 1008 345 983 q 290 1073 290 1034 q 318 1136 290 1112 q 387 1161 345 1161 z "},"Ḡ":{"ha":863,"x_min":66,"x_max":778,"o":"m 682 722 q 601 777 644 758 q 498 796 558 796 q 351 757 413 796 q 254 641 288 718 q 220 455 220 564 q 292 201 220 290 q 504 113 365 113 q 583 125 545 113 q 644 157 621 137 l 644 363 l 471 363 l 471 486 l 778 486 l 778 90 q 651 13 728 43 q 486 -17 574 -17 q 269 36 363 -17 q 120 195 174 90 q 66 451 66 300 q 121 711 66 604 q 274 872 176 818 q 496 926 371 926 q 650 895 583 926 q 766 815 718 864 l 682 722 m 304 1007 l 304 1108 l 669 1108 l 669 1007 l 304 1007 z "},"Ḥ":{"ha":911,"x_min":115,"x_max":796,"o":"m 453 -123 q 522 -148 494 -123 q 549 -211 549 -172 q 522 -275 549 -250 q 453 -300 494 -300 q 384 -275 412 -300 q 357 -211 357 -250 q 384 -148 357 -172 q 453 -123 412 -123 m 647 540 l 647 909 l 796 909 l 796 0 l 647 0 l 647 410 l 266 410 l 266 0 l 115 0 l 115 909 l 266 909 l 266 540 l 647 540 z "},"Ḫ":{"ha":911,"x_min":115,"x_max":796,"o":"m 647 540 l 647 909 l 796 909 l 796 0 l 647 0 l 647 410 l 266 410 l 266 0 l 115 0 l 115 909 l 266 909 l 266 540 l 647 540 m 551 -101 l 638 -101 q 615 -190 635 -149 q 554 -257 594 -231 q 456 -283 514 -283 q 357 -257 397 -283 q 297 -190 317 -231 q 274 -101 277 -149 l 361 -101 q 391 -170 367 -142 q 456 -197 414 -197 q 521 -170 497 -197 q 551 -101 545 -142 z "},"Ḷ":{"ha":686,"x_min":115,"x_max":648,"o":"m 648 127 l 648 0 l 115 0 l 115 909 l 266 909 l 266 127 l 648 127 m 398 -123 q 467 -148 439 -123 q 494 -211 494 -172 q 467 -275 494 -250 q 398 -300 439 -300 q 329 -275 357 -300 q 302 -211 302 -250 q 329 -148 302 -172 q 398 -123 357 -123 z "},"Ḹ":{"ha":686,"x_min":5,"x_max":648,"o":"m 648 127 l 648 0 l 115 0 l 115 909 l 266 909 l 266 127 l 648 127 m 399 -120 q 468 -145 440 -120 q 495 -208 495 -170 q 468 -273 495 -248 q 399 -298 440 -298 q 330 -273 357 -298 q 302 -208 302 -248 q 330 -145 302 -170 q 399 -120 357 -120 m 5 1007 l 5 1108 l 370 1108 l 370 1007 l 5 1007 z "},"Ḻ":{"ha":686,"x_min":115,"x_max":648,"o":"m 648 127 l 648 0 l 115 0 l 115 909 l 266 909 l 266 127 l 648 127 m 199 -250 l 199 -149 l 564 -149 l 564 -250 l 199 -250 z "},"Ṁ":{"ha":1024,"x_min":109,"x_max":915,"o":"m 511 276 l 516 276 l 576 452 l 740 909 l 900 909 l 915 0 l 774 0 l 772 437 q 776 579 772 499 q 785 721 780 659 l 780 721 l 707 516 l 546 87 l 473 87 l 313 516 l 240 721 l 235 721 q 243 582 240 661 q 246 437 246 503 l 246 0 l 109 0 l 122 909 l 283 909 l 450 452 l 511 276 m 511 1161 q 580 1136 553 1161 q 608 1073 608 1112 q 580 1008 608 1034 q 511 983 553 983 q 443 1008 470 983 q 415 1073 415 1034 q 443 1136 415 1112 q 511 1161 470 1161 z "},"Ṃ":{"ha":1024,"x_min":109,"x_max":915,"o":"m 511 -123 q 580 -148 553 -123 q 608 -211 608 -172 q 580 -275 608 -250 q 511 -300 553 -300 q 443 -275 470 -300 q 415 -211 415 -250 q 443 -148 415 -172 q 511 -123 470 -123 m 511 276 l 516 276 l 576 452 l 740 909 l 900 909 l 915 0 l 774 0 l 772 437 q 776 579 772 499 q 785 721 780 659 l 780 721 l 707 516 l 546 87 l 473 87 l 313 516 l 240 721 l 235 721 q 243 582 240 661 q 246 437 246 503 l 246 0 l 109 0 l 122 909 l 283 909 l 450 452 l 511 276 z "},"Ṅ":{"ha":903,"x_min":115,"x_max":787,"o":"m 659 191 l 664 191 l 658 264 q 648 395 652 344 q 645 496 645 446 l 645 909 l 787 909 l 787 0 l 633 0 l 339 527 l 245 718 l 239 718 q 244 654 240 697 q 254 524 251 579 q 258 417 258 469 l 258 0 l 115 0 l 115 909 l 269 909 l 564 384 l 659 191 m 451 1161 q 520 1136 492 1161 q 547 1073 547 1112 q 520 1008 547 1034 q 451 983 492 983 q 382 1008 410 983 q 355 1073 355 1034 q 382 1136 355 1112 q 451 1161 410 1161 z "},"Ṇ":{"ha":903,"x_min":115,"x_max":787,"o":"m 659 191 l 664 191 l 658 264 q 648 395 652 344 q 645 496 645 446 l 645 909 l 787 909 l 787 0 l 633 0 l 339 527 l 245 718 l 239 718 q 244 654 240 697 q 254 524 251 579 q 258 417 258 469 l 258 0 l 115 0 l 115 909 l 269 909 l 564 384 l 659 191 m 460 -123 q 529 -148 501 -123 q 556 -211 556 -172 q 529 -275 556 -250 q 460 -300 501 -300 q 391 -275 418 -300 q 363 -211 363 -250 q 391 -148 363 -172 q 460 -123 418 -123 z "},"Ṉ":{"ha":903,"x_min":115,"x_max":787,"o":"m 659 191 l 664 191 l 658 264 q 648 395 652 344 q 645 496 645 446 l 645 909 l 787 909 l 787 0 l 633 0 l 339 527 l 245 718 l 239 718 q 244 654 240 697 q 254 524 251 579 q 258 417 258 469 l 258 0 l 115 0 l 115 909 l 269 909 l 564 384 l 659 191 m 283 -248 l 283 -147 l 648 -147 l 648 -248 l 283 -248 z "},"Ṗ":{"ha":811,"x_min":115,"x_max":758,"o":"m 422 329 l 266 329 l 266 0 l 115 0 l 115 909 l 421 909 q 671 843 585 909 q 758 627 758 777 q 716 463 758 530 q 600 362 675 396 q 422 329 524 329 m 410 789 l 266 789 l 266 450 l 408 450 q 563 494 515 450 q 610 627 610 538 q 590 722 610 687 q 526 773 570 758 q 410 789 482 789 m 406 1161 q 475 1136 448 1161 q 503 1073 503 1112 q 475 1008 503 1034 q 406 983 448 983 q 337 1008 365 983 q 310 1073 310 1034 q 337 1136 310 1112 q 406 1161 365 1161 z "},"Ṛ":{"ha":821,"x_min":115,"x_max":781,"o":"m 266 0 l 115 0 l 115 909 l 427 909 q 663 849 580 909 q 747 646 747 789 q 700 476 747 539 q 566 385 654 412 l 781 0 l 611 0 l 416 362 l 266 362 l 266 0 m 410 789 l 266 789 l 266 483 l 408 483 q 552 522 505 483 q 599 646 599 560 q 579 732 599 701 q 518 777 559 764 q 410 789 477 789 m 527 -209 q 502 -272 527 -248 q 437 -296 476 -296 q 373 -272 399 -296 q 348 -209 348 -248 q 373 -147 348 -172 q 437 -122 399 -122 q 502 -147 476 -122 q 527 -209 527 -172 z "},"Ṝ":{"ha":821,"x_min":115,"x_max":781,"o":"m 266 0 l 115 0 l 115 909 l 427 909 q 663 849 580 909 q 747 646 747 789 q 700 476 747 539 q 566 385 654 412 l 781 0 l 611 0 l 416 362 l 266 362 l 266 0 m 410 789 l 266 789 l 266 483 l 408 483 q 552 522 505 483 q 599 646 599 560 q 579 732 599 701 q 518 777 559 764 q 410 789 477 789 m 239 1007 l 239 1108 l 604 1108 l 604 1007 l 239 1007 m 527 -209 q 502 -272 527 -248 q 437 -296 476 -296 q 373 -272 399 -296 q 348 -209 348 -248 q 373 -147 348 -172 q 437 -122 399 -122 q 502 -147 476 -122 q 527 -209 527 -172 z "},"Ṟ":{"ha":821,"x_min":115,"x_max":781,"o":"m 266 0 l 115 0 l 115 909 l 427 909 q 663 849 580 909 q 747 646 747 789 q 700 476 747 539 q 566 385 654 412 l 781 0 l 611 0 l 416 362 l 266 362 l 266 0 m 410 789 l 266 789 l 266 483 l 408 483 q 552 522 505 483 q 599 646 599 560 q 579 732 599 701 q 518 777 559 764 q 410 789 477 789 m 197 -250 l 197 -149 l 562 -149 l 562 -250 l 197 -250 z "},"Ṡ":{"ha":748,"x_min":54,"x_max":700,"o":"m 547 237 q 528 299 547 275 q 483 339 510 323 q 399 380 455 355 l 274 434 q 143 527 196 466 q 91 679 91 587 q 130 806 91 749 q 238 894 169 862 q 393 926 307 926 q 546 897 474 926 q 669 815 617 869 l 592 720 q 499 777 548 758 q 392 796 451 796 q 282 768 323 796 q 242 688 242 741 q 262 627 242 653 q 311 584 281 602 q 387 547 341 567 l 512 495 q 651 400 602 457 q 700 250 700 342 q 661 115 700 176 q 549 19 622 54 q 377 -17 475 -17 q 200 16 283 -17 q 54 111 118 48 l 142 214 q 253 140 191 166 q 380 113 314 113 q 504 146 460 113 q 547 237 547 180 m 382 1161 q 451 1136 423 1161 q 478 1073 478 1112 q 451 1008 478 1034 q 382 983 423 983 q 313 1008 340 983 q 286 1073 286 1034 q 313 1136 286 1112 q 382 1161 340 1161 z "},"Ṣ":{"ha":748,"x_min":54,"x_max":700,"o":"m 547 237 q 528 299 547 275 q 483 339 510 323 q 399 380 455 355 l 274 434 q 143 527 196 466 q 91 679 91 587 q 130 806 91 749 q 238 894 169 862 q 393 926 307 926 q 546 897 474 926 q 669 815 617 869 l 592 720 q 499 777 548 758 q 392 796 451 796 q 282 768 323 796 q 242 688 242 741 q 262 627 242 653 q 311 584 281 602 q 387 547 341 567 l 512 495 q 651 400 602 457 q 700 250 700 342 q 661 115 700 176 q 549 19 622 54 q 377 -17 475 -17 q 200 16 283 -17 q 54 111 118 48 l 142 214 q 253 140 191 166 q 380 113 314 113 q 504 146 460 113 q 547 237 547 180 m 376 -121 q 445 -145 417 -121 q 472 -209 472 -170 q 445 -273 472 -248 q 376 -298 417 -298 q 307 -273 334 -298 q 279 -209 279 -248 q 307 -145 279 -170 q 376 -121 334 -121 z "},"Ṫ":{"ha":750,"x_min":34,"x_max":715,"o":"m 715 909 l 715 783 l 450 783 l 450 0 l 300 0 l 300 783 l 34 783 l 34 909 l 715 909 m 374 1161 q 443 1136 416 1161 q 471 1073 471 1112 q 443 1008 471 1034 q 374 983 416 983 q 306 1008 333 983 q 278 1073 278 1034 q 306 1136 278 1112 q 374 1161 333 1161 z "},"Ṭ":{"ha":750,"x_min":34,"x_max":715,"o":"m 715 909 l 715 783 l 450 783 l 450 0 l 300 0 l 300 783 l 34 783 l 34 909 l 715 909 m 374 -122 q 443 -147 416 -122 q 471 -210 471 -172 q 443 -275 471 -250 q 374 -300 416 -300 q 306 -275 333 -300 q 278 -210 278 -250 q 306 -147 278 -172 q 374 -122 333 -122 z "},"Ṯ":{"ha":750,"x_min":34,"x_max":715,"o":"m 715 909 l 715 783 l 450 783 l 450 0 l 300 0 l 300 783 l 34 783 l 34 909 l 715 909 m 192 -245 l 192 -144 l 557 -144 l 557 -245 l 192 -245 z "},"Ẏ":{"ha":682,"x_min":-7,"x_max":689,"o":"m 256 671 q 339 471 309 541 l 345 471 q 382 557 366 523 q 404 607 389 572 q 430 671 419 642 l 534 909 l 689 909 l 415 341 l 415 0 l 266 0 l 266 341 l -7 909 l 153 909 l 256 671 m 340 1161 q 409 1136 382 1161 q 437 1073 437 1112 q 409 1008 437 1034 q 340 983 382 983 q 272 1008 299 983 q 244 1073 244 1034 q 272 1136 244 1112 q 340 1161 299 1161 z "},"Ẓ":{"ha":745,"x_min":55,"x_max":693,"o":"m 96 909 l 690 909 l 690 820 l 239 127 l 693 127 l 693 0 l 55 0 l 55 90 l 505 783 l 96 783 l 96 909 m 479 -210 q 454 -273 479 -249 q 390 -298 429 -298 q 326 -273 351 -298 q 300 -210 300 -249 q 326 -148 300 -173 q 390 -123 351 -123 q 454 -148 429 -123 q 479 -210 479 -173 z "},"Ạ":{"ha":765,"x_min":-3,"x_max":769,"o":"m -3 0 l 296 909 l 469 909 l 769 0 l 611 0 l 536 254 l 224 254 l 149 0 l -3 0 m 377 791 q 294 490 335 627 l 258 372 l 502 372 l 467 490 q 391 758 441 572 l 382 791 l 377 791 m 479 -210 q 454 -273 479 -249 q 390 -298 429 -298 q 326 -273 351 -298 q 300 -210 300 -249 q 326 -148 300 -173 q 390 -123 351 -123 q 454 -148 429 -123 q 479 -210 479 -173 z "},"Ả":{"ha":765,"x_min":-3,"x_max":769,"o":"m -3 0 l 296 909 l 469 909 l 769 0 l 611 0 l 536 254 l 224 254 l 149 0 l -3 0 m 377 791 q 294 490 335 627 l 258 372 l 502 372 l 467 490 q 391 758 441 572 l 382 791 l 377 791 m 283 1138 l 299 1218 q 455 1185 403 1215 q 507 1100 507 1155 q 459 1007 507 1040 q 338 966 412 975 l 324 1029 q 377 1050 359 1038 q 396 1084 396 1062 q 369 1122 396 1109 q 283 1138 341 1135 z "},"Ấ":{"ha":765,"x_min":-3,"x_max":769,"o":"m -3 0 l 296 909 l 469 909 l 769 0 l 611 0 l 536 254 l 224 254 l 149 0 l -3 0 m 377 791 q 294 490 335 627 l 258 372 l 502 372 l 467 490 q 391 758 441 572 l 382 791 l 377 791 m 518 1070 l 616 1229 l 738 1229 l 607 1070 l 518 1070 m 465 979 l 383 1061 l 378 1061 l 296 979 l 186 979 l 316 1131 l 445 1131 l 574 979 l 465 979 z "},"Ầ":{"ha":765,"x_min":-3,"x_max":769,"o":"m -3 0 l 296 909 l 469 909 l 769 0 l 611 0 l 536 254 l 224 254 l 149 0 l -3 0 m 377 791 q 294 490 335 627 l 258 372 l 502 372 l 467 490 q 391 758 441 572 l 382 791 l 377 791 m 568 1228 l 666 1069 l 576 1069 l 447 1228 l 568 1228 m 467 979 l 385 1061 l 379 1061 l 297 979 l 188 979 l 317 1130 l 446 1130 l 576 979 l 467 979 z "},"Ẩ":{"ha":765,"x_min":-3,"x_max":769,"o":"m -3 0 l 296 909 l 469 909 l 769 0 l 611 0 l 536 254 l 224 254 l 149 0 l -3 0 m 377 791 q 294 490 335 627 l 258 372 l 502 372 l 467 490 q 391 758 441 572 l 382 791 l 377 791 m 499 1196 l 514 1264 q 695 1159 695 1258 q 555 1045 695 1063 l 539 1100 q 581 1116 566 1106 q 595 1145 595 1126 q 573 1181 595 1170 q 499 1196 551 1193 m 468 979 l 386 1061 l 380 1061 l 298 979 l 189 979 l 319 1130 l 448 1130 l 577 979 l 468 979 z "},"Ẫ":{"ha":765,"x_min":-3,"x_max":769,"o":"m -3 0 l 296 909 l 469 909 l 769 0 l 611 0 l 536 254 l 224 254 l 149 0 l -3 0 m 377 791 q 294 490 335 627 l 258 372 l 502 372 l 467 490 q 391 758 441 572 l 382 791 l 377 791 m 499 1318 l 570 1318 q 532 1216 564 1254 q 454 1179 501 1179 q 409 1187 429 1179 q 364 1213 389 1196 q 333 1232 345 1226 q 310 1237 322 1237 q 275 1222 290 1237 q 256 1179 261 1207 l 186 1179 q 223 1281 192 1243 q 302 1318 254 1318 q 347 1310 327 1318 q 391 1284 366 1301 q 421 1265 410 1271 q 446 1259 433 1259 q 480 1275 466 1259 q 499 1318 494 1290 m 572 979 l 463 979 l 380 1061 l 375 1061 l 293 979 l 184 979 l 313 1130 l 442 1130 l 572 979 z "},"Ậ":{"ha":765,"x_min":-3,"x_max":769,"o":"m 295 978 l 174 978 l 307 1139 l 458 1139 l 591 978 l 470 978 l 385 1068 l 380 1068 l 295 978 m 769 0 l 611 0 l 536 254 l 224 254 l 149 0 l -3 0 l 294 902 q 322 958 297 936 q 382 979 347 979 q 443 958 418 979 q 471 902 468 936 l 769 0 m 502 372 l 467 490 q 391 758 441 572 l 382 791 l 377 791 q 294 490 335 627 l 258 372 l 502 372 z "},"Ắ":{"ha":765,"x_min":-3,"x_max":769,"o":"m -3 0 l 296 909 l 469 909 l 769 0 l 611 0 l 536 254 l 224 254 l 149 0 l -3 0 m 377 791 q 294 490 335 627 l 258 372 l 502 372 l 467 490 q 391 758 441 572 l 382 791 l 377 791 m 323 1117 l 421 1270 l 542 1270 l 405 1117 l 323 1117 m 484 1135 l 558 1135 q 506 1023 551 1067 q 381 980 461 980 q 256 1023 301 980 q 204 1135 212 1067 l 278 1135 q 381 1052 299 1052 q 484 1135 463 1052 z "},"Ằ":{"ha":765,"x_min":-3,"x_max":769,"o":"m -3 0 l 296 909 l 469 909 l 769 0 l 611 0 l 536 254 l 224 254 l 149 0 l -3 0 m 377 791 q 294 490 335 627 l 258 372 l 502 372 l 467 490 q 391 758 441 572 l 382 791 l 377 791 m 339 1270 l 437 1117 l 355 1117 l 218 1270 l 339 1270 m 482 1135 l 556 1135 q 504 1023 549 1067 q 379 980 459 980 q 254 1023 299 980 q 202 1135 210 1067 l 276 1135 q 379 1052 297 1052 q 482 1135 461 1052 z "},"Ẳ":{"ha":765,"x_min":-3,"x_max":769,"o":"m -3 0 l 296 909 l 469 909 l 769 0 l 611 0 l 536 254 l 224 254 l 149 0 l -3 0 m 377 791 q 294 490 335 627 l 258 372 l 502 372 l 467 490 q 391 758 441 572 l 382 791 l 377 791 m 288 1265 l 302 1334 q 484 1228 484 1327 q 445 1149 484 1176 q 343 1114 406 1122 l 328 1169 q 369 1186 355 1176 q 383 1215 383 1196 q 361 1251 383 1239 q 288 1265 340 1263 m 483 1135 l 557 1135 q 505 1023 549 1067 q 380 980 460 980 q 255 1023 300 980 q 203 1135 210 1067 l 277 1135 q 380 1052 298 1052 q 483 1135 462 1052 z "},"Ẵ":{"ha":765,"x_min":-3,"x_max":769,"o":"m -3 0 l 296 909 l 469 909 l 769 0 l 611 0 l 536 254 l 224 254 l 149 0 l -3 0 m 377 791 q 294 490 335 627 l 258 372 l 502 372 l 467 490 q 391 758 441 572 l 382 791 l 377 791 m 395 1283 q 425 1264 413 1270 q 449 1259 437 1259 q 484 1274 469 1259 q 503 1318 498 1289 l 573 1318 q 536 1216 567 1253 q 457 1178 505 1178 q 412 1187 432 1178 q 368 1213 393 1196 q 337 1231 348 1225 q 313 1236 326 1236 q 279 1221 293 1236 q 260 1178 264 1206 l 189 1178 q 227 1280 195 1242 q 305 1318 258 1318 q 350 1309 330 1318 q 395 1283 370 1300 m 484 1135 l 558 1135 q 506 1023 551 1066 q 381 979 461 979 q 256 1023 301 979 q 204 1135 212 1066 l 278 1135 q 381 1051 299 1051 q 484 1135 463 1051 z "},"Ặ":{"ha":765,"x_min":-3,"x_max":769,"o":"m 203 1139 l 291 1139 q 321 1083 298 1105 q 382 1061 344 1061 q 444 1083 421 1061 q 474 1139 467 1105 l 562 1139 q 509 1024 554 1068 q 382 980 465 980 q 256 1024 300 980 q 203 1139 211 1068 m 769 0 l 611 0 l 536 254 l 224 254 l 149 0 l -3 0 l 294 902 q 322 958 297 936 q 382 979 347 979 q 443 958 418 979 q 471 902 468 936 l 769 0 m 502 372 l 467 490 q 391 758 441 572 l 382 791 l 377 791 q 294 490 335 627 l 258 372 l 502 372 z "},"Ẹ":{"ha":738,"x_min":115,"x_max":671,"o":"m 266 783 l 266 536 l 596 536 l 596 411 l 266 411 l 266 127 l 671 127 l 671 0 l 115 0 l 115 909 l 656 909 l 656 783 l 266 783 m 497 -212 q 472 -275 497 -250 q 408 -299 446 -299 q 343 -275 369 -299 q 318 -212 318 -250 q 343 -150 318 -174 q 408 -125 369 -125 q 472 -150 446 -125 q 497 -212 497 -174 z "},"Ẻ":{"ha":738,"x_min":115,"x_max":671,"o":"m 266 783 l 266 536 l 596 536 l 596 411 l 266 411 l 266 127 l 671 127 l 671 0 l 115 0 l 115 909 l 656 909 l 656 783 l 266 783 m 298 1138 l 314 1218 q 470 1185 418 1215 q 522 1100 522 1155 q 474 1007 522 1040 q 353 966 427 975 l 339 1029 q 392 1050 374 1038 q 411 1084 411 1062 q 384 1122 411 1109 q 298 1138 356 1135 z "},"Ẽ":{"ha":738,"x_min":115,"x_max":671,"o":"m 266 783 l 266 536 l 596 536 l 596 411 l 266 411 l 266 127 l 671 127 l 671 0 l 115 0 l 115 909 l 656 909 l 656 783 l 266 783 m 509 1138 l 589 1138 q 552 1020 583 1063 q 469 977 520 977 q 419 987 442 977 q 366 1017 396 997 q 327 1038 340 1031 q 301 1044 314 1044 q 270 1028 281 1044 q 254 976 259 1012 l 174 976 q 211 1094 178 1050 q 295 1137 243 1137 q 345 1127 322 1137 q 399 1098 367 1118 q 435 1077 422 1084 q 461 1071 448 1071 q 492 1087 481 1071 q 509 1138 504 1103 z "},"Ế":{"ha":738,"x_min":115,"x_max":751,"o":"m 266 783 l 266 536 l 596 536 l 596 411 l 266 411 l 266 127 l 671 127 l 671 0 l 115 0 l 115 909 l 656 909 l 656 783 l 266 783 m 532 1070 l 629 1229 l 751 1229 l 621 1070 l 532 1070 m 479 979 l 397 1061 l 391 1061 l 309 979 l 200 979 l 330 1131 l 458 1131 l 588 979 l 479 979 z "},"Ề":{"ha":738,"x_min":115,"x_max":680,"o":"m 266 783 l 266 536 l 596 536 l 596 411 l 266 411 l 266 127 l 671 127 l 671 0 l 115 0 l 115 909 l 656 909 l 656 783 l 266 783 m 582 1228 l 680 1069 l 590 1069 l 460 1228 l 582 1228 m 480 979 l 398 1061 l 393 1061 l 311 979 l 201 979 l 331 1130 l 460 1130 l 589 979 l 480 979 z "},"Ể":{"ha":738,"x_min":115,"x_max":703,"o":"m 266 783 l 266 536 l 596 536 l 596 411 l 266 411 l 266 127 l 671 127 l 671 0 l 115 0 l 115 909 l 656 909 l 656 783 l 266 783 m 507 1196 l 522 1264 q 703 1159 703 1258 q 563 1045 703 1063 l 547 1100 q 589 1116 574 1106 q 603 1145 603 1126 q 581 1181 603 1170 q 507 1196 559 1193 m 476 979 l 394 1061 l 389 1061 l 307 979 l 197 979 l 327 1130 l 456 1130 l 585 979 l 476 979 z "},"Ễ":{"ha":738,"x_min":115,"x_max":671,"o":"m 266 783 l 266 536 l 596 536 l 596 411 l 266 411 l 266 127 l 671 127 l 671 0 l 115 0 l 115 909 l 656 909 l 656 783 l 266 783 m 517 1318 l 588 1318 q 551 1216 582 1254 q 472 1179 519 1179 q 427 1187 447 1179 q 382 1213 408 1196 q 352 1232 363 1226 q 328 1237 340 1237 q 294 1222 308 1237 q 275 1179 279 1207 l 204 1179 q 241 1281 210 1243 q 320 1318 273 1318 q 365 1310 345 1318 q 410 1284 385 1301 q 440 1265 428 1271 q 464 1259 452 1259 q 498 1275 484 1259 q 517 1318 513 1290 m 590 979 l 481 979 l 399 1061 l 393 1061 l 311 979 l 202 979 l 332 1130 l 460 1130 l 590 979 z "},"Ệ":{"ha":738,"x_min":115,"x_max":671,"o":"m 266 783 l 266 536 l 596 536 l 596 411 l 266 411 l 266 127 l 671 127 l 671 0 l 115 0 l 115 909 l 656 909 l 656 783 l 266 783 m 494 -214 q 469 -277 494 -252 q 405 -301 444 -301 q 341 -277 366 -301 q 315 -214 315 -252 q 341 -152 315 -176 q 405 -127 366 -127 q 469 -152 444 -127 q 494 -214 494 -176 m 590 978 l 469 978 l 384 1068 l 378 1068 l 294 978 l 172 978 l 306 1139 l 456 1139 l 590 978 z "},"Ỉ":{"ha":380,"x_min":104,"x_max":328,"o":"m 115 0 l 115 909 l 266 909 l 266 0 l 115 0 m 104 1117 l 121 1197 q 276 1164 224 1194 q 328 1079 328 1134 q 281 986 328 1019 q 159 945 234 954 l 146 1008 q 199 1029 180 1017 q 218 1063 218 1041 q 190 1101 218 1088 q 104 1117 163 1114 z "},"Ị":{"ha":380,"x_min":104,"x_max":283,"o":"m 115 0 l 115 909 l 266 909 l 266 0 l 115 0 m 283 -214 q 258 -277 283 -252 q 194 -301 233 -301 q 130 -277 155 -301 q 104 -214 104 -252 q 130 -152 104 -176 q 194 -127 155 -127 q 258 -152 233 -127 q 283 -214 283 -176 z "},"Ọ":{"ha":928,"x_min":66,"x_max":861,"o":"m 861 458 q 812 201 861 309 q 674 39 764 94 q 463 -17 585 -17 q 252 39 342 -17 q 114 201 163 94 q 66 458 66 309 q 114 712 66 606 q 252 871 163 817 q 463 926 342 926 q 674 871 585 926 q 812 711 764 817 q 861 458 861 606 m 220 458 q 249 272 220 350 q 332 154 277 195 q 463 113 387 113 q 594 154 539 113 q 678 273 649 195 q 707 458 707 350 q 678 641 707 564 q 594 756 649 717 q 463 796 539 796 q 332 756 387 796 q 249 641 277 717 q 220 458 220 565 m 575 -214 q 550 -277 575 -252 q 486 -301 524 -301 q 421 -277 447 -301 q 396 -214 396 -252 q 421 -152 396 -176 q 486 -127 447 -127 q 550 -152 524 -127 q 575 -214 575 -176 z "},"Ỏ":{"ha":928,"x_min":66,"x_max":861,"o":"m 861 458 q 812 201 861 309 q 674 39 764 94 q 463 -17 585 -17 q 252 39 342 -17 q 114 201 163 94 q 66 458 66 309 q 114 712 66 606 q 252 871 163 817 q 463 926 342 926 q 674 871 585 926 q 812 711 764 817 q 861 458 861 606 m 220 458 q 249 272 220 350 q 332 154 277 195 q 463 113 387 113 q 594 154 539 113 q 678 273 649 195 q 707 458 707 350 q 678 641 707 564 q 594 756 649 717 q 463 796 539 796 q 332 756 387 796 q 249 641 277 717 q 220 458 220 565 m 366 1138 l 382 1218 q 538 1185 486 1215 q 590 1100 590 1155 q 543 1007 590 1040 q 421 966 496 975 l 408 1029 q 461 1050 442 1038 q 479 1084 479 1062 q 452 1122 479 1109 q 366 1138 425 1135 z "},"Ố":{"ha":928,"x_min":66,"x_max":861,"o":"m 861 458 q 812 201 861 309 q 674 39 764 94 q 463 -17 585 -17 q 252 39 342 -17 q 114 201 163 94 q 66 458 66 309 q 114 712 66 606 q 252 871 163 817 q 463 926 342 926 q 674 871 585 926 q 812 711 764 817 q 861 458 861 606 m 220 458 q 249 272 220 350 q 332 154 277 195 q 463 113 387 113 q 594 154 539 113 q 678 273 649 195 q 707 458 707 350 q 678 641 707 564 q 594 756 649 717 q 463 796 539 796 q 332 756 387 796 q 249 641 277 717 q 220 458 220 565 m 599 1070 l 696 1229 l 819 1229 l 688 1070 l 599 1070 m 546 979 l 464 1061 l 458 1061 l 376 979 l 267 979 l 397 1131 l 526 1131 l 655 979 l 546 979 z "},"Ồ":{"ha":928,"x_min":66,"x_max":861,"o":"m 861 458 q 812 201 861 309 q 674 39 764 94 q 463 -17 585 -17 q 252 39 342 -17 q 114 201 163 94 q 66 458 66 309 q 114 712 66 606 q 252 871 163 817 q 463 926 342 926 q 674 871 585 926 q 812 711 764 817 q 861 458 861 606 m 220 458 q 249 272 220 350 q 332 154 277 195 q 463 113 387 113 q 594 154 539 113 q 678 273 649 195 q 707 458 707 350 q 678 641 707 564 q 594 756 649 717 q 463 796 539 796 q 332 756 387 796 q 249 641 277 717 q 220 458 220 565 m 650 1228 l 747 1069 l 658 1069 l 528 1228 l 650 1228 m 548 979 l 466 1061 l 460 1061 l 378 979 l 269 979 l 399 1130 l 528 1130 l 657 979 l 548 979 z "},"Ổ":{"ha":928,"x_min":66,"x_max":861,"o":"m 861 458 q 812 201 861 309 q 674 39 764 94 q 463 -17 585 -17 q 252 39 342 -17 q 114 201 163 94 q 66 458 66 309 q 114 712 66 606 q 252 871 163 817 q 463 926 342 926 q 674 871 585 926 q 812 711 764 817 q 861 458 861 606 m 220 458 q 249 272 220 350 q 332 154 277 195 q 463 113 387 113 q 594 154 539 113 q 678 273 649 195 q 707 458 707 350 q 678 641 707 564 q 594 756 649 717 q 463 796 539 796 q 332 756 387 796 q 249 641 277 717 q 220 458 220 565 m 581 1196 l 595 1264 q 777 1159 777 1258 q 636 1045 777 1063 l 621 1100 q 662 1116 648 1106 q 676 1145 676 1126 q 654 1181 676 1170 q 581 1196 633 1193 m 549 979 l 467 1061 l 462 1061 l 380 979 l 271 979 l 400 1130 l 529 1130 l 659 979 l 549 979 z "},"Ỗ":{"ha":928,"x_min":66,"x_max":861,"o":"m 861 458 q 812 201 861 309 q 674 39 764 94 q 463 -17 585 -17 q 252 39 342 -17 q 114 201 163 94 q 66 458 66 309 q 114 712 66 606 q 252 871 163 817 q 463 926 342 926 q 674 871 585 926 q 812 711 764 817 q 861 458 861 606 m 220 458 q 249 272 220 350 q 332 154 277 195 q 463 113 387 113 q 594 154 539 113 q 678 273 649 195 q 707 458 707 350 q 678 641 707 564 q 594 756 649 717 q 463 796 539 796 q 332 756 387 796 q 249 641 277 717 q 220 458 220 565 m 585 1318 l 656 1318 q 618 1216 650 1254 q 540 1179 587 1179 q 495 1187 515 1179 q 450 1213 475 1196 q 419 1232 431 1226 q 396 1237 408 1237 q 361 1222 376 1237 q 342 1179 347 1207 l 272 1179 q 309 1281 278 1243 q 388 1318 340 1318 q 433 1310 413 1318 q 477 1284 452 1301 q 508 1265 496 1271 q 532 1259 519 1259 q 566 1275 552 1259 q 585 1318 581 1290 m 658 979 l 549 979 l 467 1061 l 461 1061 l 379 979 l 270 979 l 399 1130 l 528 1130 l 658 979 z "},"Ộ":{"ha":928,"x_min":66,"x_max":861,"o":"m 376 978 l 254 978 l 388 1139 l 538 1139 l 672 978 l 551 978 l 466 1068 l 460 1068 l 376 978 m 861 458 q 812 201 861 309 q 674 39 764 94 q 463 -17 585 -17 q 252 39 342 -17 q 114 201 163 94 q 66 458 66 309 q 103 685 66 588 q 211 841 141 783 q 377 918 281 900 q 409 963 385 946 q 463 979 432 979 q 518 963 494 979 q 549 918 541 946 q 716 841 646 900 q 824 685 786 782 q 861 458 861 587 m 707 458 q 678 641 707 564 q 594 756 649 717 q 463 796 539 796 q 332 756 387 796 q 249 641 277 717 q 220 458 220 565 q 249 272 220 350 q 332 154 277 195 q 463 113 387 113 q 594 154 539 113 q 678 273 649 195 q 707 458 707 350 z "},"Ớ":{"ha":928,"x_min":66,"x_max":869,"o":"m 726 827 q 826 672 791 766 q 861 458 861 578 q 811 207 861 314 q 671 41 761 99 q 464 -17 581 -17 q 257 41 347 -17 q 116 207 167 99 q 66 458 66 314 q 116 708 66 603 q 256 870 166 814 q 464 926 347 926 q 650 882 568 926 q 726 913 702 892 q 751 972 751 934 q 730 1031 751 1000 l 835 1080 q 860 1034 850 1059 q 869 981 869 1008 q 832 883 869 921 q 726 827 794 845 m 220 458 q 250 276 220 355 q 335 156 280 198 q 464 113 391 113 q 592 156 537 113 q 677 276 648 198 q 707 458 707 354 q 677 638 707 562 q 592 755 648 715 q 464 796 537 796 q 335 755 391 796 q 250 638 280 715 q 220 458 220 562 m 665 1139 l 504 978 l 378 978 l 496 1139 l 665 1139 z "},"Ờ":{"ha":928,"x_min":66,"x_max":869,"o":"m 726 827 q 826 672 791 766 q 861 458 861 578 q 811 207 861 314 q 671 41 761 99 q 464 -17 581 -17 q 257 41 347 -17 q 116 207 167 99 q 66 458 66 314 q 116 708 66 603 q 256 870 166 814 q 464 926 347 926 q 650 882 568 926 q 726 913 702 892 q 751 972 751 934 q 730 1031 751 1000 l 835 1080 q 860 1034 850 1059 q 869 981 869 1008 q 832 883 869 921 q 726 827 794 845 m 220 458 q 250 276 220 355 q 335 156 280 198 q 464 113 391 113 q 592 156 537 113 q 677 276 648 198 q 707 458 707 354 q 677 638 707 562 q 592 755 648 715 q 464 796 537 796 q 335 755 391 796 q 250 638 280 715 q 220 458 220 562 m 422 978 l 262 1139 l 430 1139 l 548 978 l 422 978 z "},"Ở":{"ha":928,"x_min":66,"x_max":869,"o":"m 726 827 q 826 672 791 766 q 861 458 861 578 q 811 207 861 314 q 671 41 761 99 q 464 -17 581 -17 q 257 41 347 -17 q 116 207 167 99 q 66 458 66 314 q 116 708 66 603 q 256 870 166 814 q 464 926 347 926 q 650 882 568 926 q 726 913 702 892 q 751 972 751 934 q 730 1031 751 1000 l 835 1080 q 860 1034 850 1059 q 869 981 869 1008 q 832 883 869 921 q 726 827 794 845 m 220 458 q 250 276 220 355 q 335 156 280 198 q 464 113 391 113 q 592 156 537 113 q 677 276 648 198 q 707 458 707 354 q 677 638 707 562 q 592 755 648 715 q 464 796 537 796 q 335 755 391 796 q 250 638 280 715 q 220 458 220 562 m 365 1129 l 381 1209 q 537 1176 485 1206 q 589 1091 589 1146 q 542 998 589 1031 q 420 957 494 966 l 406 1020 q 459 1041 441 1029 q 478 1076 478 1053 q 451 1113 478 1100 q 365 1129 423 1126 z "},"Ỡ":{"ha":928,"x_min":66,"x_max":869,"o":"m 726 827 q 826 672 791 766 q 861 458 861 578 q 811 207 861 314 q 671 41 761 99 q 464 -17 581 -17 q 257 41 347 -17 q 116 207 167 99 q 66 458 66 314 q 116 708 66 603 q 256 870 166 814 q 464 926 347 926 q 650 882 568 926 q 726 913 702 892 q 751 972 751 934 q 730 1031 751 1000 l 835 1080 q 860 1034 850 1059 q 869 981 869 1008 q 832 883 869 921 q 726 827 794 845 m 220 458 q 250 276 220 355 q 335 156 280 198 q 464 113 391 113 q 592 156 537 113 q 677 276 648 198 q 707 458 707 354 q 677 638 707 562 q 592 755 648 715 q 464 796 537 796 q 335 755 391 796 q 250 638 280 715 q 220 458 220 562 m 587 1147 l 667 1147 q 630 1029 662 1072 q 547 986 599 986 q 498 996 521 986 q 444 1026 475 1006 q 406 1047 419 1041 q 380 1054 393 1054 q 349 1038 360 1054 q 333 985 338 1021 l 252 985 q 290 1103 257 1060 q 374 1147 322 1147 q 423 1137 401 1147 q 477 1107 446 1127 q 514 1087 500 1093 q 540 1080 527 1080 q 571 1097 559 1080 q 587 1147 583 1113 z "},"Ợ":{"ha":928,"x_min":66,"x_max":869,"o":"m 726 827 q 826 672 791 766 q 861 458 861 578 q 811 207 861 314 q 671 41 761 99 q 464 -17 581 -17 q 257 41 347 -17 q 116 207 167 99 q 66 458 66 314 q 116 708 66 603 q 256 870 166 814 q 464 926 347 926 q 650 882 568 926 q 726 913 702 892 q 751 972 751 934 q 730 1031 751 1000 l 835 1080 q 860 1034 850 1059 q 869 981 869 1008 q 832 883 869 921 q 726 827 794 845 m 220 458 q 250 276 220 355 q 335 156 280 198 q 464 113 391 113 q 592 156 537 113 q 677 276 648 198 q 707 458 707 354 q 677 638 707 562 q 592 755 648 715 q 464 796 537 796 q 335 755 391 796 q 250 638 280 715 q 220 458 220 562 m 554 -212 q 529 -275 554 -250 q 465 -299 503 -299 q 400 -275 426 -299 q 375 -212 375 -250 q 400 -150 375 -174 q 465 -125 426 -125 q 529 -150 503 -125 q 554 -212 554 -174 z "},"Ụ":{"ha":901,"x_min":111,"x_max":791,"o":"m 451 113 q 595 174 544 113 q 647 378 647 234 l 647 909 l 791 909 l 791 387 q 702 79 791 174 q 451 -17 613 -17 q 111 387 111 -17 l 111 909 l 261 909 l 261 378 q 311 174 261 235 q 451 113 360 113 m 538 -212 q 513 -275 538 -250 q 449 -299 488 -299 q 385 -275 410 -299 q 359 -212 359 -250 q 385 -150 359 -174 q 449 -125 410 -125 q 513 -150 488 -125 q 538 -212 538 -174 z "},"Ủ":{"ha":901,"x_min":111,"x_max":791,"o":"m 451 113 q 595 174 544 113 q 647 378 647 234 l 647 909 l 791 909 l 791 387 q 702 79 791 174 q 451 -17 613 -17 q 111 387 111 -17 l 111 909 l 261 909 l 261 378 q 311 174 261 235 q 451 113 360 113 m 353 1138 l 370 1218 q 525 1185 473 1215 q 577 1100 577 1155 q 530 1007 577 1040 q 408 966 483 975 l 395 1029 q 448 1050 429 1038 q 467 1084 467 1062 q 439 1122 467 1109 q 353 1138 412 1135 z "},"Ứ":{"ha":922,"x_min":111,"x_max":951,"o":"m 791 850 l 791 393 q 451 -17 791 -17 q 200 81 290 -17 q 111 393 111 179 l 111 909 l 261 909 l 261 383 q 311 176 261 239 q 451 113 361 113 q 595 176 543 113 q 647 383 647 239 l 647 909 l 714 909 q 802 935 772 916 q 832 1000 832 954 q 811 1059 832 1027 l 916 1107 q 941 1061 931 1086 q 951 1009 951 1036 q 907 903 951 941 q 791 850 863 865 m 652 1139 l 491 978 l 366 978 l 484 1139 l 652 1139 z "},"Ừ":{"ha":922,"x_min":111,"x_max":951,"o":"m 791 850 l 791 393 q 451 -17 791 -17 q 200 81 290 -17 q 111 393 111 179 l 111 909 l 261 909 l 261 383 q 311 176 261 239 q 451 113 361 113 q 595 176 543 113 q 647 383 647 239 l 647 909 l 714 909 q 802 935 772 916 q 832 1000 832 954 q 811 1059 832 1027 l 916 1107 q 941 1061 931 1086 q 951 1009 951 1036 q 907 903 951 941 q 791 850 863 865 m 409 978 l 248 1139 l 416 1139 l 534 978 l 409 978 z "},"Ử":{"ha":922,"x_min":111,"x_max":951,"o":"m 791 850 l 791 393 q 451 -17 791 -17 q 200 81 290 -17 q 111 393 111 179 l 111 909 l 261 909 l 261 383 q 311 176 261 239 q 451 113 361 113 q 595 176 543 113 q 647 383 647 239 l 647 909 l 714 909 q 802 935 772 916 q 832 1000 832 954 q 811 1059 832 1027 l 916 1107 q 941 1061 931 1086 q 951 1009 951 1036 q 907 903 951 941 q 791 850 863 865 m 351 1112 l 368 1192 q 523 1159 471 1190 q 575 1074 575 1129 q 528 981 575 1014 q 406 940 481 949 l 393 1003 q 446 1024 427 1012 q 465 1059 465 1036 q 437 1096 465 1083 q 351 1112 410 1109 z "},"Ữ":{"ha":922,"x_min":111,"x_max":951,"o":"m 576 1147 l 656 1147 q 620 1029 651 1072 q 536 986 588 986 q 487 996 510 986 q 433 1026 464 1006 q 395 1047 408 1041 q 369 1054 382 1054 q 338 1038 349 1054 q 322 985 327 1021 l 241 985 q 279 1103 246 1060 q 363 1147 311 1147 q 412 1137 390 1147 q 467 1107 435 1127 q 503 1087 490 1093 q 529 1080 516 1080 q 560 1097 549 1080 q 576 1147 572 1113 m 791 850 l 791 393 q 451 -17 791 -17 q 200 81 290 -17 q 111 393 111 179 l 111 909 l 261 909 l 261 383 q 311 176 261 239 q 451 113 361 113 q 595 176 543 113 q 647 383 647 239 l 647 909 l 714 909 q 802 935 772 916 q 832 1000 832 954 q 811 1059 832 1027 l 916 1107 q 941 1061 931 1086 q 951 1009 951 1036 q 907 903 951 941 q 791 850 863 865 z "},"Ự":{"ha":922,"x_min":111,"x_max":951,"o":"m 538 -212 q 513 -275 538 -250 q 449 -299 488 -299 q 385 -275 410 -299 q 359 -212 359 -250 q 385 -150 359 -174 q 449 -125 410 -125 q 513 -150 488 -125 q 538 -212 538 -174 m 791 850 l 791 393 q 451 -17 791 -17 q 200 81 290 -17 q 111 393 111 179 l 111 909 l 261 909 l 261 383 q 311 176 261 239 q 451 113 361 113 q 595 176 543 113 q 647 383 647 239 l 647 909 l 714 909 q 802 935 772 916 q 832 1000 832 954 q 811 1059 832 1027 l 916 1107 q 941 1061 931 1086 q 951 1009 951 1036 q 907 903 951 941 q 791 850 863 865 z "},"Ỵ":{"ha":682,"x_min":-7,"x_max":689,"o":"m 256 671 q 339 471 309 541 l 345 471 q 382 557 366 523 q 404 607 389 572 q 430 671 419 642 l 534 909 l 689 909 l 415 341 l 415 0 l 266 0 l 266 341 l -7 909 l 153 909 l 256 671 m 430 -209 q 405 -272 430 -248 q 340 -296 379 -296 q 276 -272 302 -296 q 251 -209 251 -248 q 276 -147 251 -172 q 340 -122 302 -122 q 405 -147 379 -122 q 430 -209 430 -172 z "},"Ỷ":{"ha":682,"x_min":-7,"x_max":689,"o":"m 256 671 q 339 471 309 541 l 345 471 q 382 557 366 523 q 404 607 389 572 q 430 671 419 642 l 534 909 l 689 909 l 415 341 l 415 0 l 266 0 l 266 341 l -7 909 l 153 909 l 256 671 m 245 1138 l 261 1218 q 417 1185 365 1215 q 469 1100 469 1155 q 421 1007 469 1040 q 300 966 374 975 l 286 1029 q 339 1050 321 1038 q 358 1084 358 1062 q 331 1122 358 1109 q 245 1138 303 1135 z "},"Ỹ":{"ha":682,"x_min":-7,"x_max":689,"o":"m 256 671 q 339 471 309 541 l 345 471 q 382 557 366 523 q 404 607 389 572 q 430 671 419 642 l 534 909 l 689 909 l 415 341 l 415 0 l 266 0 l 266 341 l -7 909 l 153 909 l 256 671 m 468 1113 l 548 1113 q 511 995 543 1038 q 428 951 479 951 q 378 962 401 951 q 325 991 355 972 q 287 1013 300 1006 q 260 1019 273 1019 q 230 1003 241 1019 q 214 951 218 987 l 133 951 q 170 1069 138 1025 q 254 1112 203 1112 q 304 1102 281 1112 q 358 1073 326 1093 q 394 1052 381 1059 q 420 1046 408 1046 q 452 1062 440 1046 q 468 1113 463 1078 z "},"a":{"ha":723,"x_min":75,"x_max":628,"o":"m 153 517 l 98 617 q 228 675 155 653 q 378 697 300 697 q 567 624 505 697 q 628 406 628 551 l 628 0 l 506 0 l 494 77 l 490 77 q 424 26 453 45 q 360 -5 395 7 q 282 -17 325 -17 q 173 8 220 -17 q 100 79 126 33 q 75 183 75 124 q 173 359 75 296 q 479 430 271 422 q 451 542 479 507 q 351 576 422 576 q 248 561 298 576 q 153 517 198 545 m 479 340 q 278 296 338 336 q 218 193 218 256 q 247 123 218 146 q 326 100 276 100 q 403 119 368 100 q 479 178 438 138 l 479 340 z "},"á":{"ha":723,"x_min":75,"x_max":628,"o":"m 153 517 l 98 617 q 228 675 155 653 q 378 697 300 697 q 567 624 505 697 q 628 406 628 551 l 628 0 l 506 0 l 494 77 l 490 77 q 424 26 453 45 q 360 -5 395 7 q 282 -17 325 -17 q 173 8 220 -17 q 100 79 126 33 q 75 183 75 124 q 173 359 75 296 q 479 430 271 422 q 451 542 479 507 q 351 576 422 576 q 248 561 298 576 q 153 517 198 545 m 479 340 q 278 296 338 336 q 218 193 218 256 q 247 123 218 146 q 326 100 276 100 q 403 119 368 100 q 479 178 438 138 l 479 340 m 590 997 l 428 797 l 317 797 l 441 997 l 590 997 z "},"ă":{"ha":723,"x_min":75,"x_max":628,"o":"m 153 517 l 98 617 q 228 675 155 653 q 378 697 300 697 q 567 624 505 697 q 628 406 628 551 l 628 0 l 506 0 l 494 77 l 490 77 q 424 26 453 45 q 360 -5 395 7 q 282 -17 325 -17 q 173 8 220 -17 q 100 79 126 33 q 75 183 75 124 q 173 359 75 296 q 479 430 271 422 q 451 542 479 507 q 351 576 422 576 q 248 561 298 576 q 153 517 198 545 m 479 340 q 278 296 338 336 q 218 193 218 256 q 247 123 218 146 q 326 100 276 100 q 403 119 368 100 q 479 178 438 138 l 479 340 m 458 981 l 545 981 q 522 892 543 933 q 461 824 501 850 q 363 798 421 798 q 264 824 304 798 q 204 892 224 850 q 181 981 184 933 l 268 981 q 298 912 274 939 q 363 885 321 885 q 428 912 404 885 q 458 981 452 939 z "},"â":{"ha":723,"x_min":75,"x_max":628,"o":"m 153 517 l 98 617 q 228 675 155 653 q 378 697 300 697 q 567 624 505 697 q 628 406 628 551 l 628 0 l 506 0 l 494 77 l 490 77 q 424 26 453 45 q 360 -5 395 7 q 282 -17 325 -17 q 173 8 220 -17 q 100 79 126 33 q 75 183 75 124 q 173 359 75 296 q 479 430 271 422 q 451 542 479 507 q 351 576 422 576 q 248 561 298 576 q 153 517 198 545 m 479 340 q 278 296 338 336 q 218 193 218 256 q 247 123 218 146 q 326 100 276 100 q 403 119 368 100 q 479 178 438 138 l 479 340 m 452 797 l 366 916 l 360 916 l 275 797 l 171 797 l 302 997 l 423 997 l 555 797 l 452 797 z "},"ä":{"ha":723,"x_min":75,"x_max":628,"o":"m 153 517 l 98 617 q 228 675 155 653 q 378 697 300 697 q 567 624 505 697 q 628 406 628 551 l 628 0 l 506 0 l 494 77 l 490 77 q 424 26 453 45 q 360 -5 395 7 q 282 -17 325 -17 q 173 8 220 -17 q 100 79 126 33 q 75 183 75 124 q 173 359 75 296 q 479 430 271 422 q 451 542 479 507 q 351 576 422 576 q 248 561 298 576 q 153 517 198 545 m 479 340 q 278 296 338 336 q 218 193 218 256 q 247 123 218 146 q 326 100 276 100 q 403 119 368 100 q 479 178 438 138 l 479 340 m 315 887 q 293 830 315 852 q 237 808 271 808 q 180 830 202 808 q 158 887 158 852 q 180 943 158 921 q 237 966 202 966 q 293 943 271 966 q 315 887 315 921 m 568 887 q 546 830 568 852 q 490 808 524 808 q 433 830 455 808 q 411 887 411 852 q 433 943 411 921 q 490 966 455 966 q 546 943 524 966 q 568 887 568 921 z "},"à":{"ha":723,"x_min":75,"x_max":628,"o":"m 153 517 l 98 617 q 228 675 155 653 q 378 697 300 697 q 567 624 505 697 q 628 406 628 551 l 628 0 l 506 0 l 494 77 l 490 77 q 424 26 453 45 q 360 -5 395 7 q 282 -17 325 -17 q 173 8 220 -17 q 100 79 126 33 q 75 183 75 124 q 173 359 75 296 q 479 430 271 422 q 451 542 479 507 q 351 576 422 576 q 248 561 298 576 q 153 517 198 545 m 479 340 q 278 296 338 336 q 218 193 218 256 q 247 123 218 146 q 326 100 276 100 q 403 119 368 100 q 479 178 438 138 l 479 340 m 304 797 l 142 997 l 291 997 l 415 797 l 304 797 z "},"ā":{"ha":723,"x_min":75,"x_max":628,"o":"m 153 517 l 98 617 q 228 675 155 653 q 378 697 300 697 q 567 624 505 697 q 628 406 628 551 l 628 0 l 506 0 l 494 77 l 490 77 q 424 26 453 45 q 360 -5 395 7 q 282 -17 325 -17 q 173 8 220 -17 q 100 79 126 33 q 75 183 75 124 q 173 359 75 296 q 479 430 271 422 q 451 542 479 507 q 351 576 422 576 q 248 561 298 576 q 153 517 198 545 m 479 340 q 278 296 338 336 q 218 193 218 256 q 247 123 218 146 q 326 100 276 100 q 403 119 368 100 q 479 178 438 138 l 479 340 m 184 830 l 184 928 l 541 928 l 541 830 l 184 830 z "},"ą":{"ha":723,"x_min":75,"x_max":656,"o":"m 157 508 l 102 608 q 378 697 244 697 q 566 622 503 697 q 628 406 628 547 l 628 0 q 538 -58 570 -20 q 507 -135 507 -96 q 525 -179 507 -164 q 569 -195 543 -195 q 623 -178 595 -195 l 656 -248 q 600 -277 634 -265 q 536 -288 565 -288 q 440 -256 477 -288 q 402 -167 402 -224 q 434 -69 402 -114 q 508 2 466 -24 l 494 77 l 490 77 q 385 8 438 33 q 275 -17 332 -17 q 171 8 217 -17 q 100 78 125 33 q 75 181 75 123 q 117 306 75 255 q 249 387 159 356 q 479 433 338 418 q 449 537 478 498 q 352 576 419 576 q 255 558 303 576 q 157 508 207 540 m 479 340 q 278 287 338 323 q 218 192 218 250 q 247 123 218 146 q 322 100 275 100 q 400 119 363 100 q 479 178 436 138 l 479 340 z "},"å":{"ha":723,"x_min":75,"x_max":628,"o":"m 153 517 l 98 617 q 228 675 155 653 q 378 697 300 697 q 567 624 505 697 q 628 406 628 551 l 628 0 l 506 0 l 494 77 l 490 77 q 424 26 453 45 q 360 -5 395 7 q 282 -17 325 -17 q 173 8 220 -17 q 100 79 126 33 q 75 183 75 124 q 173 359 75 296 q 479 430 271 422 q 451 542 479 507 q 351 576 422 576 q 248 561 298 576 q 153 517 198 545 m 479 340 q 278 296 338 336 q 218 193 218 256 q 247 123 218 146 q 326 100 276 100 q 403 119 368 100 q 479 178 438 138 l 479 340 m 503 890 q 485 820 503 850 q 435 773 467 789 q 362 756 404 756 q 290 773 321 756 q 241 820 258 789 q 223 890 223 850 q 241 959 223 929 q 290 1006 258 989 q 362 1023 321 1023 q 435 1006 404 1023 q 485 959 467 989 q 503 890 503 929 m 300 890 q 317 837 300 857 q 362 817 335 817 q 407 837 389 817 q 425 890 425 857 q 407 942 425 922 q 362 962 389 962 q 317 942 335 962 q 300 890 300 922 z "},"ã":{"ha":723,"x_min":75,"x_max":628,"o":"m 153 517 l 98 617 q 228 675 155 653 q 378 697 300 697 q 567 624 505 697 q 628 406 628 551 l 628 0 l 506 0 l 494 77 l 490 77 q 424 26 453 45 q 360 -5 395 7 q 282 -17 325 -17 q 173 8 220 -17 q 100 79 126 33 q 75 183 75 124 q 173 359 75 296 q 479 430 271 422 q 451 542 479 507 q 351 576 422 576 q 248 561 298 576 q 153 517 198 545 m 479 340 q 278 296 338 336 q 218 193 218 256 q 247 123 218 146 q 326 100 276 100 q 403 119 368 100 q 479 178 438 138 l 479 340 m 490 964 l 570 964 q 533 846 565 889 q 450 803 502 803 q 401 813 424 803 q 347 843 378 823 q 309 864 322 858 q 283 871 296 871 q 252 854 263 871 q 236 802 241 838 l 155 802 q 193 920 160 877 q 277 964 225 964 q 326 954 304 964 q 380 924 349 944 q 417 904 404 910 q 443 897 430 897 q 474 913 463 897 q 490 964 486 930 z "},"æ":{"ha":1091,"x_min":75,"x_max":1039,"o":"m 559 569 q 783 697 648 697 q 925 656 867 697 q 1010 543 982 616 q 1039 372 1039 469 q 1033 300 1039 330 l 611 300 q 641 195 615 240 q 710 126 667 150 q 804 102 752 102 q 882 115 845 102 q 961 155 918 129 l 1013 56 q 784 -17 903 -17 q 547 102 645 -17 q 275 -17 408 -17 q 171 8 217 -17 q 100 78 125 33 q 75 181 75 123 q 171 353 75 292 q 473 431 267 414 q 348 576 471 576 q 157 515 254 576 l 102 616 q 229 675 161 652 q 368 697 297 697 q 487 664 441 697 q 559 569 534 631 m 611 395 l 910 395 q 779 582 910 582 q 698 560 734 582 q 639 495 662 538 q 611 395 616 453 m 473 308 l 473 338 q 279 286 339 322 q 218 192 218 250 q 247 123 218 146 q 322 100 275 100 q 412 123 365 100 q 497 187 459 146 q 480 244 487 212 q 473 308 474 276 z "},"ǽ":{"ha":1091,"x_min":75,"x_max":1039,"o":"m 559 569 q 783 697 648 697 q 925 656 867 697 q 1010 543 982 616 q 1039 372 1039 469 q 1033 300 1039 330 l 611 300 q 641 195 615 240 q 710 126 667 150 q 804 102 752 102 q 882 115 845 102 q 961 155 918 129 l 1013 56 q 784 -17 903 -17 q 547 102 645 -17 q 275 -17 408 -17 q 171 8 217 -17 q 100 78 125 33 q 75 181 75 123 q 171 353 75 292 q 473 431 267 414 q 348 576 471 576 q 157 515 254 576 l 102 616 q 229 675 161 652 q 368 697 297 697 q 487 664 441 697 q 559 569 534 631 m 611 395 l 910 395 q 779 582 910 582 q 698 560 734 582 q 639 495 662 538 q 611 395 616 453 m 473 308 l 473 338 q 279 286 339 322 q 218 192 218 250 q 247 123 218 146 q 322 100 275 100 q 412 123 365 100 q 497 187 459 146 q 480 244 487 212 q 473 308 474 276 m 784 997 l 622 797 l 511 797 l 635 997 l 784 997 z "},"b":{"ha":781,"x_min":105,"x_max":718,"o":"m 250 610 q 346 674 295 650 q 450 697 397 697 q 650 607 582 697 q 718 351 718 516 q 679 151 718 234 q 574 25 640 68 q 428 -17 508 -17 q 331 5 380 -17 q 239 68 283 27 l 235 68 l 222 0 l 105 0 l 105 983 l 253 983 l 253 725 l 250 610 m 410 574 q 333 554 371 574 q 253 493 295 534 l 253 167 q 326 121 289 135 q 397 106 362 106 q 485 134 447 106 q 544 215 522 161 q 565 349 565 270 q 529 517 565 460 q 410 574 492 574 z "},"c":{"ha":639,"x_min":58,"x_max":602,"o":"m 524 526 q 401 576 465 576 q 302 548 345 576 q 234 467 258 519 q 210 341 210 414 q 234 216 210 269 q 299 134 257 162 q 397 105 342 105 q 540 160 474 105 l 602 64 q 499 3 556 24 q 382 -17 442 -17 q 216 24 289 -17 q 100 147 142 66 q 58 341 58 228 q 104 535 58 454 q 225 656 149 615 q 394 697 302 697 q 507 676 456 697 q 595 619 558 655 l 524 526 z "},"ć":{"ha":639,"x_min":58,"x_max":623,"o":"m 524 526 q 401 576 465 576 q 302 548 345 576 q 234 467 258 519 q 210 341 210 414 q 234 216 210 269 q 299 134 257 162 q 397 105 342 105 q 540 160 474 105 l 602 64 q 499 3 556 24 q 382 -17 442 -17 q 216 24 289 -17 q 100 147 142 66 q 58 341 58 228 q 104 535 58 454 q 225 656 149 615 q 394 697 302 697 q 507 676 456 697 q 595 619 558 655 l 524 526 m 623 997 l 461 797 l 350 797 l 475 997 l 623 997 z "},"č":{"ha":639,"x_min":58,"x_max":602,"o":"m 524 526 q 401 576 465 576 q 302 548 345 576 q 234 467 258 519 q 210 341 210 414 q 234 216 210 269 q 299 134 257 162 q 397 105 342 105 q 540 160 474 105 l 602 64 q 499 3 556 24 q 382 -17 442 -17 q 216 24 289 -17 q 100 147 142 66 q 58 341 58 228 q 104 535 58 454 q 225 656 149 615 q 394 697 302 697 q 507 676 456 697 q 595 619 558 655 l 524 526 m 399 876 l 485 997 l 589 997 l 456 797 l 336 797 l 204 997 l 308 997 l 393 876 l 399 876 z "},"ç":{"ha":639,"x_min":58,"x_max":608,"o":"m 269 -300 l 256 -233 q 376 -169 376 -219 q 355 -131 376 -146 q 290 -105 335 -116 l 336 -13 q 193 42 256 -3 q 94 163 130 87 q 58 340 58 239 q 104 530 58 449 q 228 654 151 612 q 396 697 305 697 q 508 675 458 697 q 595 617 557 654 l 524 524 q 465 563 494 549 q 404 576 436 576 q 304 546 348 576 q 236 463 260 517 q 212 340 212 410 q 235 217 212 270 q 302 134 259 163 q 399 105 345 105 q 545 166 473 105 l 608 70 q 524 15 570 37 q 430 -12 477 -6 l 406 -66 q 465 -102 443 -79 q 487 -166 487 -126 q 425 -260 487 -227 q 269 -300 363 -293 z "},"ĉ":{"ha":639,"x_min":58,"x_max":602,"o":"m 524 526 q 401 576 465 576 q 302 548 345 576 q 234 467 258 519 q 210 341 210 414 q 234 216 210 269 q 299 134 257 162 q 397 105 342 105 q 540 160 474 105 l 602 64 q 499 3 556 24 q 382 -17 442 -17 q 216 24 289 -17 q 100 147 142 66 q 58 341 58 228 q 104 535 58 454 q 225 656 149 615 q 394 697 302 697 q 507 676 456 697 q 595 619 558 655 l 524 526 m 485 797 l 399 916 l 393 916 l 308 797 l 204 797 l 336 997 l 456 997 l 589 797 l 485 797 z "},"ċ":{"ha":639,"x_min":58,"x_max":602,"o":"m 524 526 q 401 576 465 576 q 302 548 345 576 q 234 467 258 519 q 210 341 210 414 q 234 216 210 269 q 299 134 257 162 q 397 105 342 105 q 540 160 474 105 l 602 64 q 499 3 556 24 q 382 -17 442 -17 q 216 24 289 -17 q 100 147 142 66 q 58 341 58 228 q 104 535 58 454 q 225 656 149 615 q 394 697 302 697 q 507 676 456 697 q 595 619 558 655 l 524 526 m 486 892 q 460 829 486 854 q 396 805 435 805 q 332 829 357 805 q 307 892 307 854 q 332 955 307 930 q 396 979 357 979 q 460 955 435 979 q 486 892 486 930 z "},"d":{"ha":781,"x_min":61,"x_max":675,"o":"m 526 733 l 526 983 l 675 983 l 675 0 l 553 0 l 542 75 l 538 75 q 445 8 496 34 q 341 -17 394 -17 q 193 24 256 -17 q 96 146 130 66 q 61 340 61 227 q 100 531 61 450 q 206 654 140 612 q 351 697 273 697 q 447 679 406 697 q 533 621 488 660 l 526 733 m 526 513 q 455 560 491 546 q 381 574 420 574 q 295 547 333 574 q 235 468 256 520 q 213 342 213 415 q 255 166 213 226 q 377 106 296 106 q 455 126 419 106 q 526 188 491 146 l 526 513 z "},"ð":{"ha":765,"x_min":68,"x_max":686,"o":"m 376 -17 q 223 24 294 -17 q 110 139 153 64 q 68 312 68 214 q 106 476 68 406 q 209 586 144 547 q 352 625 274 625 q 447 605 403 625 q 524 546 492 585 q 471 675 505 617 q 387 782 437 733 l 191 682 l 150 751 l 320 838 q 176 928 259 882 l 243 1019 q 435 896 354 960 l 632 997 l 673 927 l 498 838 q 637 631 587 748 q 686 361 686 515 q 648 165 686 251 q 539 31 610 79 q 376 -17 469 -17 m 378 512 q 287 487 326 512 q 227 417 248 463 q 205 312 205 372 q 229 203 205 250 q 292 131 252 156 q 380 105 332 105 q 503 171 459 105 q 546 355 546 237 q 544 426 546 393 q 466 493 507 474 q 378 512 425 512 z "},"ď":{"ha":818,"x_min":61,"x_max":850,"o":"m 847 944 l 823 730 l 755 730 l 749 1030 l 850 1030 l 847 944 m 526 733 l 526 983 l 675 983 l 675 0 l 553 0 l 542 75 l 538 75 q 445 8 496 34 q 341 -17 394 -17 q 193 24 256 -17 q 96 146 130 66 q 61 340 61 227 q 100 531 61 450 q 206 654 140 612 q 351 697 273 697 q 447 679 406 697 q 533 621 488 660 l 526 733 m 526 513 q 455 560 491 546 q 381 574 420 574 q 295 547 333 574 q 235 468 256 520 q 213 342 213 415 q 255 166 213 226 q 377 106 296 106 q 455 126 419 106 q 526 188 491 146 l 526 513 z "},"đ":{"ha":781,"x_min":61,"x_max":773,"o":"m 550 0 l 541 71 l 536 71 q 445 7 495 31 q 341 -17 395 -17 q 193 23 256 -17 q 96 141 130 64 q 61 326 61 218 q 101 506 61 427 q 209 627 142 584 q 351 669 275 669 q 447 651 406 669 q 533 593 488 632 l 526 705 l 526 785 l 309 785 l 309 864 l 526 864 l 526 983 l 675 983 l 675 864 l 773 864 l 773 793 l 675 785 l 675 0 l 550 0 m 214 328 q 256 163 214 220 q 377 106 299 106 q 455 126 419 106 q 526 188 491 146 l 526 486 q 455 532 491 518 q 381 547 420 547 q 297 520 335 547 q 236 444 258 493 q 214 328 214 394 z "},"e":{"ha":701,"x_min":58,"x_max":648,"o":"m 643 304 l 203 304 q 266 153 210 205 q 411 100 322 100 q 494 111 455 100 q 571 145 534 122 l 621 52 q 514 1 572 20 q 391 -17 456 -17 q 221 25 297 -17 q 102 149 146 68 q 58 340 58 229 q 101 531 58 450 q 214 655 143 612 q 369 697 285 697 q 577 611 507 697 q 648 375 648 526 q 643 304 648 336 m 202 398 l 520 398 q 372 582 520 582 q 258 535 304 582 q 202 398 212 488 z "},"é":{"ha":701,"x_min":58,"x_max":648,"o":"m 643 304 l 203 304 q 266 153 210 205 q 411 100 322 100 q 494 111 455 100 q 571 145 534 122 l 621 52 q 514 1 572 20 q 391 -17 456 -17 q 221 25 297 -17 q 102 149 146 68 q 58 340 58 229 q 101 531 58 450 q 214 655 143 612 q 369 697 285 697 q 577 611 507 697 q 648 375 648 526 q 643 304 648 336 m 202 398 l 520 398 q 372 582 520 582 q 258 535 304 582 q 202 398 212 488 m 581 997 l 418 797 l 307 797 l 432 997 l 581 997 z "},"ĕ":{"ha":701,"x_min":58,"x_max":648,"o":"m 643 304 l 203 304 q 266 153 210 205 q 411 100 322 100 q 494 111 455 100 q 571 145 534 122 l 621 52 q 514 1 572 20 q 391 -17 456 -17 q 221 25 297 -17 q 102 149 146 68 q 58 340 58 229 q 101 531 58 450 q 214 655 143 612 q 369 697 285 697 q 577 611 507 697 q 648 375 648 526 q 643 304 648 336 m 202 398 l 520 398 q 372 582 520 582 q 258 535 304 582 q 202 398 212 488 m 448 981 l 536 981 q 512 892 533 933 q 452 824 492 850 q 353 798 412 798 q 255 824 295 798 q 195 892 215 850 q 172 981 174 933 l 258 981 q 288 912 264 939 q 353 885 312 885 q 419 912 395 885 q 448 981 443 939 z "},"ě":{"ha":701,"x_min":58,"x_max":648,"o":"m 643 304 l 203 304 q 266 153 210 205 q 411 100 322 100 q 494 111 455 100 q 571 145 534 122 l 621 52 q 514 1 572 20 q 391 -17 456 -17 q 221 25 297 -17 q 102 149 146 68 q 58 340 58 229 q 101 531 58 450 q 214 655 143 612 q 369 697 285 697 q 577 611 507 697 q 648 375 648 526 q 643 304 648 336 m 202 398 l 520 398 q 372 582 520 582 q 258 535 304 582 q 202 398 212 488 m 356 876 l 442 997 l 546 997 l 414 797 l 293 797 l 161 997 l 265 997 l 351 876 l 356 876 z "},"ê":{"ha":701,"x_min":58,"x_max":648,"o":"m 643 304 l 203 304 q 266 153 210 205 q 411 100 322 100 q 494 111 455 100 q 571 145 534 122 l 621 52 q 514 1 572 20 q 391 -17 456 -17 q 221 25 297 -17 q 102 149 146 68 q 58 340 58 229 q 101 531 58 450 q 214 655 143 612 q 369 697 285 697 q 577 611 507 697 q 648 375 648 526 q 643 304 648 336 m 202 398 l 520 398 q 372 582 520 582 q 258 535 304 582 q 202 398 212 488 m 442 797 l 356 916 l 351 916 l 265 797 l 161 797 l 293 997 l 414 997 l 546 797 l 442 797 z "},"ë":{"ha":701,"x_min":58,"x_max":648,"o":"m 643 304 l 203 304 q 266 153 210 205 q 411 100 322 100 q 494 111 455 100 q 571 145 534 122 l 621 52 q 514 1 572 20 q 391 -17 456 -17 q 221 25 297 -17 q 102 149 146 68 q 58 340 58 229 q 101 531 58 450 q 214 655 143 612 q 369 697 285 697 q 577 611 507 697 q 648 375 648 526 q 643 304 648 336 m 202 398 l 520 398 q 372 582 520 582 q 258 535 304 582 q 202 398 212 488 m 306 887 q 284 830 306 852 q 227 808 262 808 q 171 830 193 808 q 149 887 149 852 q 171 943 149 921 q 227 966 193 966 q 284 943 262 966 q 306 887 306 921 m 559 887 q 537 830 559 852 q 480 808 515 808 q 424 830 446 808 q 401 887 401 852 q 424 943 401 921 q 480 966 446 966 q 537 943 515 966 q 559 887 559 921 z "},"ė":{"ha":701,"x_min":58,"x_max":648,"o":"m 643 304 l 203 304 q 266 153 210 205 q 411 100 322 100 q 494 111 455 100 q 571 145 534 122 l 621 52 q 514 1 572 20 q 391 -17 456 -17 q 221 25 297 -17 q 102 149 146 68 q 58 340 58 229 q 101 531 58 450 q 214 655 143 612 q 369 697 285 697 q 577 611 507 697 q 648 375 648 526 q 643 304 648 336 m 202 398 l 520 398 q 372 582 520 582 q 258 535 304 582 q 202 398 212 488 m 443 892 q 417 829 443 854 q 353 805 392 805 q 289 829 315 805 q 264 892 264 854 q 289 955 264 930 q 353 979 315 979 q 417 955 392 979 q 443 892 443 930 z "},"è":{"ha":701,"x_min":58,"x_max":648,"o":"m 643 304 l 203 304 q 266 153 210 205 q 411 100 322 100 q 494 111 455 100 q 571 145 534 122 l 621 52 q 514 1 572 20 q 391 -17 456 -17 q 221 25 297 -17 q 102 149 146 68 q 58 340 58 229 q 101 531 58 450 q 214 655 143 612 q 369 697 285 697 q 577 611 507 697 q 648 375 648 526 q 643 304 648 336 m 202 398 l 520 398 q 372 582 520 582 q 258 535 304 582 q 202 398 212 488 m 295 797 l 132 997 l 281 997 l 406 797 l 295 797 z "},"ē":{"ha":701,"x_min":58,"x_max":648,"o":"m 643 304 l 203 304 q 266 153 210 205 q 411 100 322 100 q 494 111 455 100 q 571 145 534 122 l 621 52 q 514 1 572 20 q 391 -17 456 -17 q 221 25 297 -17 q 102 149 146 68 q 58 340 58 229 q 101 531 58 450 q 214 655 143 612 q 369 697 285 697 q 577 611 507 697 q 648 375 648 526 q 643 304 648 336 m 202 398 l 520 398 q 372 582 520 582 q 258 535 304 582 q 202 398 212 488 m 175 830 l 175 928 l 532 928 l 532 830 l 175 830 z "},"ę":{"ha":701,"x_min":58,"x_max":648,"o":"m 643 304 l 203 304 q 236 194 209 239 q 309 124 264 148 q 411 100 353 100 q 572 149 492 100 l 623 56 q 530 -19 563 14 q 483 -78 496 -51 q 470 -135 470 -105 q 488 -179 470 -164 q 533 -195 506 -195 q 586 -178 558 -195 l 620 -248 q 563 -277 597 -265 q 499 -288 528 -288 q 404 -257 441 -288 q 367 -167 367 -225 q 391 -79 367 -120 q 448 -9 416 -37 q 391 -17 425 -17 q 222 26 298 -17 q 102 150 146 69 q 58 340 58 231 q 102 528 58 446 q 218 653 146 609 q 370 697 290 697 q 522 657 459 697 q 616 544 584 616 q 648 375 648 471 q 643 304 648 336 m 202 398 l 520 398 q 483 534 520 486 q 373 582 446 582 q 295 561 331 582 q 234 498 258 539 q 202 398 209 456 z "},"f":{"ha":431,"x_min":38,"x_max":471,"o":"m 279 764 l 279 680 l 414 680 l 414 562 l 279 562 l 279 0 l 130 0 l 130 562 l 38 562 l 38 673 l 130 680 l 130 762 q 184 936 130 873 q 349 1000 237 1000 q 471 977 410 1000 l 441 865 q 367 881 401 881 q 301 852 323 881 q 279 764 279 823 z "},"g":{"ha":716,"x_min":57,"x_max":698,"o":"m 170 270 l 170 275 q 105 352 131 305 q 79 456 79 398 q 115 588 79 534 q 210 670 150 642 q 345 697 271 697 q 446 680 400 697 l 686 680 l 686 574 l 558 574 q 590 521 578 553 q 602 452 602 489 q 569 324 602 376 q 478 245 536 271 q 345 218 420 218 q 251 238 298 218 q 223 209 231 220 q 215 174 215 197 q 241 126 215 142 q 328 109 267 109 l 460 109 q 640 66 581 109 q 698 -66 698 22 q 655 -186 698 -132 q 530 -273 612 -241 q 339 -304 449 -304 q 131 -259 205 -304 q 57 -125 57 -213 q 83 -36 57 -79 q 155 36 109 8 l 155 41 q 110 85 126 60 q 94 149 94 111 q 115 217 94 186 q 170 270 136 248 m 220 456 q 237 378 220 410 q 282 329 254 346 q 345 313 310 313 q 409 329 380 313 q 453 377 437 345 q 470 456 470 410 q 436 558 470 524 q 345 593 403 593 q 254 558 288 593 q 220 456 220 524 m 431 0 l 331 0 q 240 9 277 0 q 197 -40 211 -12 q 184 -103 184 -68 q 230 -179 184 -152 q 362 -205 277 -205 q 464 -190 420 -205 q 531 -147 507 -174 q 555 -89 555 -120 q 523 -23 555 -47 q 431 0 490 0 z "},"ğ":{"ha":716,"x_min":57,"x_max":698,"o":"m 170 270 l 170 275 q 105 352 131 305 q 79 456 79 398 q 115 588 79 534 q 210 670 150 642 q 345 697 271 697 q 446 680 400 697 l 686 680 l 686 574 l 558 574 q 590 521 578 553 q 602 452 602 489 q 569 324 602 376 q 478 245 536 271 q 345 218 420 218 q 251 238 298 218 q 223 209 231 220 q 215 174 215 197 q 241 126 215 142 q 328 109 267 109 l 460 109 q 640 66 581 109 q 698 -66 698 22 q 655 -186 698 -132 q 530 -273 612 -241 q 339 -304 449 -304 q 131 -259 205 -304 q 57 -125 57 -213 q 83 -36 57 -79 q 155 36 109 8 l 155 41 q 110 85 126 60 q 94 149 94 111 q 115 217 94 186 q 170 270 136 248 m 220 456 q 237 378 220 410 q 282 329 254 346 q 345 313 310 313 q 409 329 380 313 q 453 377 437 345 q 470 456 470 410 q 436 558 470 524 q 345 593 403 593 q 254 558 288 593 q 220 456 220 524 m 431 0 l 331 0 q 240 9 277 0 q 197 -40 211 -12 q 184 -103 184 -68 q 230 -179 184 -152 q 362 -205 277 -205 q 464 -190 420 -205 q 531 -147 507 -174 q 555 -89 555 -120 q 523 -23 555 -47 q 431 0 490 0 m 472 981 l 559 981 q 536 892 557 933 q 475 824 515 850 q 377 798 435 798 q 279 824 319 798 q 218 892 239 850 q 195 981 198 933 l 282 981 q 312 912 288 939 q 377 885 336 885 q 443 912 418 885 q 472 981 467 939 z "},"ǧ":{"ha":716,"x_min":57,"x_max":698,"o":"m 170 270 l 170 275 q 105 352 131 305 q 79 456 79 398 q 115 588 79 534 q 210 670 150 642 q 345 697 271 697 q 446 680 400 697 l 686 680 l 686 574 l 558 574 q 590 521 578 553 q 602 452 602 489 q 569 324 602 376 q 478 245 536 271 q 345 218 420 218 q 251 238 298 218 q 223 209 231 220 q 215 174 215 197 q 241 126 215 142 q 328 109 267 109 l 460 109 q 640 66 581 109 q 698 -66 698 22 q 655 -186 698 -132 q 530 -273 612 -241 q 339 -304 449 -304 q 131 -259 205 -304 q 57 -125 57 -213 q 83 -36 57 -79 q 155 36 109 8 l 155 41 q 110 85 126 60 q 94 149 94 111 q 115 217 94 186 q 170 270 136 248 m 220 456 q 237 378 220 410 q 282 329 254 346 q 345 313 310 313 q 409 329 380 313 q 453 377 437 345 q 470 456 470 410 q 436 558 470 524 q 345 593 403 593 q 254 558 288 593 q 220 456 220 524 m 431 0 l 331 0 q 240 9 277 0 q 197 -40 211 -12 q 184 -103 184 -68 q 230 -179 184 -152 q 362 -205 277 -205 q 464 -190 420 -205 q 531 -147 507 -174 q 555 -89 555 -120 q 523 -23 555 -47 q 431 0 490 0 m 380 876 l 466 997 l 570 997 l 437 797 l 317 797 l 185 997 l 289 997 l 374 876 l 380 876 z "},"ĝ":{"ha":716,"x_min":57,"x_max":698,"o":"m 170 270 l 170 275 q 105 352 131 305 q 79 456 79 398 q 115 588 79 534 q 210 670 150 642 q 345 697 271 697 q 446 680 400 697 l 686 680 l 686 574 l 558 574 q 590 521 578 553 q 602 452 602 489 q 569 324 602 376 q 478 245 536 271 q 345 218 420 218 q 251 238 298 218 q 223 209 231 220 q 215 174 215 197 q 241 126 215 142 q 328 109 267 109 l 460 109 q 640 66 581 109 q 698 -66 698 22 q 655 -186 698 -132 q 530 -273 612 -241 q 339 -304 449 -304 q 131 -259 205 -304 q 57 -125 57 -213 q 83 -36 57 -79 q 155 36 109 8 l 155 41 q 110 85 126 60 q 94 149 94 111 q 115 217 94 186 q 170 270 136 248 m 220 456 q 237 378 220 410 q 282 329 254 346 q 345 313 310 313 q 409 329 380 313 q 453 377 437 345 q 470 456 470 410 q 436 558 470 524 q 345 593 403 593 q 254 558 288 593 q 220 456 220 524 m 431 0 l 331 0 q 240 9 277 0 q 197 -40 211 -12 q 184 -103 184 -68 q 230 -179 184 -152 q 362 -205 277 -205 q 464 -190 420 -205 q 531 -147 507 -174 q 555 -89 555 -120 q 523 -23 555 -47 q 431 0 490 0 m 466 797 l 380 916 l 374 916 l 289 797 l 185 797 l 317 997 l 437 997 l 570 797 l 466 797 z "},"ġ":{"ha":716,"x_min":57,"x_max":698,"o":"m 170 270 l 170 275 q 105 352 131 305 q 79 456 79 398 q 115 588 79 534 q 210 670 150 642 q 345 697 271 697 q 446 680 400 697 l 686 680 l 686 574 l 558 574 q 590 521 578 553 q 602 452 602 489 q 569 324 602 376 q 478 245 536 271 q 345 218 420 218 q 251 238 298 218 q 223 209 231 220 q 215 174 215 197 q 241 126 215 142 q 328 109 267 109 l 460 109 q 640 66 581 109 q 698 -66 698 22 q 655 -186 698 -132 q 530 -273 612 -241 q 339 -304 449 -304 q 131 -259 205 -304 q 57 -125 57 -213 q 83 -36 57 -79 q 155 36 109 8 l 155 41 q 110 85 126 60 q 94 149 94 111 q 115 217 94 186 q 170 270 136 248 m 220 456 q 237 378 220 410 q 282 329 254 346 q 345 313 310 313 q 409 329 380 313 q 453 377 437 345 q 470 456 470 410 q 436 558 470 524 q 345 593 403 593 q 254 558 288 593 q 220 456 220 524 m 431 0 l 331 0 q 240 9 277 0 q 197 -40 211 -12 q 184 -103 184 -68 q 230 -179 184 -152 q 362 -205 277 -205 q 464 -190 420 -205 q 531 -147 507 -174 q 555 -89 555 -120 q 523 -23 555 -47 q 431 0 490 0 m 467 892 q 441 829 467 854 q 377 805 416 805 q 313 829 338 805 q 288 892 288 854 q 313 955 288 930 q 377 979 338 979 q 441 955 416 979 q 467 892 467 930 z "},"h":{"ha":770,"x_min":105,"x_max":676,"o":"m 247 592 q 351 669 299 642 q 467 697 404 697 q 626 629 575 697 q 676 429 676 562 l 676 0 l 528 0 l 528 410 q 516 503 528 469 q 481 554 505 538 q 416 570 456 570 q 337 549 372 570 q 253 480 301 528 l 253 0 l 105 0 l 105 983 l 253 983 l 253 725 l 247 592 z "},"ħ":{"ha":770,"x_min":5,"x_max":676,"o":"m 676 400 l 676 0 l 528 0 l 528 380 q 501 505 528 467 q 416 542 475 542 q 337 521 372 542 q 253 452 301 500 l 253 0 l 105 0 l 105 785 l 5 785 l 5 857 l 105 863 l 105 983 l 253 983 l 253 864 l 499 864 l 499 785 l 253 785 l 253 697 l 247 564 q 351 642 299 614 q 467 669 404 669 q 676 400 676 669 z "},"ĥ":{"ha":770,"x_min":-30,"x_max":676,"o":"m 247 592 q 351 669 299 642 q 467 697 404 697 q 626 629 575 697 q 676 429 676 562 l 676 0 l 528 0 l 528 410 q 516 503 528 469 q 481 554 505 538 q 416 570 456 570 q 337 549 372 570 q 253 480 301 528 l 253 0 l 105 0 l 105 983 l 253 983 l 253 725 l 247 592 m 388 1039 l 267 1039 l 182 1129 l 176 1129 l 92 1039 l -30 1039 l 104 1200 l 254 1200 l 388 1039 z "},"i":{"ha":357,"x_min":85,"x_max":274,"o":"m 274 891 q 247 829 274 854 q 180 805 220 805 q 112 829 139 805 q 85 891 85 854 q 112 953 85 929 q 180 977 139 977 q 247 953 220 977 q 274 891 274 929 m 105 0 l 105 680 l 253 680 l 253 0 l 105 0 z "},"ı":{"ha":357,"x_min":105,"x_max":253,"o":"m 105 0 l 105 680 l 253 680 l 253 0 l 105 0 z "},"í":{"ha":357,"x_min":105,"x_max":406,"o":"m 105 0 l 105 680 l 253 680 l 253 0 l 105 0 m 406 997 l 244 797 l 133 797 l 258 997 l 406 997 z "},"î":{"ha":357,"x_min":-13,"x_max":372,"o":"m 105 0 l 105 680 l 253 680 l 253 0 l 105 0 m 268 797 l 182 916 l 176 916 l 91 797 l -13 797 l 119 997 l 239 997 l 372 797 l 268 797 z "},"ï":{"ha":357,"x_min":-26,"x_max":385,"o":"m 105 0 l 105 680 l 253 680 l 253 0 l 105 0 m 132 887 q 110 830 132 852 q 53 808 87 808 q -4 830 18 808 q -26 887 -26 852 q -4 943 -26 921 q 53 966 18 966 q 110 943 87 966 q 132 887 132 921 m 385 887 q 362 830 385 852 q 306 808 340 808 q 249 830 271 808 q 227 887 227 852 q 249 943 227 921 q 306 966 271 966 q 362 943 340 966 q 385 887 385 921 z "},"ì":{"ha":357,"x_min":-42,"x_max":253,"o":"m 105 0 l 105 680 l 253 680 l 253 0 l 105 0 m 121 797 l -42 997 l 107 997 l 231 797 l 121 797 z "},"ĳ":{"ha":717,"x_min":85,"x_max":632,"o":"m 274 891 q 247 829 274 854 q 180 805 220 805 q 112 829 139 805 q 85 891 85 854 q 112 953 85 929 q 180 977 139 977 q 247 953 220 977 q 274 891 274 929 m 105 0 l 105 680 l 253 680 l 253 0 l 105 0 m 632 891 q 605 829 632 854 q 539 805 578 805 q 472 829 498 805 q 445 891 445 854 q 471 953 445 929 q 539 977 498 977 q 606 953 579 977 q 632 891 632 929 m 404 -290 q 296 -272 342 -290 l 324 -161 q 385 -172 356 -172 q 447 -142 429 -172 q 464 -50 464 -113 l 464 680 l 612 680 l 612 -48 q 563 -227 612 -163 q 404 -290 515 -290 z "},"ī":{"ha":357,"x_min":1,"x_max":357,"o":"m 105 0 l 105 680 l 253 680 l 253 0 l 105 0 m 1 830 l 1 928 l 357 928 l 357 830 l 1 830 z "},"į":{"ha":357,"x_min":54,"x_max":309,"o":"m 272 891 q 245 829 272 854 q 179 805 218 805 q 112 829 138 805 q 85 891 85 854 q 111 953 85 929 q 179 977 138 977 q 245 953 219 977 q 272 891 272 929 m 159 -135 q 178 -179 159 -164 q 222 -195 196 -195 q 248 -190 235 -195 q 275 -178 260 -186 l 309 -248 q 252 -276 287 -264 q 189 -288 217 -288 q 92 -256 130 -288 q 54 -167 54 -224 q 80 -76 54 -115 q 144 0 105 -36 l 105 0 l 105 680 l 253 680 l 253 0 q 183 -61 208 -26 q 159 -135 159 -97 z "},"ĩ":{"ha":357,"x_min":-28,"x_max":387,"o":"m 105 0 l 105 680 l 253 680 l 253 0 l 105 0 m 307 964 l 387 964 q 350 846 381 889 q 267 803 318 803 q 217 813 240 803 q 163 843 194 823 q 125 864 138 858 q 99 871 112 871 q 68 854 79 871 q 52 802 57 838 l -28 802 q 9 920 -24 877 q 93 964 41 964 q 142 954 120 964 q 197 924 165 944 q 233 904 220 910 q 259 897 246 897 q 290 913 279 897 q 307 964 302 930 z "},"j":{"ha":359,"x_min":-61,"x_max":275,"o":"m 275 891 q 248 829 275 854 q 182 805 221 805 q 114 829 141 805 q 87 891 87 854 q 114 953 87 929 q 182 977 140 977 q 248 953 222 977 q 275 891 275 929 m 47 -290 q -61 -272 -16 -290 l -33 -161 q 27 -172 -1 -172 q 89 -142 72 -172 q 106 -50 106 -113 l 106 680 l 254 680 l 254 -48 q 206 -227 254 -163 q 47 -290 157 -290 z "},"ȷ":{"ha":361,"x_min":-62,"x_max":256,"o":"m -62 -271 l -33 -159 q 27 -169 -1 -169 q 89 -139 71 -169 q 106 -45 106 -109 l 106 681 l 256 681 l 256 -43 q 47 -289 256 -289 q -62 -271 -16 -289 z "},"ĵ":{"ha":361,"x_min":-95,"x_max":290,"o":"m -62 -271 l -33 -159 q 27 -169 -1 -169 q 89 -139 71 -169 q 106 -45 106 -109 l 106 681 l 256 681 l 256 -43 q 47 -289 256 -289 q -62 -271 -16 -289 m 186 797 l 100 916 l 94 916 l 9 797 l -95 797 l 37 997 l 157 997 l 290 797 l 186 797 z "},"k":{"ha":715,"x_min":105,"x_max":705,"o":"m 255 356 l 516 680 l 679 680 l 446 405 l 705 0 l 543 0 l 361 303 l 250 174 l 250 0 l 105 0 l 105 983 l 250 983 l 250 356 l 255 356 z "},"ĸ":{"ha":715,"x_min":105,"x_max":705,"o":"m 257 353 l 516 680 l 679 680 l 451 405 l 705 0 l 543 0 l 361 298 l 253 170 l 253 0 l 105 0 l 105 680 l 253 680 l 253 353 l 257 353 z "},"l":{"ha":370,"x_min":105,"x_max":330,"o":"m 287 105 q 312 108 300 105 l 330 -3 q 251 -17 298 -17 q 139 30 174 -17 q 105 166 105 77 l 105 983 l 253 983 l 253 157 q 263 118 253 130 q 287 105 273 105 z "},"ĺ":{"ha":370,"x_min":93,"x_max":379,"o":"m 287 105 q 312 108 300 105 l 330 -3 q 251 -17 298 -17 q 139 30 174 -17 q 105 166 105 77 l 105 983 l 253 983 l 253 157 q 263 118 253 130 q 287 105 273 105 m 379 1213 l 218 1052 l 93 1052 l 211 1213 l 379 1213 z "},"ľ":{"ha":370,"x_min":105,"x_max":415,"o":"m 287 105 q 312 108 300 105 l 330 -3 q 251 -17 298 -17 q 139 30 174 -17 q 105 166 105 77 l 105 983 l 253 983 l 253 157 q 263 118 253 130 q 287 105 273 105 m 412 977 l 388 763 l 320 763 l 315 1063 l 415 1063 l 412 977 z "},"ŀ":{"ha":370,"x_min":105,"x_max":551,"o":"m 287 105 q 312 108 300 105 l 330 -3 q 251 -17 298 -17 q 139 30 174 -17 q 105 166 105 77 l 105 983 l 253 983 l 253 157 q 263 118 253 130 q 287 105 273 105 m 452 343 q 403 357 425 343 q 367 394 380 370 q 354 446 354 417 q 367 499 354 475 q 402 536 380 523 q 452 549 425 549 q 502 536 479 549 q 538 499 525 523 q 551 446 551 475 q 537 394 551 417 q 502 357 524 370 q 452 343 479 343 z "},"ł":{"ha":386,"x_min":28,"x_max":357,"o":"m 321 108 l 340 -3 q 260 -17 304 -17 q 149 30 183 -17 q 114 166 114 77 l 114 431 l 28 377 l 28 499 l 114 553 l 114 983 l 263 983 l 263 629 l 357 688 l 357 566 l 263 507 l 263 157 q 273 118 263 130 q 296 105 283 105 q 321 108 309 105 z "},"m":{"ha":1166,"x_min":105,"x_max":1069,"o":"m 243 587 q 343 668 292 638 q 454 697 395 697 q 574 668 531 697 q 640 575 618 638 q 748 666 695 634 q 860 697 800 697 q 1018 630 968 697 q 1069 430 1069 562 l 1069 0 l 921 0 l 921 410 q 910 504 921 469 q 875 554 899 538 q 811 570 851 570 q 740 548 777 570 q 661 482 703 527 l 661 0 l 513 0 l 513 413 q 502 506 513 472 q 467 555 491 540 q 403 570 444 570 q 253 480 336 570 l 253 0 l 105 0 l 105 680 l 227 680 l 238 587 l 243 587 z "},"n":{"ha":772,"x_min":105,"x_max":676,"o":"m 243 587 q 349 668 296 639 q 467 697 402 697 q 626 630 576 697 q 676 430 676 563 l 676 0 l 528 0 l 528 410 q 517 504 528 469 q 482 554 506 538 q 416 570 458 570 q 337 549 372 570 q 253 480 301 528 l 253 0 l 105 0 l 105 680 l 227 680 l 238 587 l 243 587 z "},"ń":{"ha":772,"x_min":105,"x_max":676,"o":"m 243 587 q 349 668 296 639 q 467 697 402 697 q 626 630 576 697 q 676 430 676 563 l 676 0 l 528 0 l 528 410 q 517 504 528 469 q 482 554 506 538 q 416 570 458 570 q 337 549 372 570 q 253 480 301 528 l 253 0 l 105 0 l 105 680 l 227 680 l 238 587 l 243 587 m 632 997 l 470 797 l 359 797 l 484 997 l 632 997 z "},"ŉ":{"ha":772,"x_min":-28,"x_max":676,"o":"m 243 587 q 349 668 296 639 q 467 697 402 697 q 626 630 576 697 q 676 430 676 563 l 676 0 l 528 0 l 528 410 q 517 504 528 469 q 482 554 506 538 q 416 570 458 570 q 337 549 372 570 q 253 480 301 528 l 253 0 l 105 0 l 105 680 l 227 680 l 238 587 l 243 587 m 97 987 q 27 1012 56 987 q -1 1080 -1 1037 q 28 1148 -1 1122 q 100 1174 57 1174 q 184 1133 154 1174 q 214 1017 214 1091 q 189 893 214 951 q 117 790 164 834 q 5 722 71 745 l -28 805 q 73 881 37 831 q 110 988 110 931 q 97 987 105 987 z "},"ň":{"ha":772,"x_min":105,"x_max":676,"o":"m 243 587 q 349 668 296 639 q 467 697 402 697 q 626 630 576 697 q 676 430 676 563 l 676 0 l 528 0 l 528 410 q 517 504 528 469 q 482 554 506 538 q 416 570 458 570 q 337 549 372 570 q 253 480 301 528 l 253 0 l 105 0 l 105 680 l 227 680 l 238 587 l 243 587 m 408 876 l 494 997 l 597 997 l 465 797 l 345 797 l 213 997 l 317 997 l 402 876 l 408 876 z "},"ñ":{"ha":772,"x_min":105,"x_max":676,"o":"m 243 587 q 349 668 296 639 q 467 697 402 697 q 626 630 576 697 q 676 430 676 563 l 676 0 l 528 0 l 528 410 q 517 504 528 469 q 482 554 506 538 q 416 570 458 570 q 337 549 372 570 q 253 480 301 528 l 253 0 l 105 0 l 105 680 l 227 680 l 238 587 l 243 587 m 532 964 l 612 964 q 575 846 607 889 q 492 803 544 803 q 443 813 466 803 q 389 843 420 823 q 351 864 364 858 q 325 871 338 871 q 294 854 305 871 q 278 802 283 838 l 197 802 q 235 920 202 877 q 319 964 267 964 q 368 954 346 964 q 422 924 391 944 q 459 904 446 910 q 485 897 472 897 q 516 913 505 897 q 532 964 528 930 z "},"o":{"ha":760,"x_min":59,"x_max":701,"o":"m 380 -17 q 219 25 292 -17 q 102 149 146 68 q 59 340 59 230 q 102 532 59 452 q 219 655 146 613 q 380 697 292 697 q 541 655 467 697 q 657 532 614 613 q 701 340 701 452 q 657 149 701 230 q 541 25 614 68 q 380 -17 467 -17 m 380 576 q 290 547 328 576 q 232 465 252 518 q 212 340 212 412 q 232 216 212 269 q 290 134 252 163 q 380 105 328 105 q 471 134 433 105 q 529 216 509 163 q 549 340 549 269 q 529 465 549 412 q 471 547 509 518 q 380 576 433 576 z "},"ó":{"ha":760,"x_min":59,"x_max":701,"o":"m 380 -17 q 219 25 292 -17 q 102 149 146 68 q 59 340 59 230 q 102 532 59 452 q 219 655 146 613 q 380 697 292 697 q 541 655 467 697 q 657 532 614 613 q 701 340 701 452 q 657 149 701 230 q 541 25 614 68 q 380 -17 467 -17 m 380 576 q 290 547 328 576 q 232 465 252 518 q 212 340 212 412 q 232 216 212 269 q 290 134 252 163 q 380 105 328 105 q 471 134 433 105 q 529 216 509 163 q 549 340 549 269 q 529 465 549 412 q 471 547 509 518 q 380 576 433 576 m 607 997 l 445 797 l 334 797 l 458 997 l 607 997 z "},"ô":{"ha":760,"x_min":59,"x_max":701,"o":"m 380 -17 q 219 25 292 -17 q 102 149 146 68 q 59 340 59 230 q 102 532 59 452 q 219 655 146 613 q 380 697 292 697 q 541 655 467 697 q 657 532 614 613 q 701 340 701 452 q 657 149 701 230 q 541 25 614 68 q 380 -17 467 -17 m 380 576 q 290 547 328 576 q 232 465 252 518 q 212 340 212 412 q 232 216 212 269 q 290 134 252 163 q 380 105 328 105 q 471 134 433 105 q 529 216 509 163 q 549 340 549 269 q 529 465 549 412 q 471 547 509 518 q 380 576 433 576 m 469 797 l 382 916 l 377 916 l 292 797 l 188 797 l 319 997 l 440 997 l 572 797 l 469 797 z "},"ö":{"ha":760,"x_min":59,"x_max":701,"o":"m 380 -17 q 219 25 292 -17 q 102 149 146 68 q 59 340 59 230 q 102 532 59 452 q 219 655 146 613 q 380 697 292 697 q 541 655 467 697 q 657 532 614 613 q 701 340 701 452 q 657 149 701 230 q 541 25 614 68 q 380 -17 467 -17 m 380 576 q 290 547 328 576 q 232 465 252 518 q 212 340 212 412 q 232 216 212 269 q 290 134 252 163 q 380 105 328 105 q 471 134 433 105 q 529 216 509 163 q 549 340 549 269 q 529 465 549 412 q 471 547 509 518 q 380 576 433 576 m 332 887 q 310 830 332 852 q 254 808 288 808 q 197 830 219 808 q 175 887 175 852 q 197 943 175 921 q 254 966 219 966 q 310 943 288 966 q 332 887 332 921 m 585 887 q 563 830 585 852 q 507 808 541 808 q 450 830 472 808 q 428 887 428 852 q 450 943 428 921 q 507 966 472 966 q 563 943 541 966 q 585 887 585 921 z "},"ò":{"ha":760,"x_min":59,"x_max":701,"o":"m 380 -17 q 219 25 292 -17 q 102 149 146 68 q 59 340 59 230 q 102 532 59 452 q 219 655 146 613 q 380 697 292 697 q 541 655 467 697 q 657 532 614 613 q 701 340 701 452 q 657 149 701 230 q 541 25 614 68 q 380 -17 467 -17 m 380 576 q 290 547 328 576 q 232 465 252 518 q 212 340 212 412 q 232 216 212 269 q 290 134 252 163 q 380 105 328 105 q 471 134 433 105 q 529 216 509 163 q 549 340 549 269 q 529 465 549 412 q 471 547 509 518 q 380 576 433 576 m 321 797 l 159 997 l 308 997 l 432 797 l 321 797 z "},"ơ":{"ha":760,"x_min":58,"x_max":722,"o":"m 591 615 q 672 497 643 568 q 701 340 701 427 q 657 150 701 231 q 539 26 613 68 q 380 -17 466 -17 q 220 26 294 -17 q 102 150 146 68 q 58 340 58 231 q 102 530 58 449 q 220 654 146 611 q 380 697 294 697 q 511 669 449 697 q 580 698 556 677 q 604 756 604 719 q 583 817 604 785 l 688 865 q 722 766 722 819 q 687 669 722 706 q 591 615 651 633 m 212 340 q 232 216 212 269 q 291 134 253 163 q 380 105 329 105 q 470 134 431 105 q 528 216 508 163 q 549 340 549 269 q 528 464 549 410 q 470 546 508 517 q 380 576 431 576 q 291 546 329 576 q 232 463 253 517 q 212 340 212 410 z "},"ő":{"ha":760,"x_min":59,"x_max":701,"o":"m 380 -17 q 219 25 292 -17 q 102 149 146 68 q 59 340 59 230 q 102 532 59 452 q 219 655 146 613 q 380 697 292 697 q 541 655 467 697 q 657 532 614 613 q 701 340 701 452 q 657 149 701 230 q 541 25 614 68 q 380 -17 467 -17 m 380 576 q 290 547 328 576 q 232 465 252 518 q 212 340 212 412 q 232 216 212 269 q 290 134 252 163 q 380 105 328 105 q 471 134 433 105 q 529 216 509 163 q 549 340 549 269 q 529 465 549 412 q 471 547 509 518 q 380 576 433 576 m 236 794 l 334 997 l 457 997 l 331 794 l 236 794 m 453 794 l 551 997 l 673 997 l 548 794 l 453 794 z "},"ō":{"ha":760,"x_min":59,"x_max":701,"o":"m 380 -17 q 219 25 292 -17 q 102 149 146 68 q 59 340 59 230 q 102 532 59 452 q 219 655 146 613 q 380 697 292 697 q 541 655 467 697 q 657 532 614 613 q 701 340 701 452 q 657 149 701 230 q 541 25 614 68 q 380 -17 467 -17 m 380 576 q 290 547 328 576 q 232 465 252 518 q 212 340 212 412 q 232 216 212 269 q 290 134 252 163 q 380 105 328 105 q 471 134 433 105 q 529 216 509 163 q 549 340 549 269 q 529 465 549 412 q 471 547 509 518 q 380 576 433 576 m 201 830 l 201 928 l 558 928 l 558 830 l 201 830 z "},"ø":{"ha":760,"x_min":58,"x_max":701,"o":"m 380 -17 q 279 -1 328 -17 q 190 47 231 16 l 125 -33 l 64 14 l 135 100 q 78 207 98 147 q 58 340 58 267 q 102 530 58 449 q 220 654 146 611 q 380 697 294 697 q 480 681 431 697 q 570 633 529 665 l 635 714 l 696 667 l 625 580 q 681 473 661 534 q 701 340 701 412 q 657 150 701 231 q 539 26 613 68 q 380 -17 466 -17 m 203 347 q 227 214 203 267 l 490 536 q 380 580 447 580 q 289 551 329 580 q 226 469 248 522 q 203 347 203 416 m 556 332 q 532 467 556 412 l 270 144 q 380 100 315 100 q 471 130 431 100 q 534 211 511 159 q 556 332 556 264 z "},"õ":{"ha":760,"x_min":59,"x_max":701,"o":"m 380 -17 q 219 25 292 -17 q 102 149 146 68 q 59 340 59 230 q 102 532 59 452 q 219 655 146 613 q 380 697 292 697 q 541 655 467 697 q 657 532 614 613 q 701 340 701 452 q 657 149 701 230 q 541 25 614 68 q 380 -17 467 -17 m 380 576 q 290 547 328 576 q 232 465 252 518 q 212 340 212 412 q 232 216 212 269 q 290 134 252 163 q 380 105 328 105 q 471 134 433 105 q 529 216 509 163 q 549 340 549 269 q 529 465 549 412 q 471 547 509 518 q 380 576 433 576 m 507 964 l 587 964 q 550 846 582 889 q 467 803 519 803 q 418 813 441 803 q 364 843 395 823 q 326 864 339 858 q 300 871 313 871 q 269 854 280 871 q 253 802 258 838 l 172 802 q 210 920 177 877 q 294 964 242 964 q 343 954 321 964 q 397 924 366 944 q 434 904 420 910 q 460 897 447 897 q 491 913 479 897 q 507 964 503 930 z "},"œ":{"ha":1156,"x_min":58,"x_max":1105,"o":"m 838 697 q 983 656 922 697 q 1074 542 1043 615 q 1105 372 1105 469 q 1099 300 1105 330 l 673 300 q 703 195 677 240 q 772 126 730 150 q 867 102 815 102 q 946 116 909 102 q 1026 155 984 130 l 1079 56 q 969 3 1029 22 q 848 -17 910 -17 q 713 23 775 -17 q 610 134 650 63 q 368 -17 526 -17 q 213 26 283 -17 q 100 150 142 68 q 58 340 58 231 q 101 531 58 450 q 215 654 143 612 q 372 697 286 697 q 509 658 447 697 q 608 546 571 618 q 709 657 648 617 q 838 697 769 697 m 673 395 l 976 395 q 939 533 976 484 q 833 582 903 582 q 758 559 793 582 q 701 495 724 537 q 673 395 678 452 m 372 576 q 287 546 323 576 q 230 463 250 517 q 210 340 210 410 q 230 217 210 270 q 287 134 250 163 q 372 105 323 105 q 457 134 420 105 q 514 217 494 163 q 534 340 534 270 q 514 463 534 410 q 457 546 494 517 q 372 576 420 576 z "},"p":{"ha":781,"x_min":105,"x_max":718,"o":"m 105 680 l 227 680 l 238 606 l 243 606 q 450 697 348 697 q 596 655 536 697 q 687 535 656 613 q 718 349 718 457 q 679 153 718 236 q 572 26 639 70 q 427 -17 506 -17 q 249 59 339 -17 l 253 -56 l 253 -274 l 105 -274 l 105 680 m 409 574 q 334 554 372 574 q 253 493 297 534 l 253 167 q 326 121 290 135 q 396 106 362 106 q 484 134 446 106 q 544 216 522 162 q 565 349 565 271 q 528 517 565 459 q 409 574 491 574 z "},"þ":{"ha":781,"x_min":105,"x_max":718,"o":"m 253 983 l 253 725 l 250 617 q 345 675 296 654 q 443 697 394 697 q 592 655 530 697 q 686 534 654 612 q 718 351 718 456 q 678 155 718 239 q 571 27 638 72 q 427 -17 505 -17 q 337 1 380 -17 q 250 55 294 20 l 253 -56 l 253 -274 l 105 -274 l 105 983 l 253 983 m 410 574 q 335 554 372 574 q 253 493 297 534 l 253 167 q 327 121 290 136 q 397 106 364 106 q 484 135 446 106 q 543 218 522 163 q 565 349 565 273 q 410 574 565 574 z "},"q":{"ha":775,"x_min":61,"x_max":675,"o":"m 545 614 l 558 680 l 675 680 l 675 -274 l 526 -274 l 526 -45 l 533 69 q 443 7 491 31 q 342 -17 394 -17 q 192 24 255 -17 q 95 145 129 66 q 61 338 61 225 q 101 529 61 448 q 208 654 141 610 q 352 697 274 697 q 452 677 409 697 q 541 614 494 658 l 545 614 m 526 513 q 456 560 491 546 q 382 574 421 574 q 297 546 335 574 q 236 465 258 518 q 214 340 214 412 q 256 165 214 224 q 378 106 298 106 q 456 126 420 106 q 526 188 491 146 l 526 513 z "},"r":{"ha":509,"x_min":105,"x_max":512,"o":"m 243 559 q 330 661 279 624 q 436 697 380 697 q 478 694 460 697 q 512 683 496 690 l 486 554 q 451 562 466 559 q 416 565 436 565 q 327 530 371 565 q 253 420 282 494 l 253 0 l 105 0 l 105 680 l 227 680 l 238 559 l 243 559 z "},"ŕ":{"ha":509,"x_min":105,"x_max":536,"o":"m 243 559 q 330 661 279 624 q 436 697 380 697 q 478 694 460 697 q 512 683 496 690 l 486 554 q 451 562 466 559 q 416 565 436 565 q 327 530 371 565 q 253 420 282 494 l 253 0 l 105 0 l 105 680 l 227 680 l 238 559 l 243 559 m 536 997 l 374 797 l 262 797 l 387 997 l 536 997 z "},"ř":{"ha":509,"x_min":105,"x_max":512,"o":"m 243 559 q 330 661 279 624 q 436 697 380 697 q 478 694 460 697 q 512 683 496 690 l 486 554 q 451 562 466 559 q 416 565 436 565 q 327 530 371 565 q 253 420 282 494 l 253 0 l 105 0 l 105 680 l 227 680 l 238 559 l 243 559 m 311 876 l 397 997 l 501 997 l 369 797 l 248 797 l 117 997 l 220 997 l 306 876 l 311 876 z "},"s":{"ha":595,"x_min":37,"x_max":553,"o":"m 412 182 q 391 231 412 210 q 342 265 371 252 q 262 298 314 278 q 122 375 176 330 q 68 498 68 421 q 98 601 68 555 q 184 672 128 646 q 313 697 239 697 q 434 675 378 697 q 536 618 490 654 l 467 527 q 393 570 428 556 q 315 585 358 585 q 236 565 262 585 q 210 509 210 545 q 229 463 210 482 q 276 430 248 443 q 354 397 304 417 q 455 353 414 376 q 525 290 496 330 q 553 191 553 250 q 522 85 553 132 q 433 11 492 38 q 292 -17 374 -17 q 156 9 224 -17 q 37 78 88 35 l 107 174 q 201 115 157 135 q 296 96 245 96 q 383 119 354 96 q 412 182 412 142 z "},"ś":{"ha":595,"x_min":37,"x_max":553,"o":"m 412 182 q 391 231 412 210 q 342 265 371 252 q 262 298 314 278 q 122 375 176 330 q 68 498 68 421 q 98 601 68 555 q 184 672 128 646 q 313 697 239 697 q 434 675 378 697 q 536 618 490 654 l 467 527 q 393 570 428 556 q 315 585 358 585 q 236 565 262 585 q 210 509 210 545 q 229 463 210 482 q 276 430 248 443 q 354 397 304 417 q 455 353 414 376 q 525 290 496 330 q 553 191 553 250 q 522 85 553 132 q 433 11 492 38 q 292 -17 374 -17 q 156 9 224 -17 q 37 78 88 35 l 107 174 q 201 115 157 135 q 296 96 245 96 q 383 119 354 96 q 412 182 412 142 m 522 997 l 360 797 l 249 797 l 374 997 l 522 997 z "},"š":{"ha":595,"x_min":37,"x_max":553,"o":"m 412 182 q 391 231 412 210 q 342 265 371 252 q 262 298 314 278 q 122 375 176 330 q 68 498 68 421 q 98 601 68 555 q 184 672 128 646 q 313 697 239 697 q 434 675 378 697 q 536 618 490 654 l 467 527 q 393 570 428 556 q 315 585 358 585 q 236 565 262 585 q 210 509 210 545 q 229 463 210 482 q 276 430 248 443 q 354 397 304 417 q 455 353 414 376 q 525 290 496 330 q 553 191 553 250 q 522 85 553 132 q 433 11 492 38 q 292 -17 374 -17 q 156 9 224 -17 q 37 78 88 35 l 107 174 q 201 115 157 135 q 296 96 245 96 q 383 119 354 96 q 412 182 412 142 m 298 876 l 384 997 l 488 997 l 355 797 l 235 797 l 103 997 l 207 997 l 292 876 l 298 876 z "},"ŝ":{"ha":595,"x_min":37,"x_max":553,"o":"m 412 182 q 391 231 412 210 q 342 265 371 252 q 262 298 314 278 q 122 375 176 330 q 68 498 68 421 q 98 601 68 555 q 184 672 128 646 q 313 697 239 697 q 434 675 378 697 q 536 618 490 654 l 467 527 q 393 570 428 556 q 315 585 358 585 q 236 565 262 585 q 210 509 210 545 q 229 463 210 482 q 276 430 248 443 q 354 397 304 417 q 455 353 414 376 q 525 290 496 330 q 553 191 553 250 q 522 85 553 132 q 433 11 492 38 q 292 -17 374 -17 q 156 9 224 -17 q 37 78 88 35 l 107 174 q 201 115 157 135 q 296 96 245 96 q 383 119 354 96 q 412 182 412 142 m 384 797 l 298 916 l 292 916 l 207 797 l 103 797 l 235 997 l 355 997 l 488 797 l 384 797 z "},"ß":{"ha":830,"x_min":105,"x_max":790,"o":"m 648 783 q 638 719 648 748 q 614 668 628 690 q 578 618 600 647 q 541 563 553 585 q 528 516 528 541 q 541 475 528 492 q 574 444 554 457 q 629 412 594 431 q 712 361 680 385 q 767 297 744 338 q 790 198 790 257 q 762 89 790 138 q 681 11 734 39 q 555 -17 628 -17 q 451 0 499 -17 q 355 50 403 17 l 410 152 q 480 110 446 123 q 551 96 515 96 q 626 123 598 96 q 653 190 653 150 q 637 243 653 220 q 599 280 622 265 q 536 317 576 296 q 460 364 489 343 q 410 417 431 385 q 390 498 390 450 q 405 568 390 538 q 448 637 419 598 q 490 703 476 675 q 503 767 503 731 q 475 847 503 817 q 397 878 448 878 q 290 826 328 878 q 252 679 252 775 l 252 0 l 105 0 l 105 701 q 139 856 105 789 q 238 960 172 923 q 399 997 304 997 q 534 968 477 997 q 619 890 590 939 q 648 783 648 841 z "},"ə":{"ha":701,"x_min":51,"x_max":642,"o":"m 496 384 q 440 530 488 477 q 311 582 392 582 q 226 568 267 582 q 146 528 186 554 l 94 622 q 208 677 147 657 q 335 697 269 697 q 492 654 422 697 q 602 531 562 611 q 642 341 642 450 q 601 152 642 233 q 490 27 560 71 q 336 -17 420 -17 q 183 24 248 -17 q 85 139 119 64 q 51 312 51 213 q 58 384 51 342 l 496 384 m 498 288 l 180 288 q 220 148 180 196 q 333 100 260 100 q 445 148 401 100 q 498 288 488 196 z "},"t":{"ha":493,"x_min":30,"x_max":473,"o":"m 135 680 l 153 867 l 277 867 l 277 680 l 452 680 l 452 562 l 277 562 l 277 224 q 300 132 277 163 q 375 102 324 102 q 447 118 403 102 l 473 8 q 404 -10 436 -3 q 337 -17 372 -17 q 127 224 127 -17 l 127 562 l 30 562 l 30 673 l 135 680 z "},"ŧ":{"ha":493,"x_min":30,"x_max":473,"o":"m 473 8 q 404 -10 436 -3 q 337 -17 372 -17 q 127 224 127 -17 l 127 330 l 31 330 l 31 448 l 127 448 l 127 562 l 30 562 l 30 673 l 135 680 l 153 867 l 277 867 l 277 680 l 452 680 l 452 562 l 277 562 l 277 448 l 454 448 l 454 330 l 277 330 l 277 224 q 300 132 277 163 q 375 102 324 102 q 447 118 403 102 l 473 8 z "},"ť":{"ha":493,"x_min":30,"x_max":473,"o":"m 459 977 l 435 763 l 367 763 l 361 1063 l 462 1063 l 459 977 m 135 680 l 153 867 l 277 867 l 277 680 l 452 680 l 452 562 l 277 562 l 277 224 q 300 132 277 163 q 375 102 324 102 q 447 118 403 102 l 473 8 q 404 -10 436 -3 q 337 -17 372 -17 q 127 224 127 -17 l 127 562 l 30 562 l 30 673 l 135 680 z "},"u":{"ha":768,"x_min":96,"x_max":664,"o":"m 357 111 q 438 133 405 111 q 515 210 472 155 l 515 680 l 664 680 l 664 0 l 542 0 l 530 102 l 526 102 q 425 13 476 43 q 306 -17 374 -17 q 146 51 196 -17 q 96 251 96 118 l 96 680 l 245 680 l 245 271 q 256 177 245 212 q 291 126 267 142 q 357 111 315 111 z "},"ú":{"ha":768,"x_min":96,"x_max":664,"o":"m 357 111 q 438 133 405 111 q 515 210 472 155 l 515 680 l 664 680 l 664 0 l 542 0 l 530 102 l 526 102 q 425 13 476 43 q 306 -17 374 -17 q 146 51 196 -17 q 96 251 96 118 l 96 680 l 245 680 l 245 271 q 256 177 245 212 q 291 126 267 142 q 357 111 315 111 m 607 997 l 445 797 l 334 797 l 458 997 l 607 997 z "},"ŭ":{"ha":768,"x_min":96,"x_max":664,"o":"m 357 111 q 438 133 405 111 q 515 210 472 155 l 515 680 l 664 680 l 664 0 l 542 0 l 530 102 l 526 102 q 425 13 476 43 q 306 -17 374 -17 q 146 51 196 -17 q 96 251 96 118 l 96 680 l 245 680 l 245 271 q 256 177 245 212 q 291 126 267 142 q 357 111 315 111 m 475 981 l 562 981 q 539 892 559 933 q 478 824 518 850 q 380 798 438 798 q 281 824 321 798 q 221 892 241 850 q 198 981 201 933 l 285 981 q 315 912 291 939 q 380 885 338 885 q 445 912 421 885 q 475 981 469 939 z "},"û":{"ha":768,"x_min":96,"x_max":664,"o":"m 357 111 q 438 133 405 111 q 515 210 472 155 l 515 680 l 664 680 l 664 0 l 542 0 l 530 102 l 526 102 q 425 13 476 43 q 306 -17 374 -17 q 146 51 196 -17 q 96 251 96 118 l 96 680 l 245 680 l 245 271 q 256 177 245 212 q 291 126 267 142 q 357 111 315 111 m 469 797 l 382 916 l 377 916 l 292 797 l 188 797 l 319 997 l 440 997 l 572 797 l 469 797 z "},"ü":{"ha":768,"x_min":96,"x_max":664,"o":"m 357 111 q 438 133 405 111 q 515 210 472 155 l 515 680 l 664 680 l 664 0 l 542 0 l 530 102 l 526 102 q 425 13 476 43 q 306 -17 374 -17 q 146 51 196 -17 q 96 251 96 118 l 96 680 l 245 680 l 245 271 q 256 177 245 212 q 291 126 267 142 q 357 111 315 111 m 332 887 q 310 830 332 852 q 254 808 288 808 q 197 830 219 808 q 175 887 175 852 q 197 943 175 921 q 254 966 219 966 q 310 943 288 966 q 332 887 332 921 m 585 887 q 563 830 585 852 q 507 808 541 808 q 450 830 472 808 q 428 887 428 852 q 450 943 428 921 q 507 966 472 966 q 563 943 541 966 q 585 887 585 921 z "},"ù":{"ha":768,"x_min":96,"x_max":664,"o":"m 357 111 q 438 133 405 111 q 515 210 472 155 l 515 680 l 664 680 l 664 0 l 542 0 l 530 102 l 526 102 q 425 13 476 43 q 306 -17 374 -17 q 146 51 196 -17 q 96 251 96 118 l 96 680 l 245 680 l 245 271 q 256 177 245 212 q 291 126 267 142 q 357 111 315 111 m 321 797 l 159 997 l 308 997 l 432 797 l 321 797 z "},"ư":{"ha":768,"x_min":96,"x_max":792,"o":"m 664 630 l 664 0 l 542 0 l 530 102 l 526 102 q 425 13 477 43 q 306 -17 372 -17 q 96 253 96 -17 l 96 680 l 245 680 l 245 272 q 272 148 245 186 q 357 111 298 111 q 437 133 402 111 q 515 210 473 156 l 515 680 l 558 680 q 642 705 611 685 q 673 770 673 724 q 653 831 673 799 l 757 878 q 792 781 792 831 q 756 683 792 720 q 664 630 720 646 z "},"ű":{"ha":768,"x_min":96,"x_max":673,"o":"m 357 111 q 438 133 405 111 q 515 210 472 155 l 515 680 l 664 680 l 664 0 l 542 0 l 530 102 l 526 102 q 425 13 476 43 q 306 -17 374 -17 q 146 51 196 -17 q 96 251 96 118 l 96 680 l 245 680 l 245 271 q 256 177 245 212 q 291 126 267 142 q 357 111 315 111 m 236 794 l 334 997 l 457 997 l 331 794 l 236 794 m 453 794 l 551 997 l 673 997 l 548 794 l 453 794 z "},"ū":{"ha":768,"x_min":96,"x_max":664,"o":"m 357 111 q 438 133 405 111 q 515 210 472 155 l 515 680 l 664 680 l 664 0 l 542 0 l 530 102 l 526 102 q 425 13 476 43 q 306 -17 374 -17 q 146 51 196 -17 q 96 251 96 118 l 96 680 l 245 680 l 245 271 q 256 177 245 212 q 291 126 267 142 q 357 111 315 111 m 201 830 l 201 928 l 558 928 l 558 830 l 201 830 z "},"ģ":{"ha":716,"x_min":57,"x_max":698,"o":"m 170 270 l 170 275 q 105 352 131 305 q 79 456 79 398 q 115 588 79 534 q 210 670 150 642 q 345 697 271 697 q 446 680 400 697 l 686 680 l 686 574 l 558 574 q 590 521 578 553 q 602 452 602 489 q 569 324 602 376 q 478 245 536 271 q 345 218 420 218 q 251 238 298 218 q 223 209 231 220 q 215 174 215 197 q 241 126 215 142 q 328 109 267 109 l 460 109 q 640 66 581 109 q 698 -66 698 22 q 655 -186 698 -132 q 530 -273 612 -241 q 339 -304 449 -304 q 131 -259 205 -304 q 57 -125 57 -213 q 83 -36 57 -79 q 155 36 109 8 l 155 41 q 110 85 126 60 q 94 149 94 111 q 115 217 94 186 q 170 270 136 248 m 220 456 q 237 378 220 410 q 282 329 254 346 q 345 313 310 313 q 409 329 380 313 q 453 377 437 345 q 470 456 470 410 q 436 558 470 524 q 345 593 403 593 q 254 558 288 593 q 220 456 220 524 m 431 0 l 331 0 q 240 9 277 0 q 197 -40 211 -12 q 184 -103 184 -68 q 230 -179 184 -152 q 362 -205 277 -205 q 464 -190 420 -205 q 531 -147 507 -174 q 555 -89 555 -120 q 523 -23 555 -47 q 431 0 490 0 m 465 931 q 345 872 345 918 q 361 836 345 850 q 411 815 378 823 l 381 753 q 268 789 302 763 q 234 864 234 815 q 296 958 234 924 q 452 998 357 991 l 465 931 z "},"ĭ":{"ha":357,"x_min":-3,"x_max":361,"o":"m 105 0 l 105 680 l 253 680 l 253 0 l 105 0 m 274 981 l 361 981 q 338 892 359 933 q 277 824 317 850 q 179 798 237 798 q 81 824 121 798 q 20 892 41 850 q -3 981 0 933 l 84 981 q 114 912 90 939 q 179 885 138 885 q 244 912 220 885 q 274 981 269 939 z "},"ķ":{"ha":715,"x_min":105,"x_max":705,"o":"m 255 356 l 516 680 l 679 680 l 446 405 l 705 0 l 543 0 l 361 303 l 250 174 l 250 0 l 105 0 l 105 983 l 250 983 l 250 356 l 255 356 m 241 -241 q 331 -220 299 -234 q 362 -182 362 -206 q 345 -146 362 -159 q 296 -125 328 -133 l 326 -63 q 439 -99 404 -73 q 473 -174 473 -125 q 412 -268 473 -235 q 255 -307 350 -300 l 241 -241 z "},"ļ":{"ha":370,"x_min":87,"x_max":330,"o":"m 287 105 q 312 108 300 105 l 330 -3 q 251 -17 298 -17 q 139 30 174 -17 q 105 166 105 77 l 105 983 l 253 983 l 253 157 q 263 118 253 130 q 287 105 273 105 m 87 -241 q 176 -220 144 -234 q 208 -182 208 -206 q 191 -146 208 -159 q 141 -125 174 -133 l 172 -63 q 284 -99 250 -73 q 319 -174 319 -125 q 257 -268 319 -235 q 100 -307 195 -300 l 87 -241 z "},"ņ":{"ha":772,"x_min":105,"x_max":676,"o":"m 243 587 q 349 668 296 639 q 467 697 402 697 q 626 630 576 697 q 676 430 676 563 l 676 0 l 528 0 l 528 410 q 517 504 528 469 q 482 554 506 538 q 416 570 458 570 q 337 549 372 570 q 253 480 301 528 l 253 0 l 105 0 l 105 680 l 227 680 l 238 587 l 243 587 m 270 -241 q 359 -220 328 -234 q 391 -182 391 -206 q 374 -146 391 -159 q 324 -125 357 -133 l 355 -63 q 467 -99 433 -73 q 502 -174 502 -125 q 440 -268 502 -235 q 283 -307 378 -300 l 270 -241 z "},"ŏ":{"ha":760,"x_min":59,"x_max":701,"o":"m 380 -17 q 219 25 292 -17 q 102 149 146 68 q 59 340 59 230 q 102 532 59 452 q 219 655 146 613 q 380 697 292 697 q 541 655 467 697 q 657 532 614 613 q 701 340 701 452 q 657 149 701 230 q 541 25 614 68 q 380 -17 467 -17 m 380 576 q 290 547 328 576 q 232 465 252 518 q 212 340 212 412 q 232 216 212 269 q 290 134 252 163 q 380 105 328 105 q 471 134 433 105 q 529 216 509 163 q 549 340 549 269 q 529 465 549 412 q 471 547 509 518 q 380 576 433 576 m 475 981 l 562 981 q 539 892 559 933 q 478 824 518 850 q 380 798 438 798 q 281 824 321 798 q 221 892 241 850 q 198 981 201 933 l 285 981 q 315 912 291 939 q 380 885 338 885 q 445 912 421 885 q 475 981 469 939 z "},"ŗ":{"ha":509,"x_min":57,"x_max":512,"o":"m 57 -241 q 146 -220 115 -234 q 178 -182 178 -206 q 161 -146 178 -159 q 111 -125 144 -133 l 142 -63 q 254 -99 220 -73 q 289 -174 289 -125 q 227 -268 289 -235 q 71 -307 165 -300 l 57 -241 m 243 559 q 330 661 279 624 q 436 697 380 697 q 478 694 460 697 q 512 683 496 690 l 486 554 q 451 562 466 559 q 416 565 436 565 q 327 530 371 565 q 253 420 282 494 l 253 0 l 105 0 l 105 680 l 227 680 l 238 559 l 243 559 z "},"ş":{"ha":595,"x_min":35,"x_max":553,"o":"m 210 503 q 227 462 210 479 q 268 432 243 444 q 336 404 294 420 l 354 397 q 455 353 414 376 q 525 291 496 330 q 553 193 553 252 q 531 101 553 143 q 467 30 509 59 q 364 -10 424 1 l 338 -66 q 398 -102 376 -79 q 420 -166 420 -126 q 358 -260 420 -227 q 202 -300 297 -293 l 190 -233 q 309 -169 309 -219 q 289 -131 309 -146 q 224 -105 269 -116 l 268 -16 q 143 14 204 -12 q 35 78 81 39 l 105 174 q 199 116 154 136 q 296 96 245 96 q 382 120 353 96 q 412 184 412 144 q 391 232 412 212 q 342 266 371 253 q 262 299 314 279 q 166 343 208 319 q 96 406 124 368 q 68 496 68 444 q 98 600 68 554 q 184 671 128 646 q 313 697 239 697 q 536 616 432 697 l 467 525 q 392 569 429 553 q 317 585 355 585 q 237 562 264 585 q 210 503 210 538 z "},"ţ":{"ha":493,"x_min":30,"x_max":473,"o":"m 199 -300 l 186 -233 q 307 -169 307 -219 q 286 -131 307 -146 q 221 -105 266 -116 l 270 -8 q 127 224 127 25 l 127 562 l 30 562 l 30 673 l 135 680 l 153 867 l 277 867 l 277 680 l 452 680 l 452 562 l 277 562 l 277 224 q 300 132 277 163 q 375 102 324 102 q 447 118 403 102 l 473 8 q 387 -13 427 -7 q 359 -16 368 -16 l 336 -66 q 395 -102 374 -79 q 417 -166 417 -126 q 355 -260 417 -227 q 199 -300 294 -293 z "},"ƀ":{"ha":770,"x_min":5,"x_max":718,"o":"m 718 338 q 678 149 718 230 q 571 26 638 68 q 427 -17 505 -17 q 331 5 380 -17 q 239 68 282 28 l 235 68 l 222 0 l 105 0 l 105 785 l 5 785 l 5 857 l 105 863 l 105 983 l 253 983 l 253 864 l 499 864 l 499 785 l 253 785 l 253 697 l 250 582 q 347 646 295 623 q 449 669 398 669 q 594 629 534 669 q 687 513 655 588 q 718 338 718 439 m 565 336 q 410 547 565 547 q 253 466 336 547 l 253 167 q 326 121 289 136 q 397 106 363 106 q 484 133 446 106 q 543 211 522 159 q 565 336 565 263 z "},"ǆ":{"ha":1389,"x_min":61,"x_max":1354,"o":"m 526 733 l 526 983 l 675 983 l 675 0 l 553 0 l 542 75 l 538 75 q 445 8 496 34 q 341 -17 394 -17 q 193 24 256 -17 q 96 146 130 66 q 61 340 61 227 q 100 531 61 450 q 206 654 140 612 q 351 697 273 697 q 447 679 406 697 q 533 621 488 660 l 526 733 m 526 513 q 455 560 491 546 q 381 574 420 574 q 295 547 333 574 q 235 468 256 520 q 213 342 213 415 q 255 166 213 226 q 377 106 296 106 q 455 126 419 106 q 526 188 491 146 l 526 513 m 864 680 l 1344 680 l 1344 601 l 1014 119 l 1354 119 l 1354 0 l 827 0 l 827 79 l 1158 562 l 864 562 l 864 680 m 1093 876 l 1179 997 l 1283 997 l 1151 797 l 1030 797 l 899 997 l 1002 997 l 1088 876 l 1093 876 z "},"ǉ":{"ha":730,"x_min":105,"x_max":645,"o":"m 287 105 q 312 108 300 105 l 330 -3 q 251 -17 298 -17 q 139 30 174 -17 q 105 166 105 77 l 105 983 l 253 983 l 253 157 q 263 118 253 130 q 287 105 273 105 m 645 891 q 618 829 645 854 q 552 805 591 805 q 485 829 511 805 q 458 891 458 854 q 484 953 458 929 q 552 977 511 977 q 618 953 592 977 q 645 891 645 929 m 417 -290 q 309 -272 355 -290 l 337 -161 q 397 -172 369 -172 q 459 -142 442 -172 q 477 -50 477 -113 l 477 680 l 625 680 l 625 -48 q 576 -227 625 -163 q 417 -290 528 -290 z "},"ǌ":{"ha":1132,"x_min":105,"x_max":1047,"o":"m 243 587 q 349 668 296 639 q 467 697 402 697 q 626 630 576 697 q 676 430 676 563 l 676 0 l 528 0 l 528 410 q 517 504 528 469 q 482 554 506 538 q 416 570 458 570 q 337 549 372 570 q 253 480 301 528 l 253 0 l 105 0 l 105 680 l 227 680 l 238 587 l 243 587 m 1047 891 q 1020 829 1047 854 q 954 805 994 805 q 887 829 913 805 q 860 891 860 854 q 886 953 860 929 q 954 977 913 977 q 1021 953 994 977 q 1047 891 1047 929 m 819 -290 q 711 -272 757 -290 l 739 -161 q 800 -172 771 -172 q 862 -142 844 -172 q 879 -50 879 -113 l 879 680 l 1027 680 l 1027 -48 q 978 -227 1027 -163 q 819 -290 930 -290 z "},"ǎ":{"ha":723,"x_min":75,"x_max":628,"o":"m 383 876 l 469 997 l 573 997 l 441 797 l 320 797 l 189 997 l 292 997 l 378 876 l 383 876 m 153 517 l 98 617 q 228 675 155 653 q 378 697 300 697 q 567 624 505 697 q 628 406 628 551 l 628 0 l 506 0 l 494 77 l 490 77 q 424 26 453 45 q 360 -5 395 7 q 282 -17 325 -17 q 173 8 220 -17 q 100 79 126 33 q 75 183 75 124 q 173 359 75 296 q 479 430 271 422 q 451 542 479 507 q 351 576 422 576 q 248 561 298 576 q 153 517 198 545 m 479 340 q 278 296 338 336 q 218 193 218 256 q 247 123 218 146 q 326 100 276 100 q 403 119 368 100 q 479 178 438 138 l 479 340 z "},"ǐ":{"ha":357,"x_min":-12,"x_max":373,"o":"m 183 876 l 269 997 l 373 997 l 241 797 l 120 797 l -12 997 l 92 997 l 178 876 l 183 876 m 105 0 l 105 680 l 253 680 l 253 0 l 105 0 z "},"ǒ":{"ha":760,"x_min":59,"x_max":701,"o":"m 380 -17 q 219 25 292 -17 q 102 149 146 68 q 59 340 59 230 q 102 532 59 452 q 219 655 146 613 q 380 697 292 697 q 541 655 467 697 q 657 532 614 613 q 701 340 701 452 q 657 149 701 230 q 541 25 614 68 q 380 -17 467 -17 m 380 576 q 290 547 328 576 q 232 465 252 518 q 212 340 212 412 q 232 216 212 269 q 290 134 252 163 q 380 105 328 105 q 471 134 433 105 q 529 216 509 163 q 549 340 549 269 q 529 465 549 412 q 471 547 509 518 q 380 576 433 576 m 382 876 l 469 997 l 572 997 l 440 797 l 319 797 l 188 997 l 292 997 l 377 876 l 382 876 z "},"ǔ":{"ha":768,"x_min":96,"x_max":664,"o":"m 389 876 l 475 997 l 578 997 l 446 797 l 326 797 l 194 997 l 298 997 l 383 876 l 389 876 m 357 111 q 438 133 405 111 q 515 210 472 155 l 515 680 l 664 680 l 664 0 l 542 0 l 530 102 l 526 102 q 425 13 476 43 q 306 -17 374 -17 q 146 51 196 -17 q 96 251 96 118 l 96 680 l 245 680 l 245 271 q 256 177 245 212 q 291 126 267 142 q 357 111 315 111 z "},"ǖ":{"ha":768,"x_min":96,"x_max":664,"o":"m 208 1045 l 208 1122 l 566 1122 l 566 1045 l 208 1045 m 332 878 q 312 828 332 848 q 261 808 292 808 q 209 828 230 808 q 189 878 189 848 q 209 930 189 909 q 261 951 230 951 q 312 930 292 951 q 332 878 332 909 m 586 878 q 565 828 586 848 q 513 808 545 808 q 463 828 483 808 q 442 878 442 848 q 462 930 442 909 q 513 951 482 951 q 565 930 545 951 q 586 878 586 909 m 357 111 q 438 133 405 111 q 515 210 472 155 l 515 680 l 664 680 l 664 0 l 542 0 l 530 102 l 526 102 q 425 13 476 43 q 306 -17 374 -17 q 146 51 196 -17 q 96 251 96 118 l 96 680 l 245 680 l 245 271 q 256 177 245 212 q 291 126 267 142 q 357 111 315 111 z "},"ǘ":{"ha":768,"x_min":96,"x_max":664,"o":"m 357 111 q 438 133 405 111 q 515 210 472 155 l 515 680 l 664 680 l 664 0 l 542 0 l 530 102 l 526 102 q 425 13 476 43 q 306 -17 374 -17 q 146 51 196 -17 q 96 251 96 118 l 96 680 l 245 680 l 245 271 q 256 177 245 212 q 291 126 267 142 q 357 111 315 111 m 304 1009 l 418 1156 l 553 1156 l 403 1009 l 304 1009 m 330 878 q 310 828 330 848 q 259 808 290 808 q 207 828 228 808 q 186 878 186 848 q 207 930 186 909 q 259 951 228 951 q 310 930 290 951 q 330 878 330 909 m 584 878 q 563 828 584 848 q 511 808 543 808 q 460 828 481 808 q 440 878 440 848 q 460 930 440 909 q 511 951 480 951 q 563 930 543 951 q 584 878 584 909 z "},"ǚ":{"ha":768,"x_min":96,"x_max":664,"o":"m 357 111 q 438 133 405 111 q 515 210 472 155 l 515 680 l 664 680 l 664 0 l 542 0 l 530 102 l 526 102 q 425 13 476 43 q 306 -17 374 -17 q 146 51 196 -17 q 96 251 96 118 l 96 680 l 245 680 l 245 271 q 256 177 245 212 q 291 126 267 142 q 357 111 315 111 m 389 1070 l 467 1156 l 572 1156 l 449 1009 l 323 1009 l 199 1156 l 304 1156 l 383 1070 l 389 1070 m 331 878 q 311 828 331 848 q 260 808 290 808 q 208 828 229 808 q 187 878 187 848 q 208 930 187 909 q 260 951 229 951 q 311 930 291 951 q 331 878 331 909 m 585 878 q 564 828 585 848 q 512 808 543 808 q 461 828 481 808 q 441 878 441 848 q 461 930 441 909 q 512 951 481 951 q 564 930 543 951 q 585 878 585 909 z "},"ǜ":{"ha":768,"x_min":96,"x_max":664,"o":"m 357 111 q 438 133 405 111 q 515 210 472 155 l 515 680 l 664 680 l 664 0 l 542 0 l 530 102 l 526 102 q 425 13 476 43 q 306 -17 374 -17 q 146 51 196 -17 q 96 251 96 118 l 96 680 l 245 680 l 245 271 q 256 177 245 212 q 291 126 267 142 q 357 111 315 111 m 354 1156 l 468 1009 l 369 1009 l 219 1156 l 354 1156 m 332 878 q 311 828 332 848 q 260 808 291 808 q 209 828 229 808 q 188 878 188 848 q 209 930 188 909 q 260 951 229 951 q 312 930 292 951 q 332 878 332 909 m 585 878 q 565 828 585 848 q 513 808 544 808 q 462 828 482 808 q 441 878 441 848 q 461 930 441 909 q 513 951 481 951 q 565 930 544 951 q 585 878 585 909 z "},"ǫ":{"ha":760,"x_min":58,"x_max":701,"o":"m 380 697 q 539 654 466 697 q 657 530 613 611 q 701 340 701 449 q 644 127 701 208 q 479 -3 587 46 q 408 -61 433 -25 q 382 -135 382 -98 q 400 -179 382 -164 q 444 -195 418 -195 q 498 -178 468 -195 l 532 -248 q 475 -276 510 -264 q 411 -288 440 -288 q 315 -256 353 -288 q 277 -167 277 -224 q 301 -80 277 -120 q 355 -15 325 -40 q 205 36 273 -8 q 98 159 138 81 q 58 340 58 237 q 102 530 58 449 q 220 654 146 611 q 380 697 294 697 m 380 576 q 291 546 329 576 q 232 463 253 517 q 212 340 212 410 q 232 216 212 269 q 291 134 253 163 q 380 105 329 105 q 470 134 431 105 q 528 216 508 163 q 549 340 549 269 q 528 464 549 410 q 470 546 508 517 q 380 576 431 576 z "},"ǳ":{"ha":1389,"x_min":61,"x_max":1354,"o":"m 526 733 l 526 983 l 675 983 l 675 0 l 553 0 l 542 75 l 538 75 q 445 8 496 34 q 341 -17 394 -17 q 193 24 256 -17 q 96 146 130 66 q 61 340 61 227 q 100 531 61 450 q 206 654 140 612 q 351 697 273 697 q 447 679 406 697 q 533 621 488 660 l 526 733 m 526 513 q 455 560 491 546 q 381 574 420 574 q 295 547 333 574 q 235 468 256 520 q 213 342 213 415 q 255 166 213 226 q 377 106 296 106 q 455 126 419 106 q 526 188 491 146 l 526 513 m 864 680 l 1344 680 l 1344 601 l 1014 119 l 1354 119 l 1354 0 l 827 0 l 827 79 l 1158 562 l 864 562 l 864 680 z "},"ș":{"ha":595,"x_min":37,"x_max":553,"o":"m 412 182 q 391 231 412 210 q 342 265 371 252 q 262 298 314 278 q 122 375 176 330 q 68 498 68 421 q 98 601 68 555 q 184 672 128 646 q 313 697 239 697 q 434 675 378 697 q 536 618 490 654 l 467 527 q 393 570 428 556 q 315 585 358 585 q 236 565 262 585 q 210 509 210 545 q 229 463 210 482 q 276 430 248 443 q 354 397 304 417 q 455 353 414 376 q 525 290 496 330 q 553 191 553 250 q 522 85 553 132 q 433 11 492 38 q 292 -17 374 -17 q 156 9 224 -17 q 37 78 88 35 l 107 174 q 201 115 157 135 q 296 96 245 96 q 383 119 354 96 q 412 182 412 142 m 190 -241 q 279 -220 248 -234 q 311 -182 311 -206 q 294 -146 311 -159 q 244 -125 277 -133 l 275 -63 q 387 -99 353 -73 q 422 -174 422 -125 q 360 -268 422 -235 q 203 -307 298 -300 l 190 -241 z "},"ț":{"ha":493,"x_min":30,"x_max":473,"o":"m 135 680 l 153 867 l 277 867 l 277 680 l 452 680 l 452 562 l 277 562 l 277 224 q 300 132 277 163 q 375 102 324 102 q 447 118 403 102 l 473 8 q 404 -10 436 -3 q 337 -17 372 -17 q 127 224 127 -17 l 127 562 l 30 562 l 30 673 l 135 680 m 85 -241 q 175 -220 143 -234 q 206 -182 206 -206 q 189 -146 206 -159 q 140 -125 172 -133 l 170 -63 q 283 -99 248 -73 q 317 -174 317 -125 q 256 -268 317 -235 q 99 -307 194 -300 l 85 -241 z "},"ḃ":{"ha":781,"x_min":105,"x_max":718,"o":"m 250 610 q 346 674 295 650 q 450 697 397 697 q 650 607 582 697 q 718 351 718 516 q 679 151 718 234 q 574 25 640 68 q 428 -17 508 -17 q 331 5 380 -17 q 239 68 283 27 l 235 68 l 222 0 l 105 0 l 105 983 l 253 983 l 253 725 l 250 610 m 410 574 q 333 554 371 574 q 253 493 295 534 l 253 167 q 326 121 289 135 q 397 106 362 106 q 485 134 447 106 q 544 215 522 161 q 565 349 565 270 q 529 517 565 460 q 410 574 492 574 m 501 892 q 476 829 501 854 q 412 805 450 805 q 348 829 373 805 q 322 892 322 854 q 348 955 322 930 q 412 979 373 979 q 476 955 450 979 q 501 892 501 930 z "},"ḋ":{"ha":781,"x_min":61,"x_max":675,"o":"m 526 733 l 526 983 l 675 983 l 675 0 l 553 0 l 542 75 l 538 75 q 445 8 496 34 q 341 -17 394 -17 q 193 24 256 -17 q 96 146 130 66 q 61 340 61 227 q 100 531 61 450 q 206 654 140 612 q 351 697 273 697 q 447 679 406 697 q 533 621 488 660 l 526 733 m 526 513 q 455 560 491 546 q 381 574 420 574 q 295 547 333 574 q 235 468 256 520 q 213 342 213 415 q 255 166 213 226 q 377 106 296 106 q 455 126 419 106 q 526 188 491 146 l 526 513 m 458 892 q 432 829 458 854 q 368 805 407 805 q 304 829 330 805 q 279 892 279 854 q 304 955 279 930 q 368 979 330 979 q 432 955 407 979 q 458 892 458 930 z "},"ḍ":{"ha":781,"x_min":61,"x_max":675,"o":"m 526 733 l 526 983 l 675 983 l 675 0 l 553 0 l 542 75 l 538 75 q 445 8 496 34 q 341 -17 394 -17 q 193 24 256 -17 q 96 146 130 66 q 61 340 61 227 q 100 531 61 450 q 206 654 140 612 q 351 697 273 697 q 447 679 406 697 q 533 621 488 660 l 526 733 m 526 513 q 455 560 491 546 q 381 574 420 574 q 295 547 333 574 q 235 468 256 520 q 213 342 213 415 q 255 166 213 226 q 377 106 296 106 q 455 126 419 106 q 526 188 491 146 l 526 513 m 513 -208 q 487 -271 513 -247 q 423 -296 462 -296 q 359 -271 385 -296 q 334 -208 334 -247 q 359 -146 334 -171 q 423 -121 385 -121 q 487 -146 462 -121 q 513 -208 513 -171 z "},"ḏ":{"ha":781,"x_min":61,"x_max":675,"o":"m 221 -248 l 221 -147 l 586 -147 l 586 -248 l 221 -248 m 526 733 l 526 983 l 675 983 l 675 0 l 553 0 l 542 75 l 538 75 q 445 8 496 34 q 341 -17 394 -17 q 193 24 256 -17 q 96 146 130 66 q 61 340 61 227 q 100 531 61 450 q 206 654 140 612 q 351 697 273 697 q 447 679 406 697 q 533 621 488 660 l 526 733 m 526 513 q 455 560 491 546 q 381 574 420 574 q 295 547 333 574 q 235 468 256 520 q 213 342 213 415 q 255 166 213 226 q 377 106 296 106 q 455 126 419 106 q 526 188 491 146 l 526 513 z "},"ḟ":{"ha":431,"x_min":38,"x_max":471,"o":"m 279 764 l 279 680 l 414 680 l 414 562 l 279 562 l 279 0 l 130 0 l 130 562 l 38 562 l 38 673 l 130 680 l 130 762 q 184 936 130 873 q 349 1000 237 1000 q 471 977 410 1000 l 441 865 q 367 881 401 881 q 301 852 323 881 q 279 764 279 823 m 225 1082 q 200 1019 225 1043 q 136 994 174 994 q 72 1019 97 994 q 46 1082 46 1043 q 72 1144 46 1119 q 136 1168 97 1168 q 200 1144 174 1168 q 225 1082 225 1119 z "},"ḡ":{"ha":716,"x_min":57,"x_max":698,"o":"m 170 270 l 170 275 q 105 352 131 305 q 79 456 79 398 q 115 588 79 534 q 210 670 150 642 q 345 697 271 697 q 446 680 400 697 l 686 680 l 686 574 l 558 574 q 590 521 578 553 q 602 452 602 489 q 569 324 602 376 q 478 245 536 271 q 345 218 420 218 q 251 238 298 218 q 223 209 231 220 q 215 174 215 197 q 241 126 215 142 q 328 109 267 109 l 460 109 q 640 66 581 109 q 698 -66 698 22 q 655 -186 698 -132 q 530 -273 612 -241 q 339 -304 449 -304 q 131 -259 205 -304 q 57 -125 57 -213 q 83 -36 57 -79 q 155 36 109 8 l 155 41 q 110 85 126 60 q 94 149 94 111 q 115 217 94 186 q 170 270 136 248 m 220 456 q 237 378 220 410 q 282 329 254 346 q 345 313 310 313 q 409 329 380 313 q 453 377 437 345 q 470 456 470 410 q 436 558 470 524 q 345 593 403 593 q 254 558 288 593 q 220 456 220 524 m 431 0 l 331 0 q 240 9 277 0 q 197 -40 211 -12 q 184 -103 184 -68 q 230 -179 184 -152 q 362 -205 277 -205 q 464 -190 420 -205 q 531 -147 507 -174 q 555 -89 555 -120 q 523 -23 555 -47 q 431 0 490 0 m 195 1007 l 195 1108 l 559 1108 l 559 1007 l 195 1007 z "},"ḥ":{"ha":770,"x_min":105,"x_max":676,"o":"m 492 -212 q 466 -275 492 -250 q 402 -299 441 -299 q 338 -275 363 -299 q 313 -212 313 -250 q 338 -150 313 -174 q 402 -125 363 -125 q 466 -150 441 -125 q 492 -212 492 -174 m 247 592 q 351 669 299 642 q 467 697 404 697 q 626 629 575 697 q 676 429 676 562 l 676 0 l 528 0 l 528 410 q 516 503 528 469 q 481 554 505 538 q 416 570 456 570 q 337 549 372 570 q 253 480 301 528 l 253 0 l 105 0 l 105 983 l 253 983 l 253 725 l 247 592 z "},"ḫ":{"ha":770,"x_min":105,"x_max":676,"o":"m 247 592 q 351 669 299 642 q 467 697 404 697 q 626 629 575 697 q 676 429 676 562 l 676 0 l 528 0 l 528 410 q 516 503 528 469 q 481 554 505 538 q 416 570 456 570 q 337 549 372 570 q 253 480 301 528 l 253 0 l 105 0 l 105 983 l 253 983 l 253 725 l 247 592 m 497 -106 l 585 -106 q 561 -195 582 -153 q 500 -262 541 -236 q 402 -288 460 -288 q 304 -262 344 -288 q 243 -195 264 -236 q 220 -106 223 -153 l 307 -106 q 337 -174 313 -147 q 402 -201 361 -201 q 468 -174 444 -201 q 497 -106 492 -147 z "},"ḷ":{"ha":370,"x_min":105,"x_max":338,"o":"m 287 105 q 312 108 300 105 l 330 -3 q 251 -17 298 -17 q 139 30 174 -17 q 105 166 105 77 l 105 983 l 253 983 l 253 157 q 263 118 253 130 q 287 105 273 105 m 338 -212 q 313 -275 338 -250 q 249 -299 288 -299 q 185 -275 210 -299 q 159 -212 159 -250 q 185 -150 159 -174 q 249 -125 210 -125 q 313 -150 288 -125 q 338 -212 338 -174 z "},"ḹ":{"ha":370,"x_min":-9,"x_max":355,"o":"m 287 105 q 312 108 300 105 l 330 -3 q 251 -17 298 -17 q 139 30 174 -17 q 105 166 105 77 l 105 983 l 253 983 l 253 157 q 263 118 253 130 q 287 105 273 105 m -9 1128 l -9 1229 l 355 1229 l 355 1128 l -9 1128 m 338 -212 q 313 -275 338 -250 q 249 -299 288 -299 q 185 -275 210 -299 q 159 -212 159 -250 q 185 -150 159 -174 q 249 -125 210 -125 q 313 -150 288 -125 q 338 -212 338 -174 z "},"ḻ":{"ha":370,"x_min":33,"x_max":398,"o":"m 33 -248 l 33 -147 l 398 -147 l 398 -248 l 33 -248 m 287 105 q 312 108 300 105 l 330 -3 q 251 -17 298 -17 q 139 30 174 -17 q 105 166 105 77 l 105 983 l 253 983 l 253 157 q 263 118 253 130 q 287 105 273 105 z "},"ṁ":{"ha":1166,"x_min":105,"x_max":1069,"o":"m 243 587 q 343 668 292 638 q 454 697 395 697 q 574 668 531 697 q 640 575 618 638 q 748 666 695 634 q 860 697 800 697 q 1018 630 968 697 q 1069 430 1069 562 l 1069 0 l 921 0 l 921 410 q 910 504 921 469 q 875 554 899 538 q 811 570 851 570 q 740 548 777 570 q 661 482 703 527 l 661 0 l 513 0 l 513 413 q 502 506 513 472 q 467 555 491 540 q 403 570 444 570 q 253 480 336 570 l 253 0 l 105 0 l 105 680 l 227 680 l 238 587 l 243 587 m 676 892 q 651 829 676 854 q 587 805 625 805 q 523 829 548 805 q 497 892 497 854 q 523 955 497 930 q 587 979 548 979 q 651 955 625 979 q 676 892 676 930 z "},"ṃ":{"ha":1166,"x_min":105,"x_max":1069,"o":"m 690 -212 q 664 -275 690 -250 q 600 -299 639 -299 q 536 -275 562 -299 q 511 -212 511 -250 q 536 -150 511 -174 q 600 -125 562 -125 q 664 -150 639 -125 q 690 -212 690 -174 m 243 587 q 343 668 292 638 q 454 697 395 697 q 574 668 531 697 q 640 575 618 638 q 748 666 695 634 q 860 697 800 697 q 1018 630 968 697 q 1069 430 1069 562 l 1069 0 l 921 0 l 921 410 q 910 504 921 469 q 875 554 899 538 q 811 570 851 570 q 740 548 777 570 q 661 482 703 527 l 661 0 l 513 0 l 513 413 q 502 506 513 472 q 467 555 491 540 q 403 570 444 570 q 253 480 336 570 l 253 0 l 105 0 l 105 680 l 227 680 l 238 587 l 243 587 z "},"ṅ":{"ha":772,"x_min":105,"x_max":676,"o":"m 243 587 q 349 668 296 639 q 467 697 402 697 q 626 630 576 697 q 676 430 676 563 l 676 0 l 528 0 l 528 410 q 517 504 528 469 q 482 554 506 538 q 416 570 458 570 q 337 549 372 570 q 253 480 301 528 l 253 0 l 105 0 l 105 680 l 227 680 l 238 587 l 243 587 m 494 892 q 469 829 494 854 q 405 805 444 805 q 341 829 366 805 q 315 892 315 854 q 341 955 315 930 q 405 979 366 979 q 469 955 444 979 q 494 892 494 930 z "},"ṇ":{"ha":772,"x_min":105,"x_max":676,"o":"m 243 587 q 349 668 296 639 q 467 697 402 697 q 626 630 576 697 q 676 430 676 563 l 676 0 l 528 0 l 528 410 q 517 504 528 469 q 482 554 506 538 q 416 570 458 570 q 337 549 372 570 q 253 480 301 528 l 253 0 l 105 0 l 105 680 l 227 680 l 238 587 l 243 587 m 487 -212 q 461 -275 487 -250 q 397 -299 436 -299 q 333 -275 359 -299 q 308 -212 308 -250 q 333 -150 308 -174 q 397 -125 359 -125 q 461 -150 436 -125 q 487 -212 487 -174 z "},"ṉ":{"ha":772,"x_min":105,"x_max":676,"o":"m 243 587 q 349 668 296 639 q 467 697 402 697 q 626 630 576 697 q 676 430 676 563 l 676 0 l 528 0 l 528 410 q 517 504 528 469 q 482 554 506 538 q 416 570 458 570 q 337 549 372 570 q 253 480 301 528 l 253 0 l 105 0 l 105 680 l 227 680 l 238 587 l 243 587 m 208 -249 l 208 -148 l 572 -148 l 572 -249 l 208 -249 z "},"ṗ":{"ha":781,"x_min":105,"x_max":718,"o":"m 105 680 l 227 680 l 238 606 l 243 606 q 450 697 348 697 q 596 655 536 697 q 687 535 656 613 q 718 349 718 457 q 679 153 718 236 q 572 26 639 70 q 427 -17 506 -17 q 249 59 339 -17 l 253 -56 l 253 -274 l 105 -274 l 105 680 m 409 574 q 334 554 372 574 q 253 493 297 534 l 253 167 q 326 121 290 135 q 396 106 362 106 q 484 134 446 106 q 544 216 522 162 q 565 349 565 271 q 528 517 565 459 q 409 574 491 574 m 501 892 q 476 829 501 854 q 412 805 450 805 q 348 829 373 805 q 322 892 322 854 q 348 955 322 930 q 412 979 373 979 q 476 955 450 979 q 501 892 501 930 z "},"ṛ":{"ha":509,"x_min":96,"x_max":512,"o":"m 243 559 q 330 661 279 624 q 436 697 380 697 q 478 694 460 697 q 512 683 496 690 l 486 554 q 451 562 466 559 q 416 565 436 565 q 327 530 371 565 q 253 420 282 494 l 253 0 l 105 0 l 105 680 l 227 680 l 238 559 l 243 559 m 275 -212 q 250 -275 275 -250 q 186 -299 224 -299 q 122 -275 147 -299 q 96 -212 96 -250 q 122 -150 96 -174 q 186 -125 147 -125 q 250 -150 224 -125 q 275 -212 275 -174 z "},"ṝ":{"ha":509,"x_min":96,"x_max":512,"o":"m 243 559 q 330 661 279 624 q 436 697 380 697 q 478 694 460 697 q 512 683 496 690 l 486 554 q 451 562 466 559 q 416 565 436 565 q 327 530 371 565 q 253 420 282 494 l 253 0 l 105 0 l 105 680 l 227 680 l 238 559 l 243 559 m 119 825 l 119 926 l 484 926 l 484 825 l 119 825 m 275 -212 q 250 -275 275 -250 q 186 -299 224 -299 q 122 -275 147 -299 q 96 -212 96 -250 q 122 -150 96 -174 q 186 -125 147 -125 q 250 -150 224 -125 q 275 -212 275 -174 z "},"ṟ":{"ha":509,"x_min":12,"x_max":512,"o":"m 12 -248 l 12 -147 l 376 -147 l 376 -248 l 12 -248 m 243 559 q 330 661 279 624 q 436 697 380 697 q 478 694 460 697 q 512 683 496 690 l 486 554 q 451 562 466 559 q 416 565 436 565 q 327 530 371 565 q 253 420 282 494 l 253 0 l 105 0 l 105 680 l 227 680 l 238 559 l 243 559 z "},"ṡ":{"ha":595,"x_min":37,"x_max":553,"o":"m 412 182 q 391 231 412 210 q 342 265 371 252 q 262 298 314 278 q 122 375 176 330 q 68 498 68 421 q 98 601 68 555 q 184 672 128 646 q 313 697 239 697 q 434 675 378 697 q 536 618 490 654 l 467 527 q 393 570 428 556 q 315 585 358 585 q 236 565 262 585 q 210 509 210 545 q 229 463 210 482 q 276 430 248 443 q 354 397 304 417 q 455 353 414 376 q 525 290 496 330 q 553 191 553 250 q 522 85 553 132 q 433 11 492 38 q 292 -17 374 -17 q 156 9 224 -17 q 37 78 88 35 l 107 174 q 201 115 157 135 q 296 96 245 96 q 383 119 354 96 q 412 182 412 142 m 385 892 q 359 829 385 854 q 295 805 334 805 q 231 829 256 805 q 205 892 205 854 q 231 955 205 930 q 295 979 256 979 q 359 955 334 979 q 385 892 385 930 z "},"ṣ":{"ha":595,"x_min":37,"x_max":553,"o":"m 405 -212 q 379 -275 405 -250 q 315 -299 354 -299 q 251 -275 277 -299 q 226 -212 226 -250 q 251 -150 226 -174 q 315 -125 277 -125 q 379 -150 354 -125 q 405 -212 405 -174 m 412 182 q 391 231 412 210 q 342 265 371 252 q 262 298 314 278 q 122 375 176 330 q 68 498 68 421 q 98 601 68 555 q 184 672 128 646 q 313 697 239 697 q 434 675 378 697 q 536 618 490 654 l 467 527 q 393 570 428 556 q 315 585 358 585 q 236 565 262 585 q 210 509 210 545 q 229 463 210 482 q 276 430 248 443 q 354 397 304 417 q 455 353 414 376 q 525 290 496 330 q 553 191 553 250 q 522 85 553 132 q 433 11 492 38 q 292 -17 374 -17 q 156 9 224 -17 q 37 78 88 35 l 107 174 q 201 115 157 135 q 296 96 245 96 q 383 119 354 96 q 412 182 412 142 z "},"ṫ":{"ha":493,"x_min":30,"x_max":473,"o":"m 135 680 l 153 867 l 277 867 l 277 680 l 452 680 l 452 562 l 277 562 l 277 224 q 300 132 277 163 q 375 102 324 102 q 447 118 403 102 l 473 8 q 404 -10 436 -3 q 337 -17 372 -17 q 127 224 127 -17 l 127 562 l 30 562 l 30 673 l 135 680 m 315 1038 q 289 975 315 999 q 225 950 264 950 q 161 975 186 950 q 136 1038 136 999 q 161 1100 136 1075 q 225 1124 186 1124 q 289 1100 264 1124 q 315 1038 315 1075 z "},"ṭ":{"ha":493,"x_min":30,"x_max":473,"o":"m 135 680 l 153 867 l 277 867 l 277 680 l 452 680 l 452 562 l 277 562 l 277 224 q 300 132 277 163 q 375 102 324 102 q 447 118 403 102 l 473 8 q 404 -10 436 -3 q 337 -17 372 -17 q 127 224 127 -17 l 127 562 l 30 562 l 30 673 l 135 680 m 398 -212 q 373 -275 398 -250 q 309 -299 347 -299 q 244 -275 270 -299 q 219 -212 219 -250 q 244 -150 219 -174 q 309 -125 270 -125 q 373 -150 347 -125 q 398 -212 398 -174 z "},"ṯ":{"ha":493,"x_min":30,"x_max":492,"o":"m 135 680 l 153 867 l 277 867 l 277 680 l 452 680 l 452 562 l 277 562 l 277 224 q 300 132 277 163 q 375 102 324 102 q 447 118 403 102 l 473 8 q 404 -10 436 -3 q 337 -17 372 -17 q 127 224 127 -17 l 127 562 l 30 562 l 30 673 l 135 680 m 127 -248 l 127 -147 l 492 -147 l 492 -248 l 127 -248 z "},"ẏ":{"ha":677,"x_min":17,"x_max":661,"o":"m 286 6 l 17 680 l 168 680 l 290 336 q 352 144 317 260 l 357 144 q 373 200 364 168 q 386 249 382 233 q 410 336 412 346 l 515 680 l 661 680 l 412 -37 q 348 -171 383 -117 q 262 -253 313 -224 q 141 -282 212 -282 q 55 -269 94 -282 l 82 -153 q 132 -163 114 -163 q 218 -130 184 -163 q 272 -39 253 -97 l 286 6 m 428 892 q 402 829 428 854 q 338 805 377 805 q 274 829 300 805 q 249 892 249 854 q 274 955 249 930 q 338 979 300 979 q 402 955 377 979 q 428 892 428 930 z "},"ẓ":{"ha":608,"x_min":47,"x_max":574,"o":"m 83 680 l 564 680 l 564 601 l 233 119 l 574 119 l 574 0 l 47 0 l 47 79 l 377 562 l 83 562 l 83 680 m 414 -212 q 389 -275 414 -250 q 325 -299 363 -299 q 261 -275 286 -299 q 235 -212 235 -250 q 261 -150 235 -174 q 325 -125 286 -125 q 389 -150 363 -125 q 414 -212 414 -174 z "},"ẗ":{"ha":493,"x_min":7,"x_max":473,"o":"m 135 680 l 153 867 l 277 867 l 277 680 l 452 680 l 452 562 l 277 562 l 277 224 q 300 132 277 163 q 375 102 324 102 q 447 118 403 102 l 473 8 q 404 -10 436 -3 q 337 -17 372 -17 q 127 224 127 -17 l 127 562 l 30 562 l 30 673 l 135 680 m 165 1078 q 143 1021 165 1043 q 86 998 121 998 q 30 1021 52 998 q 7 1078 7 1043 q 30 1134 7 1112 q 86 1156 52 1156 q 143 1134 121 1156 q 165 1078 165 1112 m 418 1078 q 396 1021 418 1043 q 339 998 374 998 q 282 1021 304 998 q 260 1078 260 1043 q 282 1134 260 1112 q 339 1156 304 1156 q 396 1134 374 1156 q 418 1078 418 1112 z "},"ạ":{"ha":723,"x_min":75,"x_max":628,"o":"m 153 517 l 98 617 q 228 675 155 653 q 378 697 300 697 q 567 624 505 697 q 628 406 628 551 l 628 0 l 506 0 l 494 77 l 490 77 q 424 26 453 45 q 360 -5 395 7 q 282 -17 325 -17 q 173 8 220 -17 q 100 79 126 33 q 75 183 75 124 q 173 359 75 296 q 479 430 271 422 q 451 542 479 507 q 351 576 422 576 q 248 561 298 576 q 153 517 198 545 m 479 340 q 278 296 338 336 q 218 193 218 256 q 247 123 218 146 q 326 100 276 100 q 403 119 368 100 q 479 178 438 138 l 479 340 m 450 -212 q 424 -275 450 -250 q 360 -299 399 -299 q 296 -275 321 -299 q 271 -212 271 -250 q 296 -150 271 -174 q 360 -125 321 -125 q 424 -150 399 -125 q 450 -212 450 -174 z "},"ả":{"ha":723,"x_min":75,"x_max":628,"o":"m 153 517 l 98 617 q 228 675 155 653 q 378 697 300 697 q 567 624 505 697 q 628 406 628 551 l 628 0 l 506 0 l 494 77 l 490 77 q 424 26 453 45 q 360 -5 395 7 q 282 -17 325 -17 q 173 8 220 -17 q 100 79 126 33 q 75 183 75 124 q 173 359 75 296 q 479 430 271 422 q 451 542 479 507 q 351 576 422 576 q 248 561 298 576 q 153 517 198 545 m 479 340 q 278 296 338 336 q 218 193 218 256 q 247 123 218 146 q 326 100 276 100 q 403 119 368 100 q 479 178 438 138 l 479 340 m 282 943 l 298 1023 q 454 990 402 1020 q 506 905 506 960 q 459 812 506 844 q 337 770 412 779 l 323 833 q 377 854 358 842 q 395 889 395 867 q 368 926 395 913 q 282 943 340 939 z "},"ấ":{"ha":723,"x_min":75,"x_max":738,"o":"m 153 517 l 98 617 q 228 675 155 653 q 378 697 300 697 q 567 624 505 697 q 628 406 628 551 l 628 0 l 506 0 l 494 77 l 490 77 q 424 26 453 45 q 360 -5 395 7 q 282 -17 325 -17 q 173 8 220 -17 q 100 79 126 33 q 75 183 75 124 q 173 359 75 296 q 479 430 271 422 q 451 542 479 507 q 351 576 422 576 q 248 561 298 576 q 153 517 198 545 m 479 340 q 278 296 338 336 q 218 193 218 256 q 247 123 218 146 q 326 100 276 100 q 403 119 368 100 q 479 178 438 138 l 479 340 m 518 904 l 616 1063 l 738 1063 l 607 904 l 518 904 m 465 813 l 383 895 l 378 895 l 296 813 l 186 813 l 316 964 l 445 964 l 574 813 l 465 813 z "},"ầ":{"ha":723,"x_min":75,"x_max":686,"o":"m 153 517 l 98 617 q 228 675 155 653 q 378 697 300 697 q 567 624 505 697 q 628 406 628 551 l 628 0 l 506 0 l 494 77 l 490 77 q 424 26 453 45 q 360 -5 395 7 q 282 -17 325 -17 q 173 8 220 -17 q 100 79 126 33 q 75 183 75 124 q 173 359 75 296 q 479 430 271 422 q 451 542 479 507 q 351 576 422 576 q 248 561 298 576 q 153 517 198 545 m 479 340 q 278 296 338 336 q 218 193 218 256 q 247 123 218 146 q 326 100 276 100 q 403 119 368 100 q 479 178 438 138 l 479 340 m 587 1053 l 686 892 l 599 892 l 470 1053 l 587 1053 m 459 797 l 385 894 l 379 894 l 304 797 l 208 797 l 321 966 l 442 966 l 555 797 l 459 797 z "},"ẩ":{"ha":723,"x_min":75,"x_max":693,"o":"m 153 517 l 98 617 q 228 675 155 653 q 378 697 300 697 q 567 624 505 697 q 628 406 628 551 l 628 0 l 506 0 l 494 77 l 490 77 q 424 26 453 45 q 360 -5 395 7 q 282 -17 325 -17 q 173 8 220 -17 q 100 79 126 33 q 75 183 75 124 q 173 359 75 296 q 479 430 271 422 q 451 542 479 507 q 351 576 422 576 q 248 561 298 576 q 153 517 198 545 m 479 340 q 278 296 338 336 q 218 193 218 256 q 247 123 218 146 q 326 100 276 100 q 403 119 368 100 q 479 178 438 138 l 479 340 m 497 1030 l 511 1098 q 648 1068 604 1095 q 693 994 693 1042 q 655 911 693 938 q 552 872 618 885 l 538 929 q 577 947 564 936 q 591 977 591 958 q 569 1015 591 1002 q 497 1030 548 1027 m 456 797 l 382 894 l 376 894 l 302 797 l 205 797 l 319 966 l 439 966 l 553 797 l 456 797 z "},"ẫ":{"ha":723,"x_min":75,"x_max":628,"o":"m 153 517 l 98 617 q 228 675 155 653 q 378 697 300 697 q 567 624 505 697 q 628 406 628 551 l 628 0 l 506 0 l 494 77 l 490 77 q 424 26 453 45 q 360 -5 395 7 q 282 -17 325 -17 q 173 8 220 -17 q 100 79 126 33 q 75 183 75 124 q 173 359 75 296 q 479 430 271 422 q 451 542 479 507 q 351 576 422 576 q 248 561 298 576 q 153 517 198 545 m 479 340 q 278 296 338 336 q 218 193 218 256 q 247 123 218 146 q 326 100 276 100 q 403 119 368 100 q 479 178 438 138 l 479 340 m 503 1131 l 573 1131 q 536 1028 567 1066 q 457 991 505 991 q 412 1000 432 991 q 368 1025 393 1008 q 337 1044 348 1038 q 313 1049 326 1049 q 279 1034 293 1049 q 260 991 264 1019 l 189 991 q 227 1093 195 1055 q 305 1131 258 1131 q 350 1122 330 1131 q 395 1096 370 1113 q 425 1077 413 1083 q 449 1072 437 1072 q 484 1087 469 1072 q 503 1131 498 1102 m 575 791 l 466 791 l 384 873 l 378 873 l 296 791 l 187 791 l 317 942 l 446 942 l 575 791 z "},"ậ":{"ha":723,"x_min":75,"x_max":628,"o":"m 153 517 l 98 617 q 228 675 155 653 q 378 697 300 697 q 567 624 505 697 q 628 406 628 551 l 628 0 l 506 0 l 494 77 l 490 77 q 424 26 453 45 q 360 -5 395 7 q 282 -17 325 -17 q 173 8 220 -17 q 100 79 126 33 q 75 183 75 124 q 173 359 75 296 q 479 430 271 422 q 451 542 479 507 q 351 576 422 576 q 248 561 298 576 q 153 517 198 545 m 479 340 q 278 296 338 336 q 218 193 218 256 q 247 123 218 146 q 326 100 276 100 q 403 119 368 100 q 479 178 438 138 l 479 340 m 452 797 l 366 916 l 360 916 l 275 797 l 171 797 l 302 997 l 423 997 l 555 797 l 452 797 m 450 -212 q 424 -275 450 -250 q 360 -299 399 -299 q 296 -275 321 -299 q 271 -212 271 -250 q 296 -150 271 -174 q 360 -125 321 -125 q 424 -150 399 -125 q 450 -212 450 -174 z "},"ắ":{"ha":723,"x_min":75,"x_max":628,"o":"m 153 517 l 98 617 q 228 675 155 653 q 378 697 300 697 q 567 624 505 697 q 628 406 628 551 l 628 0 l 506 0 l 494 77 l 490 77 q 424 26 453 45 q 360 -5 395 7 q 282 -17 325 -17 q 173 8 220 -17 q 100 79 126 33 q 75 183 75 124 q 173 359 75 296 q 479 430 271 422 q 451 542 479 507 q 351 576 422 576 q 248 561 298 576 q 153 517 198 545 m 479 340 q 278 296 338 336 q 218 193 218 256 q 247 123 218 146 q 326 100 276 100 q 403 119 368 100 q 479 178 438 138 l 479 340 m 323 948 l 412 1107 l 526 1107 l 404 948 l 323 948 m 490 981 l 561 981 q 538 892 558 933 q 477 824 517 850 q 379 798 437 798 q 281 824 321 798 q 220 892 241 850 q 197 981 200 933 l 269 981 q 303 906 275 936 q 379 877 332 877 q 455 906 427 877 q 490 981 483 936 z "},"ằ":{"ha":723,"x_min":75,"x_max":628,"o":"m 153 517 l 98 617 q 228 675 155 653 q 378 697 300 697 q 567 624 505 697 q 628 406 628 551 l 628 0 l 506 0 l 494 77 l 490 77 q 424 26 453 45 q 360 -5 395 7 q 282 -17 325 -17 q 173 8 220 -17 q 100 79 126 33 q 75 183 75 124 q 173 359 75 296 q 479 430 271 422 q 451 542 479 507 q 351 576 422 576 q 248 561 298 576 q 153 517 198 545 m 479 340 q 278 296 338 336 q 218 193 218 256 q 247 123 218 146 q 326 100 276 100 q 403 119 368 100 q 479 178 438 138 l 479 340 m 347 1107 l 435 948 l 355 948 l 232 1107 l 347 1107 m 490 981 l 561 981 q 538 892 558 933 q 477 824 517 850 q 379 798 437 798 q 281 824 321 798 q 220 892 241 850 q 197 981 200 933 l 269 981 q 303 906 275 936 q 379 877 332 877 q 455 906 427 877 q 490 981 483 936 z "},"ẳ":{"ha":723,"x_min":75,"x_max":628,"o":"m 153 517 l 98 617 q 228 675 155 653 q 378 697 300 697 q 567 624 505 697 q 628 406 628 551 l 628 0 l 506 0 l 494 77 l 490 77 q 424 26 453 45 q 360 -5 395 7 q 282 -17 325 -17 q 173 8 220 -17 q 100 79 126 33 q 75 183 75 124 q 173 359 75 296 q 479 430 271 422 q 451 542 479 507 q 351 576 422 576 q 248 561 298 576 q 153 517 198 545 m 479 340 q 278 296 338 336 q 218 193 218 256 q 247 123 218 146 q 326 100 276 100 q 403 119 368 100 q 479 178 438 138 l 479 340 m 284 1114 l 297 1182 q 435 1153 390 1179 q 480 1077 480 1127 q 442 996 480 1022 q 338 957 404 969 l 326 1013 q 364 1031 351 1020 q 378 1061 378 1042 q 356 1099 378 1086 q 284 1114 335 1112 m 490 981 l 561 981 q 538 892 558 933 q 477 824 517 850 q 379 798 437 798 q 281 824 321 798 q 220 892 241 850 q 197 981 200 933 l 269 981 q 303 906 275 936 q 379 877 332 877 q 455 906 427 877 q 490 981 483 936 z "},"ẵ":{"ha":723,"x_min":75,"x_max":628,"o":"m 153 517 l 98 617 q 228 675 155 653 q 378 697 300 697 q 567 624 505 697 q 628 406 628 551 l 628 0 l 506 0 l 494 77 l 490 77 q 424 26 453 45 q 360 -5 395 7 q 282 -17 325 -17 q 173 8 220 -17 q 100 79 126 33 q 75 183 75 124 q 173 359 75 296 q 479 430 271 422 q 451 542 479 507 q 351 576 422 576 q 248 561 298 576 q 153 517 198 545 m 479 340 q 278 296 338 336 q 218 193 218 256 q 247 123 218 146 q 326 100 276 100 q 403 119 368 100 q 479 178 438 138 l 479 340 m 391 1101 q 421 1082 410 1088 q 446 1076 433 1076 q 480 1092 466 1076 q 499 1135 494 1107 l 570 1135 q 532 1033 564 1071 q 454 996 501 996 q 409 1004 429 996 q 364 1030 389 1013 q 333 1048 345 1043 q 310 1054 322 1054 q 275 1039 290 1054 q 256 996 261 1024 l 186 996 q 223 1098 192 1060 q 302 1135 254 1135 q 347 1126 327 1135 q 391 1101 366 1118 m 481 952 l 555 952 q 503 840 547 884 q 378 797 458 797 q 253 840 298 797 q 201 952 208 884 l 275 952 q 378 869 296 869 q 481 952 460 869 z "},"ặ":{"ha":723,"x_min":75,"x_max":628,"o":"m 153 517 l 98 617 q 228 675 155 653 q 378 697 300 697 q 567 624 505 697 q 628 406 628 551 l 628 0 l 506 0 l 494 77 l 490 77 q 424 26 453 45 q 360 -5 395 7 q 282 -17 325 -17 q 173 8 220 -17 q 100 79 126 33 q 75 183 75 124 q 173 359 75 296 q 479 430 271 422 q 451 542 479 507 q 351 576 422 576 q 248 561 298 576 q 153 517 198 545 m 479 340 q 278 296 338 336 q 218 193 218 256 q 247 123 218 146 q 326 100 276 100 q 403 119 368 100 q 479 178 438 138 l 479 340 m 458 981 l 545 981 q 522 892 543 933 q 461 824 501 850 q 363 798 421 798 q 264 824 304 798 q 204 892 224 850 q 181 981 184 933 l 268 981 q 298 912 274 939 q 363 885 321 885 q 428 912 404 885 q 458 981 452 939 m 450 -212 q 424 -275 450 -250 q 360 -299 399 -299 q 296 -275 321 -299 q 271 -212 271 -250 q 296 -150 271 -174 q 360 -125 321 -125 q 424 -150 399 -125 q 450 -212 450 -174 z "},"ẹ":{"ha":701,"x_min":58,"x_max":648,"o":"m 643 304 l 203 304 q 266 153 210 205 q 411 100 322 100 q 494 111 455 100 q 571 145 534 122 l 621 52 q 514 1 572 20 q 391 -17 456 -17 q 221 25 297 -17 q 102 149 146 68 q 58 340 58 229 q 101 531 58 450 q 214 655 143 612 q 369 697 285 697 q 577 611 507 697 q 648 375 648 526 q 643 304 648 336 m 202 398 l 520 398 q 372 582 520 582 q 258 535 304 582 q 202 398 212 488 m 443 892 q 417 829 443 854 q 353 805 392 805 q 289 829 315 805 q 264 892 264 854 q 289 955 264 930 q 353 979 315 979 q 417 955 392 979 q 443 892 443 930 z "},"ẻ":{"ha":701,"x_min":58,"x_max":648,"o":"m 643 304 l 203 304 q 266 153 210 205 q 411 100 322 100 q 494 111 455 100 q 571 145 534 122 l 621 52 q 514 1 572 20 q 391 -17 456 -17 q 221 25 297 -17 q 102 149 146 68 q 58 340 58 229 q 101 531 58 450 q 214 655 143 612 q 369 697 285 697 q 577 611 507 697 q 648 375 648 526 q 643 304 648 336 m 202 398 l 520 398 q 372 582 520 582 q 258 535 304 582 q 202 398 212 488 m 274 943 l 290 1023 q 446 990 394 1020 q 498 905 498 960 q 451 812 498 844 q 329 770 404 779 l 315 833 q 369 854 350 842 q 387 889 387 867 q 360 926 387 913 q 274 943 332 939 z "},"ẽ":{"ha":701,"x_min":58,"x_max":648,"o":"m 643 304 l 203 304 q 266 153 210 205 q 411 100 322 100 q 494 111 455 100 q 571 145 534 122 l 621 52 q 514 1 572 20 q 391 -17 456 -17 q 221 25 297 -17 q 102 149 146 68 q 58 340 58 229 q 101 531 58 450 q 214 655 143 612 q 369 697 285 697 q 577 611 507 697 q 648 375 648 526 q 643 304 648 336 m 202 398 l 520 398 q 372 582 520 582 q 258 535 304 582 q 202 398 212 488 m 481 964 l 561 964 q 524 846 555 889 q 441 803 492 803 q 391 813 414 803 q 338 843 368 823 q 299 864 313 858 q 273 871 286 871 q 242 854 254 871 q 227 802 231 838 l 146 802 q 183 920 151 877 q 267 964 216 964 q 317 954 294 964 q 371 924 339 944 q 407 904 394 910 q 433 897 420 897 q 465 913 453 897 q 481 964 476 930 z "},"ế":{"ha":701,"x_min":58,"x_max":726,"o":"m 643 304 l 203 304 q 266 153 210 205 q 411 100 322 100 q 494 111 455 100 q 571 145 534 122 l 621 52 q 514 1 572 20 q 391 -17 456 -17 q 221 25 297 -17 q 102 149 146 68 q 58 340 58 229 q 101 531 58 450 q 214 655 143 612 q 369 697 285 697 q 577 611 507 697 q 648 375 648 526 q 643 304 648 336 m 202 398 l 520 398 q 372 582 520 582 q 258 535 304 582 q 202 398 212 488 m 506 904 l 604 1063 l 726 1063 l 595 904 l 506 904 m 453 813 l 371 895 l 366 895 l 283 813 l 174 813 l 304 964 l 433 964 l 562 813 l 453 813 z "},"ề":{"ha":701,"x_min":58,"x_max":674,"o":"m 643 304 l 203 304 q 266 153 210 205 q 411 100 322 100 q 494 111 455 100 q 571 145 534 122 l 621 52 q 514 1 572 20 q 391 -17 456 -17 q 221 25 297 -17 q 102 149 146 68 q 58 340 58 229 q 101 531 58 450 q 214 655 143 612 q 369 697 285 697 q 577 611 507 697 q 648 375 648 526 q 643 304 648 336 m 202 398 l 520 398 q 372 582 520 582 q 258 535 304 582 q 202 398 212 488 m 574 1053 l 674 892 l 587 892 l 458 1053 l 574 1053 m 447 797 l 372 894 l 367 894 l 292 797 l 196 797 l 309 966 l 430 966 l 543 797 l 447 797 z "},"ể":{"ha":701,"x_min":58,"x_max":686,"o":"m 643 304 l 203 304 q 266 153 210 205 q 411 100 322 100 q 494 111 455 100 q 571 145 534 122 l 621 52 q 514 1 572 20 q 391 -17 456 -17 q 221 25 297 -17 q 102 149 146 68 q 58 340 58 229 q 101 531 58 450 q 214 655 143 612 q 369 697 285 697 q 577 611 507 697 q 648 375 648 526 q 643 304 648 336 m 202 398 l 520 398 q 372 582 520 582 q 258 535 304 582 q 202 398 212 488 m 490 1030 l 504 1098 q 642 1068 597 1095 q 686 994 686 1042 q 649 911 686 938 q 545 872 611 885 l 532 929 q 570 947 557 936 q 584 977 584 958 q 563 1015 584 1002 q 490 1030 541 1027 m 450 797 l 375 894 l 370 894 l 295 797 l 199 797 l 312 966 l 433 966 l 546 797 l 450 797 z "},"ễ":{"ha":701,"x_min":58,"x_max":648,"o":"m 643 304 l 203 304 q 266 153 210 205 q 411 100 322 100 q 494 111 455 100 q 571 145 534 122 l 621 52 q 514 1 572 20 q 391 -17 456 -17 q 221 25 297 -17 q 102 149 146 68 q 58 340 58 229 q 101 531 58 450 q 214 655 143 612 q 369 697 285 697 q 577 611 507 697 q 648 375 648 526 q 643 304 648 336 m 202 398 l 520 398 q 372 582 520 582 q 258 535 304 582 q 202 398 212 488 m 496 1131 l 566 1131 q 529 1028 560 1066 q 450 991 498 991 q 406 1000 425 991 q 361 1025 386 1008 q 330 1044 341 1038 q 307 1049 319 1049 q 272 1034 286 1049 q 253 991 258 1019 l 182 991 q 220 1093 189 1055 q 298 1131 251 1131 q 343 1122 323 1131 q 388 1096 363 1113 q 418 1077 406 1083 q 442 1072 430 1072 q 477 1087 463 1072 q 496 1131 491 1102 m 568 791 l 459 791 l 377 873 l 372 873 l 290 791 l 180 791 l 310 942 l 439 942 l 568 791 z "},"ệ":{"ha":701,"x_min":58,"x_max":648,"o":"m 643 304 l 203 304 q 266 153 210 205 q 411 100 322 100 q 494 111 455 100 q 571 145 534 122 l 621 52 q 514 1 572 20 q 391 -17 456 -17 q 221 25 297 -17 q 102 149 146 68 q 58 340 58 229 q 101 531 58 450 q 214 655 143 612 q 369 697 285 697 q 577 611 507 697 q 648 375 648 526 q 643 304 648 336 m 202 398 l 520 398 q 372 582 520 582 q 258 535 304 582 q 202 398 212 488 m 442 797 l 356 916 l 351 916 l 265 797 l 161 797 l 293 997 l 414 997 l 546 797 l 442 797 m 450 -212 q 424 -275 450 -250 q 360 -299 399 -299 q 296 -275 321 -299 q 271 -212 271 -250 q 296 -150 271 -174 q 360 -125 321 -125 q 424 -150 399 -125 q 450 -212 450 -174 z "},"ỉ":{"ha":357,"x_min":81,"x_max":305,"o":"m 105 0 l 105 680 l 253 680 l 253 0 l 105 0 m 81 943 l 98 1023 q 253 990 201 1020 q 305 905 305 960 q 258 812 305 844 q 136 770 211 779 l 123 833 q 176 854 157 842 q 195 889 195 867 q 167 926 195 913 q 81 943 140 939 z "},"ị":{"ha":357,"x_min":90,"x_max":269,"o":"m 90 892 q 115 955 90 930 q 179 979 140 979 q 243 955 218 979 q 269 892 269 930 q 243 829 269 854 q 179 805 218 805 q 115 829 140 805 q 90 892 90 854 m 105 680 l 253 680 l 253 0 l 105 0 l 105 680 z "},"ọ":{"ha":760,"x_min":59,"x_max":701,"o":"m 380 -17 q 219 25 292 -17 q 102 149 146 68 q 59 340 59 230 q 102 532 59 452 q 219 655 146 613 q 380 697 292 697 q 541 655 467 697 q 657 532 614 613 q 701 340 701 452 q 657 149 701 230 q 541 25 614 68 q 380 -17 467 -17 m 380 576 q 290 547 328 576 q 232 465 252 518 q 212 340 212 412 q 232 216 212 269 q 290 134 252 163 q 380 105 328 105 q 471 134 433 105 q 529 216 509 163 q 549 340 549 269 q 529 465 549 412 q 471 547 509 518 q 380 576 433 576 m 469 892 q 444 829 469 854 q 380 805 418 805 q 316 829 341 805 q 290 892 290 854 q 316 955 290 930 q 380 979 341 979 q 444 955 418 979 q 469 892 469 930 z "},"ỏ":{"ha":760,"x_min":59,"x_max":701,"o":"m 380 -17 q 219 25 292 -17 q 102 149 146 68 q 59 340 59 230 q 102 532 59 452 q 219 655 146 613 q 380 697 292 697 q 541 655 467 697 q 657 532 614 613 q 701 340 701 452 q 657 149 701 230 q 541 25 614 68 q 380 -17 467 -17 m 380 576 q 290 547 328 576 q 232 465 252 518 q 212 340 212 412 q 232 216 212 269 q 290 134 252 163 q 380 105 328 105 q 471 134 433 105 q 529 216 509 163 q 549 340 549 269 q 529 465 549 412 q 471 547 509 518 q 380 576 433 576 m 282 943 l 298 1023 q 454 990 402 1020 q 506 905 506 960 q 459 812 506 844 q 337 770 412 779 l 323 833 q 377 854 358 842 q 395 889 395 867 q 368 926 395 913 q 282 943 340 939 z "},"ố":{"ha":760,"x_min":59,"x_max":738,"o":"m 380 -17 q 219 25 292 -17 q 102 149 146 68 q 59 340 59 230 q 102 532 59 452 q 219 655 146 613 q 380 697 292 697 q 541 655 467 697 q 657 532 614 613 q 701 340 701 452 q 657 149 701 230 q 541 25 614 68 q 380 -17 467 -17 m 380 576 q 290 547 328 576 q 232 465 252 518 q 212 340 212 412 q 232 216 212 269 q 290 134 252 163 q 380 105 328 105 q 471 134 433 105 q 529 216 509 163 q 549 340 549 269 q 529 465 549 412 q 471 547 509 518 q 380 576 433 576 m 518 904 l 616 1063 l 738 1063 l 607 904 l 518 904 m 465 813 l 383 895 l 378 895 l 296 813 l 186 813 l 316 964 l 445 964 l 574 813 l 465 813 z "},"ồ":{"ha":760,"x_min":59,"x_max":701,"o":"m 380 -17 q 219 25 292 -17 q 102 149 146 68 q 59 340 59 230 q 102 532 59 452 q 219 655 146 613 q 380 697 292 697 q 541 655 467 697 q 657 532 614 613 q 701 340 701 452 q 657 149 701 230 q 541 25 614 68 q 380 -17 467 -17 m 380 576 q 290 547 328 576 q 232 465 252 518 q 212 340 212 412 q 232 216 212 269 q 290 134 252 163 q 380 105 328 105 q 471 134 433 105 q 529 216 509 163 q 549 340 549 269 q 529 465 549 412 q 471 547 509 518 q 380 576 433 576 m 587 1053 l 686 892 l 599 892 l 470 1053 l 587 1053 m 459 797 l 385 894 l 379 894 l 304 797 l 208 797 l 321 966 l 442 966 l 555 797 l 459 797 z "},"ổ":{"ha":760,"x_min":59,"x_max":701,"o":"m 380 -17 q 219 25 292 -17 q 102 149 146 68 q 59 340 59 230 q 102 532 59 452 q 219 655 146 613 q 380 697 292 697 q 541 655 467 697 q 657 532 614 613 q 701 340 701 452 q 657 149 701 230 q 541 25 614 68 q 380 -17 467 -17 m 380 576 q 290 547 328 576 q 232 465 252 518 q 212 340 212 412 q 232 216 212 269 q 290 134 252 163 q 380 105 328 105 q 471 134 433 105 q 529 216 509 163 q 549 340 549 269 q 529 465 549 412 q 471 547 509 518 q 380 576 433 576 m 497 1030 l 511 1098 q 648 1068 604 1095 q 693 994 693 1042 q 655 911 693 938 q 552 872 618 885 l 538 929 q 577 947 564 936 q 591 977 591 958 q 569 1015 591 1002 q 497 1030 548 1027 m 456 797 l 382 894 l 376 894 l 302 797 l 205 797 l 319 966 l 439 966 l 553 797 l 456 797 z "},"ỗ":{"ha":760,"x_min":59,"x_max":701,"o":"m 380 -17 q 219 25 292 -17 q 102 149 146 68 q 59 340 59 230 q 102 532 59 452 q 219 655 146 613 q 380 697 292 697 q 541 655 467 697 q 657 532 614 613 q 701 340 701 452 q 657 149 701 230 q 541 25 614 68 q 380 -17 467 -17 m 380 576 q 290 547 328 576 q 232 465 252 518 q 212 340 212 412 q 232 216 212 269 q 290 134 252 163 q 380 105 328 105 q 471 134 433 105 q 529 216 509 163 q 549 340 549 269 q 529 465 549 412 q 471 547 509 518 q 380 576 433 576 m 503 1131 l 573 1131 q 536 1028 567 1066 q 457 991 505 991 q 412 1000 432 991 q 368 1025 393 1008 q 337 1044 348 1038 q 313 1049 326 1049 q 279 1034 293 1049 q 260 991 264 1019 l 189 991 q 227 1093 195 1055 q 305 1131 258 1131 q 350 1122 330 1131 q 395 1096 370 1113 q 425 1077 413 1083 q 449 1072 437 1072 q 484 1087 469 1072 q 503 1131 498 1102 m 575 791 l 466 791 l 384 873 l 378 873 l 296 791 l 187 791 l 317 942 l 446 942 l 575 791 z "}}}
